%TF.GenerationSoftware,KiCad,Pcbnew,6.0.2+dfsg-1*%
%TF.CreationDate,2022-08-30T22:44:58-05:00*%
%TF.ProjectId,Rocket Tracker,526f636b-6574-4205-9472-61636b65722e,rev?*%
%TF.SameCoordinates,Original*%
%TF.FileFunction,Copper,L2,Bot*%
%TF.FilePolarity,Positive*%
%FSLAX46Y46*%
G04 Gerber Fmt 4.6, Leading zero omitted, Abs format (unit mm)*
G04 Created by KiCad (PCBNEW 6.0.2+dfsg-1) date 2022-08-30 22:44:58*
%MOMM*%
%LPD*%
G01*
G04 APERTURE LIST*
G04 Aperture macros list*
%AMRoundRect*
0 Rectangle with rounded corners*
0 $1 Rounding radius*
0 $2 $3 $4 $5 $6 $7 $8 $9 X,Y pos of 4 corners*
0 Add a 4 corners polygon primitive as box body*
4,1,4,$2,$3,$4,$5,$6,$7,$8,$9,$2,$3,0*
0 Add four circle primitives for the rounded corners*
1,1,$1+$1,$2,$3*
1,1,$1+$1,$4,$5*
1,1,$1+$1,$6,$7*
1,1,$1+$1,$8,$9*
0 Add four rect primitives between the rounded corners*
20,1,$1+$1,$2,$3,$4,$5,0*
20,1,$1+$1,$4,$5,$6,$7,0*
20,1,$1+$1,$6,$7,$8,$9,0*
20,1,$1+$1,$8,$9,$2,$3,0*%
G04 Aperture macros list end*
%TA.AperFunction,ComponentPad*%
%ADD10R,1.000000X1.000000*%
%TD*%
%TA.AperFunction,ComponentPad*%
%ADD11O,1.000000X1.000000*%
%TD*%
%TA.AperFunction,ComponentPad*%
%ADD12R,1.700000X1.700000*%
%TD*%
%TA.AperFunction,ComponentPad*%
%ADD13O,1.700000X1.700000*%
%TD*%
%TA.AperFunction,SMDPad,CuDef*%
%ADD14RoundRect,0.237500X0.250000X0.237500X-0.250000X0.237500X-0.250000X-0.237500X0.250000X-0.237500X0*%
%TD*%
%TA.AperFunction,SMDPad,CuDef*%
%ADD15RoundRect,0.237500X0.237500X-0.300000X0.237500X0.300000X-0.237500X0.300000X-0.237500X-0.300000X0*%
%TD*%
%TA.AperFunction,SMDPad,CuDef*%
%ADD16R,2.200000X1.200000*%
%TD*%
%TA.AperFunction,SMDPad,CuDef*%
%ADD17R,6.400000X5.800000*%
%TD*%
%TA.AperFunction,SMDPad,CuDef*%
%ADD18R,4.060000X1.520000*%
%TD*%
%TA.AperFunction,SMDPad,CuDef*%
%ADD19R,2.000000X1.000000*%
%TD*%
%TA.AperFunction,SMDPad,CuDef*%
%ADD20RoundRect,0.250000X0.412500X1.100000X-0.412500X1.100000X-0.412500X-1.100000X0.412500X-1.100000X0*%
%TD*%
%TA.AperFunction,ViaPad*%
%ADD21C,0.800000*%
%TD*%
%TA.AperFunction,ViaPad*%
%ADD22C,1.200000*%
%TD*%
%TA.AperFunction,Conductor*%
%ADD23C,0.250000*%
%TD*%
%TA.AperFunction,Conductor*%
%ADD24C,0.500000*%
%TD*%
%TA.AperFunction,Conductor*%
%ADD25C,1.219000*%
%TD*%
G04 APERTURE END LIST*
D10*
%TO.P,J1,1,Pin_1*%
%TO.N,ESP_EN*%
X100225000Y-99275000D03*
D11*
%TO.P,J1,2,Pin_2*%
%TO.N,+3V3*%
X100225000Y-98005000D03*
%TO.P,J1,3,Pin_3*%
%TO.N,ESP_TXD*%
X101495000Y-99275000D03*
%TO.P,J1,4,Pin_4*%
%TO.N,GND*%
X101495000Y-98005000D03*
%TO.P,J1,5,Pin_5*%
%TO.N,ESP_RXD*%
X102765000Y-99275000D03*
%TO.P,J1,6,Pin_6*%
%TO.N,ESP_IO0*%
X102765000Y-98005000D03*
%TD*%
D12*
%TO.P,J5,1,Pin_1*%
%TO.N,Vin*%
X127400000Y-97075000D03*
D13*
%TO.P,J5,2,Pin_2*%
%TO.N,GND*%
X127400000Y-94535000D03*
%TD*%
D12*
%TO.P,J3,1,Pin_1*%
%TO.N,Vbackup*%
X76450000Y-111600000D03*
D13*
%TO.P,J3,2,Pin_2*%
%TO.N,GND*%
X76450000Y-109060000D03*
%TD*%
D11*
%TO.P,J2,10,Pin_10*%
%TO.N,unconnected-(J2-Pad10)*%
X102120000Y-93430000D03*
%TO.P,J2,9,Pin_9*%
%TO.N,GND*%
X100850000Y-93430000D03*
%TO.P,J2,8,Pin_8*%
%TO.N,ESP_TDI*%
X102120000Y-92160000D03*
%TO.P,J2,7,Pin_7*%
%TO.N,GND*%
X100850000Y-92160000D03*
%TO.P,J2,6,Pin_6*%
%TO.N,ESP_TDO*%
X102120000Y-90890000D03*
%TO.P,J2,5,Pin_5*%
%TO.N,GND*%
X100850000Y-90890000D03*
%TO.P,J2,4,Pin_4*%
%TO.N,ESP_TCK*%
X102120000Y-89620000D03*
%TO.P,J2,3,Pin_3*%
%TO.N,GND*%
X100850000Y-89620000D03*
%TO.P,J2,2,Pin_2*%
%TO.N,ESP_TMS*%
X102120000Y-88350000D03*
D10*
%TO.P,J2,1,Pin_1*%
%TO.N,+3V3*%
X100850000Y-88350000D03*
%TD*%
D14*
%TO.P,R1,1*%
%TO.N,Net-(D1-Pad2)*%
X128212500Y-101200000D03*
%TO.P,R1,2*%
%TO.N,LED_G*%
X126387500Y-101200000D03*
%TD*%
D15*
%TO.P,C2,1*%
%TO.N,Vin*%
X95100000Y-91462500D03*
%TO.P,C2,2*%
%TO.N,GND*%
X95100000Y-89737500D03*
%TD*%
D16*
%TO.P,U5,1,GND*%
%TO.N,GND*%
X92000000Y-88420000D03*
D17*
%TO.P,U5,2,VO*%
%TO.N,+3V3*%
X85700000Y-90700000D03*
D16*
%TO.P,U5,3,VI*%
%TO.N,Vin*%
X92000000Y-92980000D03*
%TD*%
D14*
%TO.P,R2,1*%
%TO.N,Net-(D2-Pad2)*%
X128212500Y-104200000D03*
%TO.P,R2,2*%
%TO.N,LED_R*%
X126387500Y-104200000D03*
%TD*%
D18*
%TO.P,J4,1,In*%
%TO.N,Net-(J4-Pad1)*%
X72080000Y-100000000D03*
%TO.P,J4,2,Ext*%
%TO.N,GND*%
X72080000Y-97460000D03*
X72080000Y-102540000D03*
%TD*%
D19*
%TO.P,U2,1,DIO5*%
%TO.N,unconnected-(U2-Pad1)*%
X80000000Y-111000000D03*
%TO.P,U2,2,RESET*%
%TO.N,RFM_RST*%
X80000000Y-109000000D03*
%TO.P,U2,3,SCK*%
%TO.N,SCK*%
X80000000Y-107000000D03*
%TO.P,U2,4,MISO*%
%TO.N,CIPO*%
X80000000Y-105000000D03*
%TO.P,U2,5,MOSI*%
%TO.N,COPI*%
X80000000Y-103000000D03*
%TO.P,U2,6,NSS*%
%TO.N,RFM_CS*%
X80000000Y-101000000D03*
%TO.P,U2,7,GND*%
%TO.N,GND*%
X80000000Y-99000000D03*
%TO.P,U2,8,ANT*%
%TO.N,Net-(J4-Pad1)*%
X80000000Y-97000000D03*
%TO.P,U2,9,GND*%
%TO.N,GND*%
X96000000Y-97000000D03*
%TO.P,U2,10,GND*%
X96000000Y-99000000D03*
%TO.P,U2,11,3.3V*%
%TO.N,+3V3*%
X96000000Y-101000000D03*
%TO.P,U2,12,DIO0*%
%TO.N,RFM_DIO0*%
X96000000Y-103000000D03*
%TO.P,U2,13,DIO1*%
%TO.N,unconnected-(U2-Pad13)*%
X96000000Y-105000000D03*
%TO.P,U2,14,DIO2*%
%TO.N,unconnected-(U2-Pad14)*%
X96000000Y-107000000D03*
%TO.P,U2,15,DIO3*%
%TO.N,unconnected-(U2-Pad15)*%
X96000000Y-109000000D03*
%TO.P,U2,16,DIO4*%
%TO.N,unconnected-(U2-Pad16)*%
X96000000Y-111000000D03*
%TD*%
D20*
%TO.P,C1,1*%
%TO.N,+3V3*%
X78762500Y-91500000D03*
%TO.P,C1,2*%
%TO.N,GND*%
X75637500Y-91500000D03*
%TD*%
%TO.P,C3,1*%
%TO.N,+3V3*%
X78762500Y-88300000D03*
%TO.P,C3,2*%
%TO.N,GND*%
X75637500Y-88300000D03*
%TD*%
D21*
%TO.N,ESP_TDI*%
X104240000Y-92160000D03*
%TO.N,+3V3*%
X98475000Y-89225000D03*
D22*
%TO.N,GND*%
X81250000Y-87250000D03*
D21*
X77100000Y-95700000D03*
X75200000Y-102100000D03*
X121300000Y-98450000D03*
D22*
X118950000Y-105750000D03*
X99350000Y-111350000D03*
D21*
X81036812Y-92600500D03*
X121350000Y-95550000D03*
X75200000Y-97900000D03*
X77200000Y-90450000D03*
X77800000Y-101200000D03*
X76100000Y-96700000D03*
D22*
X109700000Y-104250000D03*
D21*
X78400000Y-95200000D03*
X79500000Y-95100000D03*
X76500000Y-101800000D03*
X121250000Y-101300000D03*
D22*
X115450000Y-101900000D03*
D21*
%TO.N,Net-(D1-Pad2)*%
X129250000Y-101200000D03*
%TO.N,Net-(D2-Pad2)*%
X129250000Y-104200000D03*
%TO.N,ESP_EN*%
X119250000Y-102700000D03*
X99400489Y-96874011D03*
D22*
%TO.N,+3V3*%
X78750000Y-93450000D03*
X112200000Y-104000000D03*
X83650000Y-90800000D03*
X94250000Y-101000000D03*
X108035498Y-87600000D03*
X121550000Y-104000000D03*
D21*
X78762500Y-91500000D03*
D22*
X97250000Y-91700000D03*
D21*
%TO.N,ESP_TMS*%
X118899500Y-89400000D03*
%TO.N,ESP_TCK*%
X105000000Y-91300000D03*
%TO.N,ESP_TDI*%
X121900000Y-88750000D03*
%TO.N,SDA*%
X104950000Y-98900000D03*
X98500000Y-102075500D03*
%TO.N,LED_R*%
X125100000Y-97900000D03*
%TO.N,LED_G*%
X125200000Y-96150000D03*
%TO.N,RFM_CS*%
X108000000Y-93900000D03*
%TO.N,GPS_FIX*%
X121900000Y-92550000D03*
X88750000Y-94350000D03*
%TO.N,RFM_RST*%
X111050000Y-94450000D03*
%TO.N,GPS_TX*%
X83800000Y-97600000D03*
X118200000Y-92250000D03*
%TO.N,GPS_RX*%
X116900000Y-91650000D03*
X82700000Y-97600000D03*
%TO.N,SCK*%
X109450000Y-95500000D03*
%TO.N,COPI*%
X104600000Y-104000000D03*
%TO.N,CIPO*%
X109374500Y-96538163D03*
%TO.N,RFM_DIO0*%
X110350000Y-93699011D03*
%TD*%
D23*
%TO.N,ESP_TDI*%
X104240000Y-92160000D02*
X104340000Y-92160000D01*
%TO.N,ESP_EN*%
X119250000Y-93800000D02*
X119250000Y-102700000D01*
X118424511Y-92974511D02*
X119250000Y-93800000D01*
X107525489Y-92974511D02*
X118424511Y-92974511D01*
X103850000Y-96650000D02*
X107525489Y-92974511D01*
X99624500Y-96650000D02*
X103850000Y-96650000D01*
X99400489Y-96874011D02*
X99624500Y-96650000D01*
D24*
%TO.N,+3V3*%
X98475000Y-89225000D02*
X99350000Y-88350000D01*
%TO.N,Vin*%
X127400000Y-97075000D02*
X125950922Y-95625922D01*
X125950922Y-95625922D02*
X125950922Y-88200922D01*
X125950922Y-88200922D02*
X124250000Y-86500000D01*
X95100000Y-90724520D02*
X95100000Y-91462500D01*
X124250000Y-86500000D02*
X98950000Y-86500000D01*
X98950000Y-86500000D02*
X97050000Y-88400000D01*
X97050000Y-88400000D02*
X97050000Y-89650000D01*
X97050000Y-89650000D02*
X95975480Y-90724520D01*
X95975480Y-90724520D02*
X95100000Y-90724520D01*
D23*
%TO.N,ESP_TDI*%
X104340000Y-92160000D02*
X105164614Y-92160000D01*
%TO.N,GPS_FIX*%
X120150000Y-90800000D02*
X121900000Y-92550000D01*
X107664268Y-90800000D02*
X120150000Y-90800000D01*
X103214268Y-95250000D02*
X107664268Y-90800000D01*
X89650000Y-95250000D02*
X103214268Y-95250000D01*
X88750000Y-94350000D02*
X89650000Y-95250000D01*
%TO.N,Net-(D1-Pad2)*%
X129250000Y-101200000D02*
X128212500Y-101200000D01*
%TO.N,Net-(D2-Pad2)*%
X129250000Y-104200000D02*
X128212500Y-104200000D01*
D24*
%TO.N,+3V3*%
X99495000Y-98005000D02*
X100225000Y-98005000D01*
X78762500Y-91500000D02*
X78762500Y-93437500D01*
X112200000Y-104000000D02*
X121550000Y-104000000D01*
X99350000Y-88350000D02*
X100850000Y-88350000D01*
X108035498Y-87585498D02*
X107750000Y-87300000D01*
X78762500Y-93437500D02*
X78750000Y-93450000D01*
X78762500Y-89887500D02*
X78762500Y-91500000D01*
X100900000Y-87300000D02*
X100850000Y-87350000D01*
X100400000Y-87300000D02*
X100900000Y-87300000D01*
X99350000Y-88350000D02*
X100400000Y-87300000D01*
X78762500Y-89887500D02*
X78775000Y-89900000D01*
X97250000Y-91700000D02*
X97250000Y-90450000D01*
X107750000Y-87300000D02*
X100900000Y-87300000D01*
X78762500Y-88300000D02*
X78762500Y-89887500D01*
X78775000Y-89900000D02*
X84900000Y-89900000D01*
X108035498Y-87600000D02*
X108035498Y-87585498D01*
X96000000Y-101000000D02*
X96500000Y-101000000D01*
X96500000Y-101000000D02*
X99495000Y-98005000D01*
X84900000Y-89900000D02*
X85700000Y-90700000D01*
X97250000Y-90450000D02*
X98475000Y-89225000D01*
X96000000Y-101000000D02*
X94250000Y-101000000D01*
X100850000Y-87350000D02*
X100850000Y-88350000D01*
D23*
%TO.N,ESP_TMS*%
X118899500Y-89400000D02*
X103735718Y-89400000D01*
X103735718Y-89400000D02*
X102685718Y-88350000D01*
X102685718Y-88350000D02*
X102120000Y-88350000D01*
%TO.N,ESP_TCK*%
X103320000Y-89620000D02*
X105000000Y-91300000D01*
X102120000Y-89620000D02*
X103320000Y-89620000D01*
%TO.N,ESP_TDI*%
X107174614Y-90150000D02*
X120500000Y-90150000D01*
X102120000Y-92160000D02*
X104240000Y-92160000D01*
X105164614Y-92160000D02*
X107174614Y-90150000D01*
X120500000Y-90150000D02*
X121900000Y-88750000D01*
D24*
%TO.N,Vin*%
X93582500Y-92980000D02*
X95100000Y-91462500D01*
X92000000Y-92980000D02*
X93582500Y-92980000D01*
D23*
%TO.N,SDA*%
X104450000Y-102050000D02*
X104950000Y-101550000D01*
X104950000Y-101550000D02*
X104950000Y-98900000D01*
X98500000Y-102075500D02*
X98525500Y-102050000D01*
X98525500Y-102050000D02*
X104450000Y-102050000D01*
%TO.N,LED_R*%
X125100000Y-102912500D02*
X125100000Y-97900000D01*
X126387500Y-104200000D02*
X125100000Y-102912500D01*
%TO.N,LED_G*%
X125900000Y-96850000D02*
X125200000Y-96150000D01*
X125900000Y-100712500D02*
X125900000Y-96850000D01*
X126387500Y-101200000D02*
X125900000Y-100712500D01*
%TO.N,RFM_CS*%
X97175489Y-102175489D02*
X97800000Y-102800000D01*
X80000000Y-101000000D02*
X90050000Y-101000000D01*
X91850000Y-102800000D02*
X92474511Y-102175489D01*
X92474511Y-102175489D02*
X97175489Y-102175489D01*
X108000000Y-100300000D02*
X108000000Y-93900000D01*
X90050000Y-101000000D02*
X91850000Y-102800000D01*
X97800000Y-102800000D02*
X105500000Y-102800000D01*
X105500000Y-102800000D02*
X108000000Y-100300000D01*
%TO.N,RFM_RST*%
X110850000Y-100400000D02*
X105600000Y-105650000D01*
X101573196Y-105650000D02*
X97398685Y-109824511D01*
X97398685Y-109824511D02*
X80824511Y-109824511D01*
X111050000Y-94450000D02*
X110850000Y-94650000D01*
X105600000Y-105650000D02*
X101573196Y-105650000D01*
X110850000Y-94650000D02*
X110850000Y-100400000D01*
X80824511Y-109824511D02*
X80000000Y-109000000D01*
%TO.N,GPS_TX*%
X118200000Y-92250000D02*
X118050000Y-92400000D01*
X103586193Y-96149511D02*
X85250490Y-96149510D01*
X85250490Y-96149510D02*
X83800000Y-97600000D01*
X107335704Y-92400000D02*
X103586193Y-96149511D01*
X118050000Y-92400000D02*
X107335704Y-92400000D01*
%TO.N,GPS_RX*%
X84600000Y-95700000D02*
X82700000Y-97600000D01*
X103399986Y-95700000D02*
X84600000Y-95700000D01*
X116900000Y-91650000D02*
X116850000Y-91700000D01*
X116850000Y-91700000D02*
X107399986Y-91700000D01*
X107399986Y-91700000D02*
X103399986Y-95700000D01*
%TO.N,SCK*%
X110099001Y-100350999D02*
X105250480Y-105199520D01*
X110099001Y-96149001D02*
X110099001Y-100350999D01*
X109450000Y-95500000D02*
X110099001Y-96149001D01*
X97225489Y-107824511D02*
X80824511Y-107824511D01*
X80824511Y-107824511D02*
X80000000Y-107000000D01*
X105250480Y-105199520D02*
X99850480Y-105199520D01*
X99850480Y-105199520D02*
X97225489Y-107824511D01*
%TO.N,COPI*%
X80000000Y-103000000D02*
X80824511Y-102175489D01*
X89675489Y-102175489D02*
X91500000Y-104000000D01*
X91500000Y-104000000D02*
X104600000Y-104000000D01*
X80824511Y-102175489D02*
X89675489Y-102175489D01*
%TO.N,CIPO*%
X98399022Y-104750000D02*
X104950000Y-104750000D01*
X109324010Y-96588653D02*
X109374500Y-96538163D01*
X109324010Y-100375990D02*
X109324010Y-96588653D01*
X97074501Y-106074521D02*
X98399022Y-104750000D01*
X80000000Y-105000000D02*
X81074521Y-106074521D01*
X81074521Y-106074521D02*
X97074501Y-106074521D01*
X104950000Y-104750000D02*
X109324010Y-100375990D01*
%TO.N,RFM_DIO0*%
X108650000Y-95275386D02*
X108650000Y-100285704D01*
X110350000Y-93699011D02*
X110226375Y-93699011D01*
X96250000Y-103250000D02*
X96000000Y-103000000D01*
X110226375Y-93699011D02*
X108650000Y-95275386D01*
X105685704Y-103250000D02*
X96250000Y-103250000D01*
X108650000Y-100285704D02*
X105685704Y-103250000D01*
D25*
%TO.N,Net-(J4-Pad1)*%
X72080000Y-100000000D02*
X75813930Y-100000000D01*
X78813929Y-97000000D02*
X80000000Y-97000000D01*
X78813929Y-97000000D02*
G75*
G03*
X77309011Y-98504918I-1J-1504917D01*
G01*
X77309011Y-98504918D02*
G75*
G02*
X75813930Y-100000000I-1495081J-1D01*
G01*
%TD*%
%TA.AperFunction,Conductor*%
%TO.N,GND*%
G36*
X78430295Y-99392875D02*
G01*
X78478673Y-99444837D01*
X78492001Y-99501237D01*
X78492001Y-99544669D01*
X78492371Y-99551490D01*
X78497895Y-99602352D01*
X78501521Y-99617604D01*
X78546676Y-99738054D01*
X78555214Y-99753649D01*
X78631715Y-99855724D01*
X78644274Y-99868283D01*
X78685075Y-99898862D01*
X78727589Y-99955722D01*
X78732614Y-100026540D01*
X78698554Y-100088834D01*
X78685075Y-100100513D01*
X78636739Y-100136739D01*
X78549385Y-100253295D01*
X78498255Y-100389684D01*
X78491500Y-100451866D01*
X78491500Y-101548134D01*
X78498255Y-101610316D01*
X78549385Y-101746705D01*
X78636739Y-101863261D01*
X78684660Y-101899176D01*
X78727173Y-101956033D01*
X78732199Y-102026851D01*
X78698139Y-102089145D01*
X78684670Y-102100817D01*
X78636739Y-102136739D01*
X78549385Y-102253295D01*
X78498255Y-102389684D01*
X78491500Y-102451866D01*
X78491500Y-103548134D01*
X78498255Y-103610316D01*
X78549385Y-103746705D01*
X78636739Y-103863261D01*
X78684660Y-103899176D01*
X78727173Y-103956033D01*
X78732199Y-104026851D01*
X78698139Y-104089145D01*
X78684670Y-104100817D01*
X78636739Y-104136739D01*
X78549385Y-104253295D01*
X78498255Y-104389684D01*
X78491500Y-104451866D01*
X78491500Y-105548134D01*
X78498255Y-105610316D01*
X78549385Y-105746705D01*
X78636739Y-105863261D01*
X78684660Y-105899176D01*
X78727173Y-105956033D01*
X78732199Y-106026851D01*
X78698139Y-106089145D01*
X78684670Y-106100817D01*
X78636739Y-106136739D01*
X78549385Y-106253295D01*
X78498255Y-106389684D01*
X78491500Y-106451866D01*
X78491500Y-107548134D01*
X78498255Y-107610316D01*
X78549385Y-107746705D01*
X78636739Y-107863261D01*
X78684660Y-107899176D01*
X78727173Y-107956033D01*
X78732199Y-108026851D01*
X78698139Y-108089145D01*
X78684670Y-108100817D01*
X78636739Y-108136739D01*
X78549385Y-108253295D01*
X78498255Y-108389684D01*
X78491500Y-108451866D01*
X78491500Y-109548134D01*
X78498255Y-109610316D01*
X78549385Y-109746705D01*
X78636739Y-109863261D01*
X78684660Y-109899176D01*
X78727173Y-109956033D01*
X78732199Y-110026851D01*
X78698139Y-110089145D01*
X78684670Y-110100817D01*
X78636739Y-110136739D01*
X78549385Y-110253295D01*
X78498255Y-110389684D01*
X78491500Y-110451866D01*
X78491500Y-111548134D01*
X78498255Y-111610316D01*
X78549385Y-111746705D01*
X78636739Y-111863261D01*
X78753295Y-111950615D01*
X78889684Y-112001745D01*
X78951866Y-112008500D01*
X81048134Y-112008500D01*
X81110316Y-112001745D01*
X81246705Y-111950615D01*
X81363261Y-111863261D01*
X81450615Y-111746705D01*
X81501745Y-111610316D01*
X81508500Y-111548134D01*
X81508500Y-110584011D01*
X81528502Y-110515890D01*
X81582158Y-110469397D01*
X81634500Y-110458011D01*
X94365500Y-110458011D01*
X94433621Y-110478013D01*
X94480114Y-110531669D01*
X94491500Y-110584011D01*
X94491500Y-111548134D01*
X94498255Y-111610316D01*
X94549385Y-111746705D01*
X94636739Y-111863261D01*
X94753295Y-111950615D01*
X94889684Y-112001745D01*
X94951866Y-112008500D01*
X97048134Y-112008500D01*
X97110316Y-112001745D01*
X97246705Y-111950615D01*
X97363261Y-111863261D01*
X97450615Y-111746705D01*
X97501745Y-111610316D01*
X97508500Y-111548134D01*
X97508500Y-110548008D01*
X97528502Y-110479887D01*
X97588119Y-110430855D01*
X97598599Y-110426706D01*
X97609827Y-110422862D01*
X97644668Y-110412740D01*
X97644669Y-110412740D01*
X97652278Y-110410529D01*
X97659097Y-110406496D01*
X97659102Y-110406494D01*
X97669713Y-110400218D01*
X97687461Y-110391523D01*
X97706302Y-110384063D01*
X97742072Y-110358075D01*
X97751992Y-110351559D01*
X97783220Y-110333091D01*
X97783223Y-110333089D01*
X97790047Y-110329053D01*
X97804368Y-110314732D01*
X97819402Y-110301891D01*
X97822851Y-110299385D01*
X97835792Y-110289983D01*
X97863983Y-110255906D01*
X97871973Y-110247127D01*
X100484905Y-107634196D01*
X100547217Y-107600170D01*
X100618033Y-107605235D01*
X100674868Y-107647782D01*
X100699679Y-107714302D01*
X100700000Y-107723291D01*
X100700000Y-113366000D01*
X100679998Y-113434121D01*
X100626342Y-113480614D01*
X100574000Y-113492000D01*
X72898207Y-113492000D01*
X72830086Y-113471998D01*
X72783593Y-113418342D01*
X72773489Y-113348068D01*
X72802983Y-113283488D01*
X72831064Y-113259380D01*
X72902288Y-113214528D01*
X72902291Y-113214526D01*
X72906567Y-113211833D01*
X72956676Y-113167656D01*
X73084858Y-113054650D01*
X73084861Y-113054647D01*
X73088655Y-113051302D01*
X73216854Y-112895229D01*
X73239526Y-112867628D01*
X73239528Y-112867625D01*
X73242734Y-112863722D01*
X73364841Y-112653922D01*
X73385040Y-112601301D01*
X73424642Y-112498134D01*
X75091500Y-112498134D01*
X75098255Y-112560316D01*
X75149385Y-112696705D01*
X75236739Y-112813261D01*
X75353295Y-112900615D01*
X75489684Y-112951745D01*
X75551866Y-112958500D01*
X77348134Y-112958500D01*
X77410316Y-112951745D01*
X77546705Y-112900615D01*
X77663261Y-112813261D01*
X77750615Y-112696705D01*
X77801745Y-112560316D01*
X77808500Y-112498134D01*
X77808500Y-110701866D01*
X77801745Y-110639684D01*
X77750615Y-110503295D01*
X77663261Y-110386739D01*
X77546705Y-110299385D01*
X77519321Y-110289119D01*
X77427687Y-110254767D01*
X77370923Y-110212125D01*
X77346223Y-110145564D01*
X77361430Y-110076215D01*
X77382977Y-110047535D01*
X77484052Y-109946812D01*
X77490730Y-109938965D01*
X77615003Y-109766020D01*
X77620313Y-109757183D01*
X77714670Y-109566267D01*
X77718469Y-109556672D01*
X77780377Y-109352910D01*
X77782555Y-109342837D01*
X77783986Y-109331962D01*
X77781775Y-109317778D01*
X77768617Y-109314000D01*
X75133225Y-109314000D01*
X75119694Y-109317973D01*
X75118257Y-109327966D01*
X75148565Y-109462446D01*
X75151645Y-109472275D01*
X75231770Y-109669603D01*
X75236413Y-109678794D01*
X75347694Y-109860388D01*
X75353777Y-109868699D01*
X75493213Y-110029667D01*
X75500577Y-110036879D01*
X75505522Y-110040985D01*
X75545156Y-110099889D01*
X75546653Y-110170870D01*
X75509537Y-110231392D01*
X75469264Y-110255910D01*
X75361705Y-110296232D01*
X75361704Y-110296233D01*
X75353295Y-110299385D01*
X75236739Y-110386739D01*
X75149385Y-110503295D01*
X75098255Y-110639684D01*
X75091500Y-110701866D01*
X75091500Y-112498134D01*
X73424642Y-112498134D01*
X73450020Y-112432022D01*
X73450021Y-112432018D01*
X73451833Y-112427298D01*
X73501474Y-112189680D01*
X73512486Y-111947183D01*
X73511905Y-111942159D01*
X73485167Y-111711071D01*
X73485166Y-111711067D01*
X73484585Y-111706044D01*
X73418490Y-111472468D01*
X73416356Y-111467892D01*
X73416354Y-111467886D01*
X73318038Y-111257046D01*
X73318036Y-111257042D01*
X73315901Y-111252464D01*
X73179456Y-111051693D01*
X73012668Y-110875319D01*
X73008641Y-110872240D01*
X72823846Y-110730953D01*
X72823842Y-110730950D01*
X72819826Y-110727880D01*
X72605891Y-110613169D01*
X72376369Y-110534138D01*
X72270722Y-110515890D01*
X72141074Y-110493496D01*
X72141068Y-110493495D01*
X72137164Y-110492821D01*
X72133203Y-110492641D01*
X72133202Y-110492641D01*
X72109494Y-110491564D01*
X72109475Y-110491564D01*
X72108075Y-110491500D01*
X71938999Y-110491500D01*
X71936491Y-110491702D01*
X71936486Y-110491702D01*
X71763076Y-110505654D01*
X71763071Y-110505655D01*
X71758035Y-110506060D01*
X71753127Y-110507266D01*
X71753124Y-110507266D01*
X71527208Y-110562756D01*
X71522294Y-110563963D01*
X71517642Y-110565938D01*
X71517638Y-110565939D01*
X71410252Y-110611522D01*
X71298844Y-110658812D01*
X71294560Y-110661510D01*
X71097712Y-110785472D01*
X71097709Y-110785474D01*
X71093433Y-110788167D01*
X71089639Y-110791512D01*
X70915142Y-110945350D01*
X70915139Y-110945353D01*
X70911345Y-110948698D01*
X70757266Y-111136278D01*
X70754725Y-111140644D01*
X70754720Y-111140651D01*
X70742899Y-111160962D01*
X70691345Y-111209776D01*
X70621585Y-111222969D01*
X70555767Y-111196352D01*
X70514787Y-111138377D01*
X70508000Y-111097582D01*
X70508000Y-108794183D01*
X75114389Y-108794183D01*
X75115912Y-108802607D01*
X75128292Y-108806000D01*
X76177885Y-108806000D01*
X76193124Y-108801525D01*
X76194329Y-108800135D01*
X76196000Y-108792452D01*
X76196000Y-108787885D01*
X76704000Y-108787885D01*
X76708475Y-108803124D01*
X76709865Y-108804329D01*
X76717548Y-108806000D01*
X77768344Y-108806000D01*
X77781875Y-108802027D01*
X77783180Y-108792947D01*
X77741214Y-108625875D01*
X77737894Y-108616124D01*
X77652972Y-108420814D01*
X77648105Y-108411739D01*
X77532426Y-108232926D01*
X77526136Y-108224757D01*
X77382806Y-108067240D01*
X77375273Y-108060215D01*
X77208139Y-107928222D01*
X77199552Y-107922517D01*
X77013117Y-107819599D01*
X77003705Y-107815369D01*
X76802959Y-107744280D01*
X76792988Y-107741646D01*
X76721837Y-107728972D01*
X76708540Y-107730432D01*
X76704000Y-107744989D01*
X76704000Y-108787885D01*
X76196000Y-108787885D01*
X76196000Y-107743102D01*
X76192082Y-107729758D01*
X76177806Y-107727771D01*
X76139324Y-107733660D01*
X76129288Y-107736051D01*
X75926868Y-107802212D01*
X75917359Y-107806209D01*
X75728463Y-107904542D01*
X75719738Y-107910036D01*
X75549433Y-108037905D01*
X75541726Y-108044748D01*
X75394590Y-108198717D01*
X75388104Y-108206727D01*
X75268098Y-108382649D01*
X75263000Y-108391623D01*
X75173338Y-108584783D01*
X75169775Y-108594470D01*
X75114389Y-108794183D01*
X70508000Y-108794183D01*
X70508000Y-101394500D01*
X70528002Y-101326379D01*
X70581658Y-101279886D01*
X70634000Y-101268500D01*
X74158134Y-101268500D01*
X74220316Y-101261745D01*
X74356705Y-101210615D01*
X74446691Y-101143174D01*
X74513197Y-101118326D01*
X74522256Y-101118000D01*
X75723660Y-101118000D01*
X75741739Y-101119304D01*
X75755168Y-101121251D01*
X75813930Y-101122790D01*
X75817618Y-101122451D01*
X75817621Y-101122451D01*
X75822618Y-101121992D01*
X75830539Y-101121264D01*
X75834976Y-101120935D01*
X76106963Y-101105661D01*
X76396312Y-101056498D01*
X76641130Y-100985967D01*
X76674938Y-100976227D01*
X76674939Y-100976227D01*
X76678336Y-100975248D01*
X76702778Y-100965124D01*
X76946222Y-100864287D01*
X76946227Y-100864284D01*
X76949490Y-100862933D01*
X77206364Y-100720964D01*
X77445727Y-100551126D01*
X77607782Y-100406305D01*
X77661934Y-100357912D01*
X77661936Y-100357910D01*
X77664569Y-100355557D01*
X77860138Y-100136714D01*
X77904281Y-100074501D01*
X78027935Y-99900226D01*
X78029975Y-99897351D01*
X78171944Y-99640478D01*
X78187737Y-99602352D01*
X78249592Y-99453019D01*
X78294140Y-99397738D01*
X78361504Y-99375317D01*
X78430295Y-99392875D01*
G37*
%TD.AperFunction*%
%TA.AperFunction,Conductor*%
G36*
X123951750Y-87278502D02*
G01*
X123972724Y-87295405D01*
X125155517Y-88478198D01*
X125189543Y-88540510D01*
X125192422Y-88567293D01*
X125192422Y-95120781D01*
X125172420Y-95188902D01*
X125118764Y-95235395D01*
X125092619Y-95244028D01*
X125057608Y-95251470D01*
X124917712Y-95281206D01*
X124911682Y-95283891D01*
X124911681Y-95283891D01*
X124749278Y-95356197D01*
X124749276Y-95356198D01*
X124743248Y-95358882D01*
X124588747Y-95471134D01*
X124460960Y-95613056D01*
X124365473Y-95778444D01*
X124306458Y-95960072D01*
X124305768Y-95966633D01*
X124305768Y-95966635D01*
X124287575Y-96139737D01*
X124286496Y-96150000D01*
X124287186Y-96156565D01*
X124297353Y-96253295D01*
X124306458Y-96339928D01*
X124365473Y-96521556D01*
X124460960Y-96686944D01*
X124465378Y-96691851D01*
X124465379Y-96691852D01*
X124503231Y-96733891D01*
X124588747Y-96828866D01*
X124645173Y-96869862D01*
X124671865Y-96889255D01*
X124715219Y-96945477D01*
X124721294Y-97016214D01*
X124688162Y-97079005D01*
X124654693Y-97102360D01*
X124655001Y-97102893D01*
X124649278Y-97106197D01*
X124643248Y-97108882D01*
X124637907Y-97112762D01*
X124637906Y-97112763D01*
X124627765Y-97120131D01*
X124488747Y-97221134D01*
X124484326Y-97226044D01*
X124484325Y-97226045D01*
X124432537Y-97283562D01*
X124360960Y-97363056D01*
X124265473Y-97528444D01*
X124206458Y-97710072D01*
X124205768Y-97716633D01*
X124205768Y-97716635D01*
X124191112Y-97856081D01*
X124186496Y-97900000D01*
X124187186Y-97906565D01*
X124199829Y-98026852D01*
X124206458Y-98089928D01*
X124265473Y-98271556D01*
X124360960Y-98436944D01*
X124434137Y-98518215D01*
X124464853Y-98582221D01*
X124466500Y-98602524D01*
X124466500Y-102833733D01*
X124465973Y-102844916D01*
X124464298Y-102852409D01*
X124464547Y-102860335D01*
X124464547Y-102860336D01*
X124466438Y-102920486D01*
X124466500Y-102924445D01*
X124466500Y-102952356D01*
X124466997Y-102956290D01*
X124466997Y-102956291D01*
X124467005Y-102956356D01*
X124467938Y-102968193D01*
X124469327Y-103012389D01*
X124474978Y-103031839D01*
X124478987Y-103051200D01*
X124481526Y-103071297D01*
X124484445Y-103078668D01*
X124484445Y-103078670D01*
X124497804Y-103112412D01*
X124501649Y-103123642D01*
X124513982Y-103166093D01*
X124518015Y-103172912D01*
X124518017Y-103172917D01*
X124524293Y-103183528D01*
X124532988Y-103201276D01*
X124540448Y-103220117D01*
X124545110Y-103226533D01*
X124545110Y-103226534D01*
X124566436Y-103255887D01*
X124572952Y-103265807D01*
X124588941Y-103292842D01*
X124595458Y-103303862D01*
X124609779Y-103318183D01*
X124622619Y-103333216D01*
X124634528Y-103349607D01*
X124640632Y-103354657D01*
X124640637Y-103354662D01*
X124668598Y-103377793D01*
X124677379Y-103385783D01*
X125354596Y-104063001D01*
X125388621Y-104125313D01*
X125391500Y-104152096D01*
X125391500Y-104487072D01*
X125391837Y-104490318D01*
X125391837Y-104490322D01*
X125400056Y-104569530D01*
X125402293Y-104591093D01*
X125404474Y-104597629D01*
X125404474Y-104597631D01*
X125417602Y-104636980D01*
X125457346Y-104756107D01*
X125548884Y-104904031D01*
X125554066Y-104909204D01*
X125666816Y-105021758D01*
X125666821Y-105021762D01*
X125671997Y-105026929D01*
X125678227Y-105030769D01*
X125678228Y-105030770D01*
X125809558Y-105111723D01*
X125820080Y-105118209D01*
X125985191Y-105172974D01*
X125992027Y-105173674D01*
X125992030Y-105173675D01*
X126043526Y-105178951D01*
X126087928Y-105183500D01*
X126687072Y-105183500D01*
X126690318Y-105183163D01*
X126690322Y-105183163D01*
X126784235Y-105173419D01*
X126784239Y-105173418D01*
X126791093Y-105172707D01*
X126797629Y-105170526D01*
X126797631Y-105170526D01*
X126930395Y-105126232D01*
X126956107Y-105117654D01*
X127104031Y-105026116D01*
X127154926Y-104975132D01*
X127210747Y-104919214D01*
X127273030Y-104885135D01*
X127343850Y-104890138D01*
X127388937Y-104919059D01*
X127491812Y-105021754D01*
X127491817Y-105021758D01*
X127496997Y-105026929D01*
X127503227Y-105030769D01*
X127503228Y-105030770D01*
X127634558Y-105111723D01*
X127645080Y-105118209D01*
X127810191Y-105172974D01*
X127817027Y-105173674D01*
X127817030Y-105173675D01*
X127868526Y-105178951D01*
X127912928Y-105183500D01*
X128512072Y-105183500D01*
X128515318Y-105183163D01*
X128515322Y-105183163D01*
X128609235Y-105173419D01*
X128609239Y-105173418D01*
X128616093Y-105172707D01*
X128622629Y-105170526D01*
X128622631Y-105170526D01*
X128683879Y-105150092D01*
X128781107Y-105117654D01*
X128787328Y-105113805D01*
X128787331Y-105113803D01*
X128848439Y-105075989D01*
X128916891Y-105057152D01*
X128954913Y-105065572D01*
X128955402Y-105064068D01*
X128961676Y-105066107D01*
X128967712Y-105068794D01*
X129001562Y-105075989D01*
X129148056Y-105107128D01*
X129148061Y-105107128D01*
X129154513Y-105108500D01*
X129345487Y-105108500D01*
X129351949Y-105107127D01*
X129352829Y-105107034D01*
X129422668Y-105119806D01*
X129474515Y-105168308D01*
X129492000Y-105232344D01*
X129492000Y-106574000D01*
X129471998Y-106642121D01*
X129418342Y-106688614D01*
X129366000Y-106700000D01*
X101723291Y-106700000D01*
X101655170Y-106679998D01*
X101608677Y-106626342D01*
X101598573Y-106556068D01*
X101628067Y-106491488D01*
X101634196Y-106484905D01*
X101798696Y-106320405D01*
X101861008Y-106286379D01*
X101887791Y-106283500D01*
X105521233Y-106283500D01*
X105532416Y-106284027D01*
X105539909Y-106285702D01*
X105547835Y-106285453D01*
X105547836Y-106285453D01*
X105607986Y-106283562D01*
X105611945Y-106283500D01*
X105639856Y-106283500D01*
X105643791Y-106283003D01*
X105643856Y-106282995D01*
X105655693Y-106282062D01*
X105687951Y-106281048D01*
X105691970Y-106280922D01*
X105699889Y-106280673D01*
X105719343Y-106275021D01*
X105738700Y-106271013D01*
X105750930Y-106269468D01*
X105750931Y-106269468D01*
X105758797Y-106268474D01*
X105766168Y-106265555D01*
X105766170Y-106265555D01*
X105799912Y-106252196D01*
X105811142Y-106248351D01*
X105845983Y-106238229D01*
X105845984Y-106238229D01*
X105853593Y-106236018D01*
X105860412Y-106231985D01*
X105860417Y-106231983D01*
X105871028Y-106225707D01*
X105888776Y-106217012D01*
X105907617Y-106209552D01*
X105943387Y-106183564D01*
X105953307Y-106177048D01*
X105984535Y-106158580D01*
X105984538Y-106158578D01*
X105991362Y-106154542D01*
X106005683Y-106140221D01*
X106020717Y-106127380D01*
X106030694Y-106120131D01*
X106037107Y-106115472D01*
X106065298Y-106081395D01*
X106073288Y-106072616D01*
X111242247Y-100903657D01*
X111250537Y-100896113D01*
X111257018Y-100892000D01*
X111303659Y-100842332D01*
X111306413Y-100839491D01*
X111326134Y-100819770D01*
X111328612Y-100816575D01*
X111336318Y-100807553D01*
X111361158Y-100781101D01*
X111366586Y-100775321D01*
X111376346Y-100757568D01*
X111387199Y-100741045D01*
X111394753Y-100731306D01*
X111399613Y-100725041D01*
X111417176Y-100684457D01*
X111422383Y-100673827D01*
X111443695Y-100635060D01*
X111445666Y-100627383D01*
X111445668Y-100627378D01*
X111448732Y-100615442D01*
X111455138Y-100596730D01*
X111460033Y-100585419D01*
X111463181Y-100578145D01*
X111464421Y-100570317D01*
X111464423Y-100570310D01*
X111470099Y-100534476D01*
X111472505Y-100522856D01*
X111481528Y-100487711D01*
X111481528Y-100487710D01*
X111483500Y-100480030D01*
X111483500Y-100459776D01*
X111485051Y-100440065D01*
X111486980Y-100427886D01*
X111488220Y-100420057D01*
X111484059Y-100376038D01*
X111483500Y-100364181D01*
X111483500Y-95322212D01*
X111503502Y-95254091D01*
X111535439Y-95220276D01*
X111604738Y-95169927D01*
X111661253Y-95128866D01*
X111709775Y-95074977D01*
X111784621Y-94991852D01*
X111784622Y-94991851D01*
X111789040Y-94986944D01*
X111884527Y-94821556D01*
X111943542Y-94639928D01*
X111946005Y-94616500D01*
X111962814Y-94456565D01*
X111963504Y-94450000D01*
X111954829Y-94367458D01*
X111944232Y-94266635D01*
X111944232Y-94266633D01*
X111943542Y-94260072D01*
X111884527Y-94078444D01*
X111789040Y-93913056D01*
X111703739Y-93818319D01*
X111673023Y-93754314D01*
X111681787Y-93683860D01*
X111727249Y-93629329D01*
X111797376Y-93608011D01*
X118109916Y-93608011D01*
X118178037Y-93628013D01*
X118199012Y-93644916D01*
X118579596Y-94025501D01*
X118613621Y-94087813D01*
X118616500Y-94114596D01*
X118616500Y-101997476D01*
X118596498Y-102065597D01*
X118584142Y-102081779D01*
X118510960Y-102163056D01*
X118415473Y-102328444D01*
X118356458Y-102510072D01*
X118355768Y-102516633D01*
X118355768Y-102516635D01*
X118344412Y-102624687D01*
X118336496Y-102700000D01*
X118337186Y-102706565D01*
X118352515Y-102852409D01*
X118356458Y-102889928D01*
X118394851Y-103008088D01*
X118415473Y-103071556D01*
X118414018Y-103072029D01*
X118422412Y-103134612D01*
X118392309Y-103198911D01*
X118332222Y-103236727D01*
X118297870Y-103241500D01*
X113061917Y-103241500D01*
X112993796Y-103221498D01*
X112976388Y-103208024D01*
X112881948Y-103120724D01*
X112877703Y-103116800D01*
X112758139Y-103041361D01*
X112710288Y-103011169D01*
X112710283Y-103011167D01*
X112705404Y-103008088D01*
X112516180Y-102932595D01*
X112316366Y-102892849D01*
X112310592Y-102892773D01*
X112310588Y-102892773D01*
X112207452Y-102891424D01*
X112112655Y-102890183D01*
X112106958Y-102891162D01*
X112106957Y-102891162D01*
X111917567Y-102923705D01*
X111911870Y-102924684D01*
X111720734Y-102995198D01*
X111715773Y-102998150D01*
X111715772Y-102998150D01*
X111580431Y-103078670D01*
X111545649Y-103099363D01*
X111392478Y-103233690D01*
X111388911Y-103238215D01*
X111388906Y-103238220D01*
X111316685Y-103329833D01*
X111266351Y-103393681D01*
X111171492Y-103573978D01*
X111111078Y-103768543D01*
X111087132Y-103970859D01*
X111100457Y-104174151D01*
X111150605Y-104371610D01*
X111235898Y-104556624D01*
X111353479Y-104722997D01*
X111499410Y-104865157D01*
X111504206Y-104868362D01*
X111504209Y-104868364D01*
X111548268Y-104897803D01*
X111668803Y-104978342D01*
X111674106Y-104980620D01*
X111674109Y-104980622D01*
X111814459Y-105040921D01*
X111855987Y-105058763D01*
X111906386Y-105070167D01*
X112049055Y-105102450D01*
X112049060Y-105102451D01*
X112054692Y-105103725D01*
X112060463Y-105103952D01*
X112060465Y-105103952D01*
X112123470Y-105106427D01*
X112258263Y-105111723D01*
X112459883Y-105082490D01*
X112465347Y-105080635D01*
X112465352Y-105080634D01*
X112647327Y-105018862D01*
X112647332Y-105018860D01*
X112652799Y-105017004D01*
X112830551Y-104917458D01*
X112986657Y-104787626D01*
X113051821Y-104759445D01*
X113067226Y-104758500D01*
X120688696Y-104758500D01*
X120756817Y-104778502D01*
X120776618Y-104794246D01*
X120800901Y-104817901D01*
X120849410Y-104865157D01*
X120854206Y-104868362D01*
X120854209Y-104868364D01*
X120898268Y-104897803D01*
X121018803Y-104978342D01*
X121024106Y-104980620D01*
X121024109Y-104980622D01*
X121164459Y-105040921D01*
X121205987Y-105058763D01*
X121256386Y-105070167D01*
X121399055Y-105102450D01*
X121399060Y-105102451D01*
X121404692Y-105103725D01*
X121410463Y-105103952D01*
X121410465Y-105103952D01*
X121473470Y-105106427D01*
X121608263Y-105111723D01*
X121809883Y-105082490D01*
X121815347Y-105080635D01*
X121815352Y-105080634D01*
X121997327Y-105018862D01*
X121997332Y-105018860D01*
X122002799Y-105017004D01*
X122180551Y-104917458D01*
X122337186Y-104787186D01*
X122467458Y-104630551D01*
X122547810Y-104487072D01*
X122564180Y-104457842D01*
X122564181Y-104457840D01*
X122567004Y-104452799D01*
X122568860Y-104447332D01*
X122568862Y-104447327D01*
X122630634Y-104265352D01*
X122630635Y-104265347D01*
X122632490Y-104259883D01*
X122661723Y-104058263D01*
X122663249Y-104000000D01*
X122644608Y-103797126D01*
X122589307Y-103601047D01*
X122578680Y-103579496D01*
X122501756Y-103423510D01*
X122499201Y-103418329D01*
X122480796Y-103393681D01*
X122380758Y-103259715D01*
X122380758Y-103259714D01*
X122377305Y-103255091D01*
X122272260Y-103157988D01*
X122231943Y-103120719D01*
X122231940Y-103120717D01*
X122227703Y-103116800D01*
X122154561Y-103070651D01*
X122060288Y-103011169D01*
X122060283Y-103011167D01*
X122055404Y-103008088D01*
X121866180Y-102932595D01*
X121666366Y-102892849D01*
X121660592Y-102892773D01*
X121660588Y-102892773D01*
X121557452Y-102891424D01*
X121462655Y-102890183D01*
X121456958Y-102891162D01*
X121456957Y-102891162D01*
X121267567Y-102923705D01*
X121261870Y-102924684D01*
X121070734Y-102995198D01*
X121065773Y-102998150D01*
X121065772Y-102998150D01*
X120930431Y-103078670D01*
X120895649Y-103099363D01*
X120769225Y-103210233D01*
X120704823Y-103240109D01*
X120686150Y-103241500D01*
X120202130Y-103241500D01*
X120134009Y-103221498D01*
X120087516Y-103167842D01*
X120077412Y-103097568D01*
X120084884Y-103071672D01*
X120084527Y-103071556D01*
X120105149Y-103008088D01*
X120143542Y-102889928D01*
X120147486Y-102852409D01*
X120162814Y-102706565D01*
X120163504Y-102700000D01*
X120155588Y-102624687D01*
X120144232Y-102516635D01*
X120144232Y-102516633D01*
X120143542Y-102510072D01*
X120084527Y-102328444D01*
X119989040Y-102163056D01*
X119915863Y-102081785D01*
X119885147Y-102017779D01*
X119883500Y-101997476D01*
X119883500Y-93878768D01*
X119884027Y-93867585D01*
X119885702Y-93860092D01*
X119884658Y-93826856D01*
X119883562Y-93792002D01*
X119883500Y-93788044D01*
X119883500Y-93760144D01*
X119882996Y-93756153D01*
X119882063Y-93744311D01*
X119881960Y-93741012D01*
X119880674Y-93700111D01*
X119878462Y-93692497D01*
X119878461Y-93692492D01*
X119875023Y-93680659D01*
X119871012Y-93661295D01*
X119869467Y-93649064D01*
X119868474Y-93641203D01*
X119865557Y-93633836D01*
X119865556Y-93633831D01*
X119852198Y-93600092D01*
X119848354Y-93588865D01*
X119845452Y-93578878D01*
X119836018Y-93546407D01*
X119825707Y-93528972D01*
X119817012Y-93511224D01*
X119809552Y-93492383D01*
X119783564Y-93456613D01*
X119777048Y-93446693D01*
X119758580Y-93415465D01*
X119758578Y-93415462D01*
X119754542Y-93408638D01*
X119740221Y-93394317D01*
X119727380Y-93379283D01*
X119720131Y-93369306D01*
X119715472Y-93362893D01*
X119709367Y-93357842D01*
X119709362Y-93357837D01*
X119681396Y-93334701D01*
X119672618Y-93326713D01*
X119072678Y-92726773D01*
X119038652Y-92664461D01*
X119041940Y-92598742D01*
X119075477Y-92495526D01*
X119093542Y-92439928D01*
X119095322Y-92422997D01*
X119112814Y-92256565D01*
X119113504Y-92250000D01*
X119095628Y-92079920D01*
X119094232Y-92066635D01*
X119094232Y-92066633D01*
X119093542Y-92060072D01*
X119034527Y-91878444D01*
X118939040Y-91713056D01*
X118876689Y-91643808D01*
X118845973Y-91579803D01*
X118854738Y-91509349D01*
X118900201Y-91454818D01*
X118970327Y-91433500D01*
X119835406Y-91433500D01*
X119903527Y-91453502D01*
X119924501Y-91470405D01*
X120952878Y-92498783D01*
X120986904Y-92561095D01*
X120989093Y-92574708D01*
X121004049Y-92717004D01*
X121006458Y-92739928D01*
X121065473Y-92921556D01*
X121068776Y-92927278D01*
X121068777Y-92927279D01*
X121069752Y-92928968D01*
X121160960Y-93086944D01*
X121165378Y-93091851D01*
X121165379Y-93091852D01*
X121277744Y-93216646D01*
X121288747Y-93228866D01*
X121443248Y-93341118D01*
X121449276Y-93343802D01*
X121449278Y-93343803D01*
X121594901Y-93408638D01*
X121617712Y-93418794D01*
X121711112Y-93438647D01*
X121798056Y-93457128D01*
X121798061Y-93457128D01*
X121804513Y-93458500D01*
X121995487Y-93458500D01*
X122001939Y-93457128D01*
X122001944Y-93457128D01*
X122088888Y-93438647D01*
X122182288Y-93418794D01*
X122205099Y-93408638D01*
X122350722Y-93343803D01*
X122350724Y-93343802D01*
X122356752Y-93341118D01*
X122511253Y-93228866D01*
X122522256Y-93216646D01*
X122634621Y-93091852D01*
X122634622Y-93091851D01*
X122639040Y-93086944D01*
X122730248Y-92928968D01*
X122731223Y-92927279D01*
X122731224Y-92927278D01*
X122734527Y-92921556D01*
X122793542Y-92739928D01*
X122795952Y-92717004D01*
X122812814Y-92556565D01*
X122813504Y-92550000D01*
X122793542Y-92360072D01*
X122734527Y-92178444D01*
X122722633Y-92157842D01*
X122677644Y-92079920D01*
X122639040Y-92013056D01*
X122563703Y-91929385D01*
X122515675Y-91876045D01*
X122515674Y-91876044D01*
X122511253Y-91871134D01*
X122356752Y-91758882D01*
X122350724Y-91756198D01*
X122350722Y-91756197D01*
X122188319Y-91683891D01*
X122188318Y-91683891D01*
X122182288Y-91681206D01*
X122088888Y-91661353D01*
X122001944Y-91642872D01*
X122001939Y-91642872D01*
X121995487Y-91641500D01*
X121939594Y-91641500D01*
X121871473Y-91621498D01*
X121850499Y-91604595D01*
X120985000Y-90739096D01*
X120950974Y-90676784D01*
X120956039Y-90605969D01*
X120985000Y-90560906D01*
X121850501Y-89695405D01*
X121912813Y-89661379D01*
X121939596Y-89658500D01*
X121995487Y-89658500D01*
X122001939Y-89657128D01*
X122001944Y-89657128D01*
X122088887Y-89638647D01*
X122182288Y-89618794D01*
X122211359Y-89605851D01*
X122350722Y-89543803D01*
X122350724Y-89543802D01*
X122356752Y-89541118D01*
X122374808Y-89528000D01*
X122438356Y-89481829D01*
X122511253Y-89428866D01*
X122545181Y-89391185D01*
X122634621Y-89291852D01*
X122634622Y-89291851D01*
X122639040Y-89286944D01*
X122699538Y-89182158D01*
X122731223Y-89127279D01*
X122731224Y-89127278D01*
X122734527Y-89121556D01*
X122793542Y-88939928D01*
X122797485Y-88902418D01*
X122812814Y-88756565D01*
X122813504Y-88750000D01*
X122808440Y-88701819D01*
X122794232Y-88566635D01*
X122794232Y-88566633D01*
X122793542Y-88560072D01*
X122734527Y-88378444D01*
X122639040Y-88213056D01*
X122613443Y-88184627D01*
X122515675Y-88076045D01*
X122515674Y-88076044D01*
X122511253Y-88071134D01*
X122396623Y-87987850D01*
X122362094Y-87962763D01*
X122362093Y-87962762D01*
X122356752Y-87958882D01*
X122350724Y-87956198D01*
X122350722Y-87956197D01*
X122188319Y-87883891D01*
X122188318Y-87883891D01*
X122182288Y-87881206D01*
X122081972Y-87859883D01*
X122001944Y-87842872D01*
X122001939Y-87842872D01*
X121995487Y-87841500D01*
X121804513Y-87841500D01*
X121798061Y-87842872D01*
X121798056Y-87842872D01*
X121718028Y-87859883D01*
X121617712Y-87881206D01*
X121611682Y-87883891D01*
X121611681Y-87883891D01*
X121449278Y-87956197D01*
X121449276Y-87956198D01*
X121443248Y-87958882D01*
X121437907Y-87962762D01*
X121437906Y-87962763D01*
X121403377Y-87987850D01*
X121288747Y-88071134D01*
X121284326Y-88076044D01*
X121284325Y-88076045D01*
X121186558Y-88184627D01*
X121160960Y-88213056D01*
X121065473Y-88378444D01*
X121006458Y-88560072D01*
X120992504Y-88692842D01*
X120989093Y-88725292D01*
X120962080Y-88790949D01*
X120952878Y-88801218D01*
X120274499Y-89479596D01*
X120212187Y-89513621D01*
X120185404Y-89516500D01*
X119938314Y-89516500D01*
X119870193Y-89496498D01*
X119823700Y-89442842D01*
X119814350Y-89399859D01*
X119813004Y-89400000D01*
X119793732Y-89216635D01*
X119793732Y-89216633D01*
X119793042Y-89210072D01*
X119734027Y-89028444D01*
X119638540Y-88863056D01*
X119584249Y-88802759D01*
X119515175Y-88726045D01*
X119515174Y-88726044D01*
X119510753Y-88721134D01*
X119356252Y-88608882D01*
X119350224Y-88606198D01*
X119350222Y-88606197D01*
X119187819Y-88533891D01*
X119187818Y-88533891D01*
X119181788Y-88531206D01*
X119088388Y-88511353D01*
X119001444Y-88492872D01*
X119001439Y-88492872D01*
X118994987Y-88491500D01*
X118804013Y-88491500D01*
X118797561Y-88492872D01*
X118797556Y-88492872D01*
X118710612Y-88511353D01*
X118617212Y-88531206D01*
X118611182Y-88533891D01*
X118611181Y-88533891D01*
X118448778Y-88606197D01*
X118448776Y-88606198D01*
X118442748Y-88608882D01*
X118437407Y-88612762D01*
X118437406Y-88612763D01*
X118309829Y-88705454D01*
X118288247Y-88721134D01*
X118283832Y-88726037D01*
X118278920Y-88730460D01*
X118277795Y-88729211D01*
X118224486Y-88762051D01*
X118191300Y-88766500D01*
X108704209Y-88766500D01*
X108636088Y-88746498D01*
X108589595Y-88692842D01*
X108579491Y-88622568D01*
X108608985Y-88557988D01*
X108642643Y-88530566D01*
X108643950Y-88529834D01*
X108666049Y-88517458D01*
X108822684Y-88387186D01*
X108952956Y-88230551D01*
X109043555Y-88068775D01*
X109049678Y-88057842D01*
X109049679Y-88057840D01*
X109052502Y-88052799D01*
X109054358Y-88047332D01*
X109054360Y-88047327D01*
X109116132Y-87865352D01*
X109116133Y-87865347D01*
X109117988Y-87859883D01*
X109147221Y-87658263D01*
X109148747Y-87600000D01*
X109130106Y-87397126D01*
X109132561Y-87396900D01*
X109138750Y-87336804D01*
X109183050Y-87281324D01*
X109255374Y-87258500D01*
X123883629Y-87258500D01*
X123951750Y-87278502D01*
G37*
%TD.AperFunction*%
%TA.AperFunction,Conductor*%
G36*
X87147736Y-102828991D02*
G01*
X87194229Y-102882647D01*
X87204333Y-102952921D01*
X87178904Y-103012562D01*
X87130812Y-103074118D01*
X87128616Y-103077922D01*
X87128611Y-103077929D01*
X87036804Y-103236944D01*
X86990364Y-103317381D01*
X86885138Y-103577824D01*
X86884073Y-103582097D01*
X86884072Y-103582099D01*
X86830460Y-103797126D01*
X86817183Y-103850376D01*
X86816724Y-103854744D01*
X86816723Y-103854749D01*
X86788281Y-104125364D01*
X86787822Y-104129733D01*
X86787975Y-104134121D01*
X86787975Y-104134127D01*
X86797448Y-104405388D01*
X86797625Y-104410458D01*
X86798387Y-104414781D01*
X86798388Y-104414788D01*
X86810558Y-104483806D01*
X86846402Y-104687087D01*
X86933203Y-104954235D01*
X86935131Y-104958188D01*
X86935133Y-104958193D01*
X86970532Y-105030770D01*
X87056340Y-105206702D01*
X87058801Y-105210351D01*
X87058803Y-105210354D01*
X87081877Y-105244564D01*
X87103387Y-105312224D01*
X87084902Y-105380772D01*
X87032292Y-105428444D01*
X86977418Y-105441021D01*
X81634500Y-105441021D01*
X81566379Y-105421019D01*
X81519886Y-105367363D01*
X81508500Y-105315021D01*
X81508500Y-104451866D01*
X81501745Y-104389684D01*
X81450615Y-104253295D01*
X81363261Y-104136739D01*
X81315340Y-104100824D01*
X81272827Y-104043967D01*
X81267801Y-103973149D01*
X81301861Y-103910855D01*
X81315330Y-103899183D01*
X81363261Y-103863261D01*
X81450615Y-103746705D01*
X81501745Y-103610316D01*
X81508500Y-103548134D01*
X81508500Y-102934989D01*
X81528502Y-102866868D01*
X81582158Y-102820375D01*
X81634500Y-102808989D01*
X87079615Y-102808989D01*
X87147736Y-102828991D01*
G37*
%TD.AperFunction*%
%TA.AperFunction,Conductor*%
G36*
X74609022Y-86528002D02*
G01*
X74655515Y-86581658D01*
X74665619Y-86651932D01*
X74636125Y-86716512D01*
X74631718Y-86721251D01*
X74622249Y-86733240D01*
X74537184Y-86871243D01*
X74531037Y-86884424D01*
X74479862Y-87038710D01*
X74476995Y-87052086D01*
X74467328Y-87146438D01*
X74467000Y-87152855D01*
X74467000Y-88027885D01*
X74471475Y-88043124D01*
X74472865Y-88044329D01*
X74480548Y-88046000D01*
X76789884Y-88046000D01*
X76805123Y-88041525D01*
X76806328Y-88040135D01*
X76807999Y-88032452D01*
X76807999Y-87152905D01*
X76807662Y-87146386D01*
X76797743Y-87050794D01*
X76794851Y-87037400D01*
X76743412Y-86883216D01*
X76737239Y-86870038D01*
X76651937Y-86732193D01*
X76638354Y-86715055D01*
X76640091Y-86713678D01*
X76611208Y-86660893D01*
X76616209Y-86590073D01*
X76658705Y-86533199D01*
X76725203Y-86508329D01*
X76734304Y-86508000D01*
X77665195Y-86508000D01*
X77733316Y-86528002D01*
X77779809Y-86581658D01*
X77789913Y-86651932D01*
X77760419Y-86716512D01*
X77756442Y-86720788D01*
X77755867Y-86721516D01*
X77750695Y-86726697D01*
X77657885Y-86877262D01*
X77602203Y-87045139D01*
X77591500Y-87149600D01*
X77591500Y-89450400D01*
X77591837Y-89453646D01*
X77591837Y-89453650D01*
X77601752Y-89549206D01*
X77602474Y-89556166D01*
X77604655Y-89562702D01*
X77604655Y-89562704D01*
X77623368Y-89618794D01*
X77658450Y-89723946D01*
X77726323Y-89833627D01*
X77726324Y-89833628D01*
X77745161Y-89902080D01*
X77726439Y-89966047D01*
X77662339Y-90070037D01*
X77657885Y-90077262D01*
X77645382Y-90114957D01*
X77621725Y-90186283D01*
X77602203Y-90245139D01*
X77591500Y-90349600D01*
X77591500Y-92650400D01*
X77591837Y-92653646D01*
X77591837Y-92653650D01*
X77601752Y-92749206D01*
X77602474Y-92756166D01*
X77604655Y-92762702D01*
X77604655Y-92762704D01*
X77627055Y-92829843D01*
X77658450Y-92923946D01*
X77662305Y-92930175D01*
X77690895Y-92976377D01*
X77709732Y-93044829D01*
X77704083Y-93080043D01*
X77662791Y-93213026D01*
X77661078Y-93218543D01*
X77637132Y-93420859D01*
X77650457Y-93624151D01*
X77700605Y-93821610D01*
X77785898Y-94006624D01*
X77903479Y-94172997D01*
X77907613Y-94177024D01*
X78010269Y-94277027D01*
X78049410Y-94315157D01*
X78054206Y-94318362D01*
X78054209Y-94318364D01*
X78139242Y-94375181D01*
X78218803Y-94428342D01*
X78224106Y-94430620D01*
X78224109Y-94430622D01*
X78313115Y-94468862D01*
X78405987Y-94508763D01*
X78478817Y-94525243D01*
X78599055Y-94552450D01*
X78599060Y-94552451D01*
X78604692Y-94553725D01*
X78610463Y-94553952D01*
X78610465Y-94553952D01*
X78673470Y-94556427D01*
X78808263Y-94561723D01*
X79009883Y-94532490D01*
X79015347Y-94530635D01*
X79015352Y-94530634D01*
X79197327Y-94468862D01*
X79197332Y-94468860D01*
X79202799Y-94467004D01*
X79244885Y-94443435D01*
X79287195Y-94419740D01*
X79380551Y-94367458D01*
X79537186Y-94237186D01*
X79667458Y-94080551D01*
X79767004Y-93902799D01*
X79768860Y-93897332D01*
X79768862Y-93897327D01*
X79830634Y-93715352D01*
X79830635Y-93715347D01*
X79832490Y-93709883D01*
X79861723Y-93508263D01*
X79863249Y-93450000D01*
X79848861Y-93293412D01*
X79845137Y-93252880D01*
X79845136Y-93252877D01*
X79844608Y-93247126D01*
X79836755Y-93219280D01*
X79820727Y-93162452D01*
X79803918Y-93102853D01*
X79804678Y-93031862D01*
X79817927Y-93002536D01*
X79863275Y-92928968D01*
X79863276Y-92928967D01*
X79867115Y-92922738D01*
X79922797Y-92754861D01*
X79925000Y-92733365D01*
X79933167Y-92653650D01*
X79933500Y-92650400D01*
X79933500Y-90784500D01*
X79953502Y-90716379D01*
X80007158Y-90669886D01*
X80059500Y-90658500D01*
X81865500Y-90658500D01*
X81933621Y-90678502D01*
X81980114Y-90732158D01*
X81991500Y-90784500D01*
X81991500Y-93648134D01*
X81998255Y-93710316D01*
X82049385Y-93846705D01*
X82136739Y-93963261D01*
X82253295Y-94050615D01*
X82389684Y-94101745D01*
X82451866Y-94108500D01*
X87721941Y-94108500D01*
X87790062Y-94128502D01*
X87836555Y-94182158D01*
X87847251Y-94247670D01*
X87842970Y-94288404D01*
X87836496Y-94350000D01*
X87837186Y-94356565D01*
X87854176Y-94518213D01*
X87856458Y-94539928D01*
X87915473Y-94721556D01*
X87918776Y-94727278D01*
X87918777Y-94727279D01*
X88005507Y-94877500D01*
X88022245Y-94946496D01*
X87999024Y-95013587D01*
X87943217Y-95057474D01*
X87896388Y-95066500D01*
X84678768Y-95066500D01*
X84667585Y-95065973D01*
X84660092Y-95064298D01*
X84652166Y-95064547D01*
X84652165Y-95064547D01*
X84592002Y-95066438D01*
X84588044Y-95066500D01*
X84560144Y-95066500D01*
X84556154Y-95067004D01*
X84544320Y-95067936D01*
X84500111Y-95069326D01*
X84492497Y-95071538D01*
X84492492Y-95071539D01*
X84480659Y-95074977D01*
X84461296Y-95078988D01*
X84441203Y-95081526D01*
X84433836Y-95084443D01*
X84433831Y-95084444D01*
X84400092Y-95097802D01*
X84388865Y-95101646D01*
X84346407Y-95113982D01*
X84339581Y-95118019D01*
X84328972Y-95124293D01*
X84311224Y-95132988D01*
X84292383Y-95140448D01*
X84285967Y-95145110D01*
X84285966Y-95145110D01*
X84256613Y-95166436D01*
X84246693Y-95172952D01*
X84215465Y-95191420D01*
X84215462Y-95191422D01*
X84208638Y-95195458D01*
X84194317Y-95209779D01*
X84179284Y-95222619D01*
X84162893Y-95234528D01*
X84146709Y-95254091D01*
X84134702Y-95268605D01*
X84126712Y-95277384D01*
X82749500Y-96654595D01*
X82687188Y-96688621D01*
X82660405Y-96691500D01*
X82604513Y-96691500D01*
X82598061Y-96692872D01*
X82598056Y-96692872D01*
X82511112Y-96711353D01*
X82417712Y-96731206D01*
X82411682Y-96733891D01*
X82411681Y-96733891D01*
X82249278Y-96806197D01*
X82249276Y-96806198D01*
X82243248Y-96808882D01*
X82088747Y-96921134D01*
X81960960Y-97063056D01*
X81920458Y-97133207D01*
X81891385Y-97183564D01*
X81865473Y-97228444D01*
X81806458Y-97410072D01*
X81805768Y-97416633D01*
X81805768Y-97416635D01*
X81791590Y-97551531D01*
X81786496Y-97600000D01*
X81806458Y-97789928D01*
X81865473Y-97971556D01*
X81868776Y-97977278D01*
X81868777Y-97977279D01*
X81899120Y-98029834D01*
X81960960Y-98136944D01*
X81965378Y-98141851D01*
X81965379Y-98141852D01*
X82059470Y-98246351D01*
X82088747Y-98278866D01*
X82243248Y-98391118D01*
X82249276Y-98393802D01*
X82249278Y-98393803D01*
X82387473Y-98455331D01*
X82417712Y-98468794D01*
X82486851Y-98483490D01*
X82598056Y-98507128D01*
X82598061Y-98507128D01*
X82604513Y-98508500D01*
X82795487Y-98508500D01*
X82801939Y-98507128D01*
X82801944Y-98507128D01*
X82913149Y-98483490D01*
X82982288Y-98468794D01*
X83012527Y-98455331D01*
X83150722Y-98393803D01*
X83150724Y-98393802D01*
X83156752Y-98391118D01*
X83175940Y-98377177D01*
X83242808Y-98353319D01*
X83311959Y-98369400D01*
X83324060Y-98377177D01*
X83343248Y-98391118D01*
X83349276Y-98393802D01*
X83349278Y-98393803D01*
X83487473Y-98455331D01*
X83517712Y-98468794D01*
X83586851Y-98483490D01*
X83698056Y-98507128D01*
X83698061Y-98507128D01*
X83704513Y-98508500D01*
X83895487Y-98508500D01*
X83901939Y-98507128D01*
X83901944Y-98507128D01*
X84013149Y-98483490D01*
X84082288Y-98468794D01*
X84112527Y-98455331D01*
X84250722Y-98393803D01*
X84250724Y-98393802D01*
X84256752Y-98391118D01*
X84411253Y-98278866D01*
X84440530Y-98246351D01*
X84534621Y-98141852D01*
X84534622Y-98141851D01*
X84539040Y-98136944D01*
X84600880Y-98029834D01*
X84631223Y-97977279D01*
X84631224Y-97977278D01*
X84634527Y-97971556D01*
X84693542Y-97789928D01*
X84710907Y-97624706D01*
X84737920Y-97559050D01*
X84747122Y-97548782D01*
X85475989Y-96819915D01*
X85538301Y-96785889D01*
X85565084Y-96783010D01*
X89180248Y-96783010D01*
X98363969Y-96783011D01*
X98432090Y-96803013D01*
X98478583Y-96856669D01*
X98489279Y-96895840D01*
X98506257Y-97057376D01*
X98506947Y-97063939D01*
X98565962Y-97245567D01*
X98569265Y-97251289D01*
X98569266Y-97251290D01*
X98581371Y-97272256D01*
X98661449Y-97410955D01*
X98665867Y-97415862D01*
X98665868Y-97415863D01*
X98749599Y-97508856D01*
X98780317Y-97572863D01*
X98771552Y-97643317D01*
X98745058Y-97682261D01*
X97723094Y-98704225D01*
X97660782Y-98738251D01*
X97589967Y-98733186D01*
X97533131Y-98690639D01*
X97508320Y-98624119D01*
X97507999Y-98615130D01*
X97507999Y-98455331D01*
X97507629Y-98448510D01*
X97502105Y-98397648D01*
X97498479Y-98382396D01*
X97453324Y-98261946D01*
X97444786Y-98246351D01*
X97368285Y-98144276D01*
X97355724Y-98131715D01*
X97314509Y-98100826D01*
X97271994Y-98043967D01*
X97266968Y-97973148D01*
X97301028Y-97910855D01*
X97314509Y-97899174D01*
X97355724Y-97868285D01*
X97368285Y-97855724D01*
X97444786Y-97753649D01*
X97453324Y-97738054D01*
X97498478Y-97617606D01*
X97502105Y-97602351D01*
X97507631Y-97551486D01*
X97508000Y-97544672D01*
X97508000Y-97272115D01*
X97503525Y-97256876D01*
X97502135Y-97255671D01*
X97494452Y-97254000D01*
X96272115Y-97254000D01*
X96256876Y-97258475D01*
X96255671Y-97259865D01*
X96254000Y-97267548D01*
X96254000Y-99128000D01*
X96233998Y-99196121D01*
X96180342Y-99242614D01*
X96128000Y-99254000D01*
X94510116Y-99254000D01*
X94494877Y-99258475D01*
X94493672Y-99259865D01*
X94492001Y-99267548D01*
X94492001Y-99544669D01*
X94492371Y-99551490D01*
X94497895Y-99602352D01*
X94501521Y-99617603D01*
X94544446Y-99732105D01*
X94549629Y-99802912D01*
X94515708Y-99865281D01*
X94453453Y-99899411D01*
X94401884Y-99899914D01*
X94366366Y-99892849D01*
X94360592Y-99892773D01*
X94360588Y-99892773D01*
X94257452Y-99891424D01*
X94162655Y-99890183D01*
X94156958Y-99891162D01*
X94156957Y-99891162D01*
X94044166Y-99910543D01*
X93961870Y-99924684D01*
X93770734Y-99995198D01*
X93765773Y-99998150D01*
X93765772Y-99998150D01*
X93604899Y-100093860D01*
X93595649Y-100099363D01*
X93442478Y-100233690D01*
X93438911Y-100238215D01*
X93438906Y-100238220D01*
X93395748Y-100292966D01*
X93316351Y-100393681D01*
X93313662Y-100398792D01*
X93313660Y-100398795D01*
X93270523Y-100480786D01*
X93221492Y-100573978D01*
X93161078Y-100768543D01*
X93137132Y-100970859D01*
X93150457Y-101174151D01*
X93200605Y-101371610D01*
X93202030Y-101374701D01*
X93205870Y-101444823D01*
X93170810Y-101506559D01*
X93107939Y-101539539D01*
X93083214Y-101541989D01*
X92553278Y-101541989D01*
X92542095Y-101541462D01*
X92534602Y-101539787D01*
X92526676Y-101540036D01*
X92526675Y-101540036D01*
X92466512Y-101541927D01*
X92462554Y-101541989D01*
X92434655Y-101541989D01*
X92430665Y-101542493D01*
X92418831Y-101543425D01*
X92374622Y-101544815D01*
X92367008Y-101547027D01*
X92367003Y-101547028D01*
X92355170Y-101550466D01*
X92335807Y-101554477D01*
X92315714Y-101557015D01*
X92308347Y-101559932D01*
X92308342Y-101559933D01*
X92274603Y-101573291D01*
X92263376Y-101577135D01*
X92220918Y-101589471D01*
X92214092Y-101593508D01*
X92203483Y-101599782D01*
X92185735Y-101608477D01*
X92166894Y-101615937D01*
X92160478Y-101620599D01*
X92160477Y-101620599D01*
X92131124Y-101641925D01*
X92121204Y-101648441D01*
X92089976Y-101666909D01*
X92089973Y-101666911D01*
X92083149Y-101670947D01*
X92068828Y-101685268D01*
X92053795Y-101698108D01*
X92037404Y-101710017D01*
X92032351Y-101716125D01*
X92009224Y-101744081D01*
X92001234Y-101752861D01*
X91939095Y-101815000D01*
X91876783Y-101849026D01*
X91805968Y-101843961D01*
X91760905Y-101815000D01*
X90553652Y-100607747D01*
X90546112Y-100599461D01*
X90542000Y-100592982D01*
X90492348Y-100546356D01*
X90489507Y-100543602D01*
X90469770Y-100523865D01*
X90466573Y-100521385D01*
X90457551Y-100513680D01*
X90453485Y-100509862D01*
X90425321Y-100483414D01*
X90418375Y-100479595D01*
X90418372Y-100479593D01*
X90407566Y-100473652D01*
X90391047Y-100462801D01*
X90381354Y-100455283D01*
X90375041Y-100450386D01*
X90367772Y-100447241D01*
X90367768Y-100447238D01*
X90334463Y-100432826D01*
X90323813Y-100427609D01*
X90285060Y-100406305D01*
X90265437Y-100401267D01*
X90246734Y-100394863D01*
X90235420Y-100389967D01*
X90235419Y-100389967D01*
X90228145Y-100386819D01*
X90220322Y-100385580D01*
X90220312Y-100385577D01*
X90184476Y-100379901D01*
X90172856Y-100377495D01*
X90137711Y-100368472D01*
X90137710Y-100368472D01*
X90130030Y-100366500D01*
X90109776Y-100366500D01*
X90090065Y-100364949D01*
X90077886Y-100363020D01*
X90070057Y-100361780D01*
X90062165Y-100362526D01*
X90026039Y-100365941D01*
X90014181Y-100366500D01*
X81580382Y-100366500D01*
X81512261Y-100346498D01*
X81465768Y-100292842D01*
X81462401Y-100284731D01*
X81453769Y-100261707D01*
X81453767Y-100261703D01*
X81450615Y-100253295D01*
X81363261Y-100136739D01*
X81314926Y-100100514D01*
X81272411Y-100043655D01*
X81267385Y-99972836D01*
X81301445Y-99910543D01*
X81314925Y-99898862D01*
X81355726Y-99868283D01*
X81368285Y-99855724D01*
X81444786Y-99753649D01*
X81453324Y-99738054D01*
X81498478Y-99617606D01*
X81502105Y-99602351D01*
X81507631Y-99551486D01*
X81508000Y-99544672D01*
X81508000Y-99272115D01*
X81503525Y-99256876D01*
X81502135Y-99255671D01*
X81494452Y-99254000D01*
X79872000Y-99254000D01*
X79803879Y-99233998D01*
X79757386Y-99180342D01*
X79746000Y-99128000D01*
X79746000Y-98872000D01*
X79766002Y-98803879D01*
X79819658Y-98757386D01*
X79872000Y-98746000D01*
X81489884Y-98746000D01*
X81505123Y-98741525D01*
X81506328Y-98740135D01*
X81507999Y-98732452D01*
X81507999Y-98727885D01*
X94492000Y-98727885D01*
X94496475Y-98743124D01*
X94497865Y-98744329D01*
X94505548Y-98746000D01*
X95727885Y-98746000D01*
X95743124Y-98741525D01*
X95744329Y-98740135D01*
X95746000Y-98732452D01*
X95746000Y-97272115D01*
X95741525Y-97256876D01*
X95740135Y-97255671D01*
X95732452Y-97254000D01*
X94510116Y-97254000D01*
X94494877Y-97258475D01*
X94493672Y-97259865D01*
X94492001Y-97267548D01*
X94492001Y-97544669D01*
X94492371Y-97551490D01*
X94497895Y-97602352D01*
X94501521Y-97617604D01*
X94546676Y-97738054D01*
X94555214Y-97753649D01*
X94631715Y-97855724D01*
X94644276Y-97868285D01*
X94685491Y-97899174D01*
X94728006Y-97956033D01*
X94733032Y-98026852D01*
X94698972Y-98089145D01*
X94685491Y-98100826D01*
X94644276Y-98131715D01*
X94631715Y-98144276D01*
X94555214Y-98246351D01*
X94546676Y-98261946D01*
X94501522Y-98382394D01*
X94497895Y-98397649D01*
X94492369Y-98448514D01*
X94492000Y-98455328D01*
X94492000Y-98727885D01*
X81507999Y-98727885D01*
X81507999Y-98455331D01*
X81507629Y-98448510D01*
X81502105Y-98397648D01*
X81498479Y-98382396D01*
X81453324Y-98261946D01*
X81444786Y-98246351D01*
X81368285Y-98144276D01*
X81355726Y-98131717D01*
X81314925Y-98101138D01*
X81272411Y-98044278D01*
X81267386Y-97973460D01*
X81301446Y-97911166D01*
X81314926Y-97899486D01*
X81356081Y-97868642D01*
X81363261Y-97863261D01*
X81450615Y-97746705D01*
X81501745Y-97610316D01*
X81508500Y-97548134D01*
X81508500Y-96451866D01*
X81501745Y-96389684D01*
X81450615Y-96253295D01*
X81363261Y-96136739D01*
X81246705Y-96049385D01*
X81110316Y-95998255D01*
X81048134Y-95991500D01*
X80512971Y-95991500D01*
X80465873Y-95982366D01*
X80324540Y-95925407D01*
X80324535Y-95925405D01*
X80318973Y-95923164D01*
X80313092Y-95922016D01*
X80313087Y-95922014D01*
X80114040Y-95883143D01*
X80114037Y-95883143D01*
X80109594Y-95882275D01*
X80103971Y-95882000D01*
X78904200Y-95882000D01*
X78886120Y-95880696D01*
X78872692Y-95878749D01*
X78813930Y-95877210D01*
X78797764Y-95878696D01*
X78793327Y-95879024D01*
X78519793Y-95894385D01*
X78229356Y-95943732D01*
X77946269Y-96025288D01*
X77943001Y-96026642D01*
X77943000Y-96026642D01*
X77677362Y-96136672D01*
X77677357Y-96136675D01*
X77674094Y-96138026D01*
X77416254Y-96280530D01*
X77175989Y-96451006D01*
X76956323Y-96647312D01*
X76760017Y-96866978D01*
X76656546Y-97012808D01*
X76624376Y-97058148D01*
X76589541Y-97107243D01*
X76447037Y-97365083D01*
X76445686Y-97368346D01*
X76445683Y-97368351D01*
X76342440Y-97617604D01*
X76334299Y-97637258D01*
X76252743Y-97920345D01*
X76203396Y-98210782D01*
X76200540Y-98261645D01*
X76192016Y-98413415D01*
X76190912Y-98424413D01*
X76187760Y-98446157D01*
X76187100Y-98471353D01*
X76186606Y-98475528D01*
X76186881Y-98479723D01*
X76186221Y-98504919D01*
X76186902Y-98512328D01*
X76186353Y-98540299D01*
X76183825Y-98559500D01*
X76180327Y-98586070D01*
X76171814Y-98617840D01*
X76162479Y-98640378D01*
X76146840Y-98678133D01*
X76130394Y-98706617D01*
X76090665Y-98758394D01*
X76067407Y-98781653D01*
X76015631Y-98821383D01*
X75987143Y-98837830D01*
X75926851Y-98862803D01*
X75895082Y-98871316D01*
X75853194Y-98876831D01*
X75843305Y-98877348D01*
X75843321Y-98877595D01*
X75839446Y-98877849D01*
X75780230Y-98881730D01*
X75771990Y-98882000D01*
X74522256Y-98882000D01*
X74454135Y-98861998D01*
X74446691Y-98856826D01*
X74412873Y-98831481D01*
X74356705Y-98789385D01*
X74220316Y-98738255D01*
X74158134Y-98731500D01*
X70634000Y-98731500D01*
X70565879Y-98711498D01*
X70519386Y-98657842D01*
X70508000Y-98605500D01*
X70508000Y-92647095D01*
X74467001Y-92647095D01*
X74467338Y-92653614D01*
X74477257Y-92749206D01*
X74480149Y-92762600D01*
X74531588Y-92916784D01*
X74537761Y-92929962D01*
X74623063Y-93067807D01*
X74632099Y-93079208D01*
X74746829Y-93193739D01*
X74758240Y-93202751D01*
X74896243Y-93287816D01*
X74909424Y-93293963D01*
X75063710Y-93345138D01*
X75077086Y-93348005D01*
X75171438Y-93357672D01*
X75177854Y-93358000D01*
X75365385Y-93358000D01*
X75380624Y-93353525D01*
X75381829Y-93352135D01*
X75383500Y-93344452D01*
X75383500Y-93339884D01*
X75891500Y-93339884D01*
X75895975Y-93355123D01*
X75897365Y-93356328D01*
X75905048Y-93357999D01*
X76097095Y-93357999D01*
X76103614Y-93357662D01*
X76199206Y-93347743D01*
X76212600Y-93344851D01*
X76366784Y-93293412D01*
X76379962Y-93287239D01*
X76517807Y-93201937D01*
X76529208Y-93192901D01*
X76643739Y-93078171D01*
X76652751Y-93066760D01*
X76737816Y-92928757D01*
X76743963Y-92915576D01*
X76795138Y-92761290D01*
X76798005Y-92747914D01*
X76807672Y-92653562D01*
X76808000Y-92647146D01*
X76808000Y-91772115D01*
X76803525Y-91756876D01*
X76802135Y-91755671D01*
X76794452Y-91754000D01*
X75909615Y-91754000D01*
X75894376Y-91758475D01*
X75893171Y-91759865D01*
X75891500Y-91767548D01*
X75891500Y-93339884D01*
X75383500Y-93339884D01*
X75383500Y-91772115D01*
X75379025Y-91756876D01*
X75377635Y-91755671D01*
X75369952Y-91754000D01*
X74485116Y-91754000D01*
X74469877Y-91758475D01*
X74468672Y-91759865D01*
X74467001Y-91767548D01*
X74467001Y-92647095D01*
X70508000Y-92647095D01*
X70508000Y-91227885D01*
X74467000Y-91227885D01*
X74471475Y-91243124D01*
X74472865Y-91244329D01*
X74480548Y-91246000D01*
X75365385Y-91246000D01*
X75380624Y-91241525D01*
X75381829Y-91240135D01*
X75383500Y-91232452D01*
X75383500Y-91227885D01*
X75891500Y-91227885D01*
X75895975Y-91243124D01*
X75897365Y-91244329D01*
X75905048Y-91246000D01*
X76789884Y-91246000D01*
X76805123Y-91241525D01*
X76806328Y-91240135D01*
X76807999Y-91232452D01*
X76807999Y-90352905D01*
X76807662Y-90346386D01*
X76797743Y-90250794D01*
X76794851Y-90237400D01*
X76743412Y-90083216D01*
X76737238Y-90070037D01*
X76673089Y-89966373D01*
X76654251Y-89897921D01*
X76672973Y-89833955D01*
X76737814Y-89728762D01*
X76743963Y-89715576D01*
X76795138Y-89561290D01*
X76798005Y-89547914D01*
X76807672Y-89453562D01*
X76808000Y-89447146D01*
X76808000Y-88572115D01*
X76803525Y-88556876D01*
X76802135Y-88555671D01*
X76794452Y-88554000D01*
X75909615Y-88554000D01*
X75894376Y-88558475D01*
X75893171Y-88559865D01*
X75891500Y-88567548D01*
X75891500Y-91227885D01*
X75383500Y-91227885D01*
X75383500Y-88572115D01*
X75379025Y-88556876D01*
X75377635Y-88555671D01*
X75369952Y-88554000D01*
X74485116Y-88554000D01*
X74469877Y-88558475D01*
X74468672Y-88559865D01*
X74467001Y-88567548D01*
X74467001Y-89447095D01*
X74467338Y-89453614D01*
X74477257Y-89549206D01*
X74480149Y-89562600D01*
X74531588Y-89716784D01*
X74537762Y-89729963D01*
X74601911Y-89833627D01*
X74620749Y-89902079D01*
X74602027Y-89966045D01*
X74537186Y-90071238D01*
X74531037Y-90084424D01*
X74479862Y-90238710D01*
X74476995Y-90252086D01*
X74467328Y-90346438D01*
X74467000Y-90352855D01*
X74467000Y-91227885D01*
X70508000Y-91227885D01*
X70508000Y-88897983D01*
X70528002Y-88829862D01*
X70581658Y-88783369D01*
X70651932Y-88773265D01*
X70716512Y-88802759D01*
X70738211Y-88827159D01*
X70820544Y-88948307D01*
X70987332Y-89124681D01*
X70991358Y-89127759D01*
X70991359Y-89127760D01*
X71176154Y-89269047D01*
X71176158Y-89269050D01*
X71180174Y-89272120D01*
X71184632Y-89274510D01*
X71184633Y-89274511D01*
X71213912Y-89290210D01*
X71394109Y-89386831D01*
X71623631Y-89465862D01*
X71703144Y-89479596D01*
X71858926Y-89506504D01*
X71858932Y-89506505D01*
X71862836Y-89507179D01*
X71866797Y-89507359D01*
X71866798Y-89507359D01*
X71890506Y-89508436D01*
X71890525Y-89508436D01*
X71891925Y-89508500D01*
X72061001Y-89508500D01*
X72063509Y-89508298D01*
X72063514Y-89508298D01*
X72236924Y-89494346D01*
X72236929Y-89494345D01*
X72241965Y-89493940D01*
X72246873Y-89492734D01*
X72246876Y-89492734D01*
X72472792Y-89437244D01*
X72477706Y-89436037D01*
X72482358Y-89434062D01*
X72482362Y-89434061D01*
X72650168Y-89362831D01*
X72701156Y-89341188D01*
X72782107Y-89290210D01*
X72902288Y-89214528D01*
X72902291Y-89214526D01*
X72906567Y-89211833D01*
X73001930Y-89127760D01*
X73084858Y-89054650D01*
X73084861Y-89054647D01*
X73088655Y-89051302D01*
X73102268Y-89034729D01*
X73239526Y-88867628D01*
X73239528Y-88867625D01*
X73242734Y-88863722D01*
X73327980Y-88717255D01*
X73362299Y-88658290D01*
X73362300Y-88658288D01*
X73364841Y-88653922D01*
X73393853Y-88578342D01*
X73450020Y-88432022D01*
X73450021Y-88432018D01*
X73451833Y-88427298D01*
X73471718Y-88332115D01*
X73500440Y-88194631D01*
X73500440Y-88194627D01*
X73501474Y-88189680D01*
X73512486Y-87947183D01*
X73509023Y-87917251D01*
X73485167Y-87711071D01*
X73485166Y-87711067D01*
X73484585Y-87706044D01*
X73471065Y-87658263D01*
X73419866Y-87477331D01*
X73418490Y-87472468D01*
X73416356Y-87467892D01*
X73416354Y-87467886D01*
X73318038Y-87257046D01*
X73318036Y-87257042D01*
X73315901Y-87252464D01*
X73179456Y-87051693D01*
X73012668Y-86875319D01*
X72827956Y-86734096D01*
X72785988Y-86676831D01*
X72781643Y-86605968D01*
X72816299Y-86544004D01*
X72878953Y-86510614D01*
X72904485Y-86508000D01*
X74540901Y-86508000D01*
X74609022Y-86528002D01*
G37*
%TD.AperFunction*%
%TA.AperFunction,Conductor*%
G36*
X107167436Y-94332634D02*
G01*
X107224272Y-94375181D01*
X107232523Y-94387690D01*
X107257658Y-94431226D01*
X107257661Y-94431231D01*
X107260960Y-94436944D01*
X107334137Y-94518215D01*
X107364853Y-94582221D01*
X107366500Y-94602524D01*
X107366500Y-99985406D01*
X107346498Y-100053527D01*
X107329595Y-100074501D01*
X105798787Y-101605308D01*
X105736475Y-101639334D01*
X105665659Y-101634269D01*
X105608824Y-101591722D01*
X105584251Y-101528066D01*
X105584059Y-101526034D01*
X105583500Y-101514181D01*
X105583500Y-99602524D01*
X105603502Y-99534403D01*
X105615858Y-99518221D01*
X105689040Y-99436944D01*
X105764179Y-99306799D01*
X105781223Y-99277279D01*
X105781224Y-99277278D01*
X105784527Y-99271556D01*
X105843542Y-99089928D01*
X105863504Y-98900000D01*
X105860262Y-98869151D01*
X105844232Y-98716635D01*
X105844232Y-98716633D01*
X105843542Y-98710072D01*
X105784527Y-98528444D01*
X105763128Y-98491379D01*
X105706792Y-98393803D01*
X105689040Y-98363056D01*
X105626540Y-98293642D01*
X105565675Y-98226045D01*
X105565674Y-98226044D01*
X105561253Y-98221134D01*
X105462157Y-98149136D01*
X105412094Y-98112763D01*
X105412093Y-98112762D01*
X105406752Y-98108882D01*
X105400724Y-98106198D01*
X105400722Y-98106197D01*
X105238319Y-98033891D01*
X105238318Y-98033891D01*
X105232288Y-98031206D01*
X105138888Y-98011353D01*
X105051944Y-97992872D01*
X105051939Y-97992872D01*
X105045487Y-97991500D01*
X104854513Y-97991500D01*
X104848061Y-97992872D01*
X104848056Y-97992872D01*
X104761112Y-98011353D01*
X104667712Y-98031206D01*
X104661682Y-98033891D01*
X104661681Y-98033891D01*
X104499278Y-98106197D01*
X104499276Y-98106198D01*
X104493248Y-98108882D01*
X104487907Y-98112762D01*
X104487906Y-98112763D01*
X104437843Y-98149136D01*
X104338747Y-98221134D01*
X104334326Y-98226044D01*
X104334325Y-98226045D01*
X104273461Y-98293642D01*
X104210960Y-98363056D01*
X104193208Y-98393803D01*
X104136873Y-98491379D01*
X104115473Y-98528444D01*
X104056458Y-98710072D01*
X104055768Y-98716633D01*
X104055768Y-98716635D01*
X104039738Y-98869151D01*
X104036496Y-98900000D01*
X104056458Y-99089928D01*
X104115473Y-99271556D01*
X104118776Y-99277278D01*
X104118777Y-99277279D01*
X104135821Y-99306799D01*
X104210960Y-99436944D01*
X104284137Y-99518215D01*
X104314853Y-99582221D01*
X104316500Y-99602524D01*
X104316500Y-101235405D01*
X104296498Y-101303526D01*
X104279595Y-101324501D01*
X104224499Y-101379596D01*
X104162186Y-101413621D01*
X104135404Y-101416500D01*
X99179536Y-101416500D01*
X99111415Y-101396498D01*
X99105475Y-101392436D01*
X98962094Y-101288263D01*
X98962093Y-101288262D01*
X98956752Y-101284382D01*
X98950724Y-101281698D01*
X98950722Y-101281697D01*
X98788319Y-101209391D01*
X98788318Y-101209391D01*
X98782288Y-101206706D01*
X98688888Y-101186853D01*
X98601944Y-101168372D01*
X98601939Y-101168372D01*
X98595487Y-101167000D01*
X98404513Y-101167000D01*
X98398061Y-101168372D01*
X98398056Y-101168372D01*
X98311112Y-101186853D01*
X98217712Y-101206706D01*
X98211682Y-101209391D01*
X98211681Y-101209391D01*
X98049278Y-101281697D01*
X98049276Y-101281698D01*
X98043248Y-101284382D01*
X98037907Y-101288262D01*
X98037906Y-101288263D01*
X97988029Y-101324501D01*
X97888747Y-101396634D01*
X97884326Y-101401544D01*
X97884325Y-101401545D01*
X97870860Y-101416500D01*
X97760960Y-101538556D01*
X97754084Y-101550466D01*
X97743619Y-101568592D01*
X97692236Y-101617585D01*
X97622522Y-101631020D01*
X97556611Y-101604633D01*
X97515430Y-101546801D01*
X97508500Y-101505591D01*
X97508500Y-101116371D01*
X97528502Y-101048250D01*
X97545405Y-101027276D01*
X99001405Y-99571276D01*
X99063717Y-99537250D01*
X99134532Y-99542315D01*
X99191368Y-99584862D01*
X99216179Y-99651382D01*
X99216500Y-99660371D01*
X99216500Y-99823134D01*
X99223255Y-99885316D01*
X99274385Y-100021705D01*
X99361739Y-100138261D01*
X99478295Y-100225615D01*
X99614684Y-100276745D01*
X99676866Y-100283500D01*
X100773134Y-100283500D01*
X100835316Y-100276745D01*
X100971705Y-100225615D01*
X100978892Y-100220229D01*
X100986760Y-100215921D01*
X100987975Y-100218141D01*
X101041928Y-100197986D01*
X101089916Y-100203827D01*
X101242167Y-100253295D01*
X101277392Y-100264740D01*
X101473777Y-100288158D01*
X101479912Y-100287686D01*
X101479914Y-100287686D01*
X101664830Y-100273457D01*
X101664834Y-100273456D01*
X101670972Y-100272984D01*
X101861463Y-100219798D01*
X101866967Y-100217018D01*
X101866969Y-100217017D01*
X102032493Y-100133405D01*
X102032495Y-100133404D01*
X102037996Y-100130625D01*
X102042850Y-100126833D01*
X102042859Y-100126827D01*
X102051548Y-100120038D01*
X102117542Y-100093860D01*
X102190592Y-100109339D01*
X102359294Y-100203624D01*
X102547392Y-100264740D01*
X102743777Y-100288158D01*
X102749912Y-100287686D01*
X102749914Y-100287686D01*
X102934830Y-100273457D01*
X102934834Y-100273456D01*
X102940972Y-100272984D01*
X103131463Y-100219798D01*
X103136967Y-100217018D01*
X103136969Y-100217017D01*
X103302495Y-100133404D01*
X103302497Y-100133403D01*
X103307996Y-100130625D01*
X103463847Y-100008861D01*
X103577269Y-99877460D01*
X103589049Y-99863813D01*
X103589050Y-99863811D01*
X103593078Y-99859145D01*
X103690769Y-99687179D01*
X103753197Y-99499513D01*
X103777985Y-99303295D01*
X103778380Y-99275000D01*
X103759080Y-99078167D01*
X103701916Y-98888831D01*
X103609066Y-98714204D01*
X103605167Y-98709424D01*
X103604715Y-98708743D01*
X103583676Y-98640935D01*
X103600105Y-98576775D01*
X103612954Y-98554158D01*
X103636722Y-98512318D01*
X103687723Y-98422542D01*
X103687725Y-98422537D01*
X103690769Y-98417179D01*
X103753197Y-98229513D01*
X103777985Y-98033295D01*
X103778380Y-98005000D01*
X103759080Y-97808167D01*
X103740524Y-97746705D01*
X103703697Y-97624731D01*
X103701916Y-97618831D01*
X103666132Y-97551531D01*
X103622066Y-97468653D01*
X103607747Y-97399115D01*
X103633295Y-97332875D01*
X103690600Y-97290962D01*
X103733318Y-97283500D01*
X103771233Y-97283500D01*
X103782416Y-97284027D01*
X103789909Y-97285702D01*
X103797835Y-97285453D01*
X103797836Y-97285453D01*
X103857986Y-97283562D01*
X103861945Y-97283500D01*
X103889856Y-97283500D01*
X103893791Y-97283003D01*
X103893856Y-97282995D01*
X103905693Y-97282062D01*
X103937951Y-97281048D01*
X103941970Y-97280922D01*
X103949889Y-97280673D01*
X103969343Y-97275021D01*
X103988700Y-97271013D01*
X104000930Y-97269468D01*
X104000931Y-97269468D01*
X104008797Y-97268474D01*
X104016168Y-97265555D01*
X104016170Y-97265555D01*
X104049912Y-97252196D01*
X104061142Y-97248351D01*
X104095983Y-97238229D01*
X104095984Y-97238229D01*
X104103593Y-97236018D01*
X104110412Y-97231985D01*
X104110417Y-97231983D01*
X104121028Y-97225707D01*
X104138776Y-97217012D01*
X104157617Y-97209552D01*
X104193387Y-97183564D01*
X104203307Y-97177048D01*
X104234535Y-97158580D01*
X104234538Y-97158578D01*
X104241362Y-97154542D01*
X104255683Y-97140221D01*
X104270717Y-97127380D01*
X104280694Y-97120131D01*
X104287107Y-97115472D01*
X104315298Y-97081395D01*
X104323288Y-97072616D01*
X107034309Y-94361595D01*
X107096621Y-94327569D01*
X107167436Y-94332634D01*
G37*
%TD.AperFunction*%
%TA.AperFunction,Conductor*%
G36*
X129444233Y-88803648D02*
G01*
X129485213Y-88861623D01*
X129492000Y-88902418D01*
X129492000Y-100167656D01*
X129471998Y-100235777D01*
X129418342Y-100282270D01*
X129352829Y-100292966D01*
X129351949Y-100292873D01*
X129345487Y-100291500D01*
X129154513Y-100291500D01*
X129148061Y-100292872D01*
X129148056Y-100292872D01*
X129009340Y-100322358D01*
X128967712Y-100331206D01*
X128961676Y-100333893D01*
X128955402Y-100335932D01*
X128954614Y-100333507D01*
X128895587Y-100341410D01*
X128848612Y-100324132D01*
X128786154Y-100285633D01*
X128786149Y-100285631D01*
X128779920Y-100281791D01*
X128614809Y-100227026D01*
X128607973Y-100226326D01*
X128607970Y-100226325D01*
X128544261Y-100219798D01*
X128512072Y-100216500D01*
X127912928Y-100216500D01*
X127909682Y-100216837D01*
X127909678Y-100216837D01*
X127815765Y-100226581D01*
X127815761Y-100226582D01*
X127808907Y-100227293D01*
X127802371Y-100229474D01*
X127802369Y-100229474D01*
X127676924Y-100271326D01*
X127643893Y-100282346D01*
X127495969Y-100373884D01*
X127490796Y-100379066D01*
X127389253Y-100480786D01*
X127326970Y-100514865D01*
X127256150Y-100509862D01*
X127211063Y-100480941D01*
X127108188Y-100378246D01*
X127108183Y-100378242D01*
X127103003Y-100373071D01*
X127088581Y-100364181D01*
X126961150Y-100285631D01*
X126961148Y-100285630D01*
X126954920Y-100281791D01*
X126789809Y-100227026D01*
X126782973Y-100226326D01*
X126782970Y-100226325D01*
X126719261Y-100219798D01*
X126687072Y-100216500D01*
X126659500Y-100216500D01*
X126591379Y-100196498D01*
X126544886Y-100142842D01*
X126533500Y-100090500D01*
X126533500Y-98559500D01*
X126553502Y-98491379D01*
X126607158Y-98444886D01*
X126659500Y-98433500D01*
X128298134Y-98433500D01*
X128360316Y-98426745D01*
X128496705Y-98375615D01*
X128613261Y-98288261D01*
X128700615Y-98171705D01*
X128751745Y-98035316D01*
X128758500Y-97973134D01*
X128758500Y-96176866D01*
X128751745Y-96114684D01*
X128700615Y-95978295D01*
X128613261Y-95861739D01*
X128496705Y-95774385D01*
X128377687Y-95729767D01*
X128320923Y-95687125D01*
X128296223Y-95620564D01*
X128311430Y-95551215D01*
X128332977Y-95522535D01*
X128434052Y-95421812D01*
X128440730Y-95413965D01*
X128565003Y-95241020D01*
X128570313Y-95232183D01*
X128664670Y-95041267D01*
X128668469Y-95031672D01*
X128730377Y-94827910D01*
X128732555Y-94817837D01*
X128733986Y-94806962D01*
X128731775Y-94792778D01*
X128718617Y-94789000D01*
X127272000Y-94789000D01*
X127203879Y-94768998D01*
X127157386Y-94715342D01*
X127146000Y-94663000D01*
X127146000Y-94262885D01*
X127654000Y-94262885D01*
X127658475Y-94278124D01*
X127659865Y-94279329D01*
X127667548Y-94281000D01*
X128718344Y-94281000D01*
X128731875Y-94277027D01*
X128733180Y-94267947D01*
X128691214Y-94100875D01*
X128687894Y-94091124D01*
X128602972Y-93895814D01*
X128598105Y-93886739D01*
X128482426Y-93707926D01*
X128476136Y-93699757D01*
X128332806Y-93542240D01*
X128325273Y-93535215D01*
X128158139Y-93403222D01*
X128149552Y-93397517D01*
X127963117Y-93294599D01*
X127953705Y-93290369D01*
X127752959Y-93219280D01*
X127742988Y-93216646D01*
X127671837Y-93203972D01*
X127658540Y-93205432D01*
X127654000Y-93219989D01*
X127654000Y-94262885D01*
X127146000Y-94262885D01*
X127146000Y-93218102D01*
X127142082Y-93204758D01*
X127127806Y-93202771D01*
X127089324Y-93208660D01*
X127079288Y-93211051D01*
X126874567Y-93277964D01*
X126803603Y-93280115D01*
X126742741Y-93243559D01*
X126711305Y-93179901D01*
X126709422Y-93158199D01*
X126709422Y-89147424D01*
X126729424Y-89079303D01*
X126783080Y-89032810D01*
X126853354Y-89022706D01*
X126917934Y-89052200D01*
X126926970Y-89060851D01*
X126976177Y-89112885D01*
X126987332Y-89124681D01*
X126991358Y-89127759D01*
X126991359Y-89127760D01*
X127176154Y-89269047D01*
X127176158Y-89269050D01*
X127180174Y-89272120D01*
X127184632Y-89274510D01*
X127184633Y-89274511D01*
X127213912Y-89290210D01*
X127394109Y-89386831D01*
X127623631Y-89465862D01*
X127703144Y-89479596D01*
X127858926Y-89506504D01*
X127858932Y-89506505D01*
X127862836Y-89507179D01*
X127866797Y-89507359D01*
X127866798Y-89507359D01*
X127890506Y-89508436D01*
X127890525Y-89508436D01*
X127891925Y-89508500D01*
X128061001Y-89508500D01*
X128063509Y-89508298D01*
X128063514Y-89508298D01*
X128236924Y-89494346D01*
X128236929Y-89494345D01*
X128241965Y-89493940D01*
X128246873Y-89492734D01*
X128246876Y-89492734D01*
X128472792Y-89437244D01*
X128477706Y-89436037D01*
X128482358Y-89434062D01*
X128482362Y-89434061D01*
X128650168Y-89362831D01*
X128701156Y-89341188D01*
X128782107Y-89290210D01*
X128902288Y-89214528D01*
X128902291Y-89214526D01*
X128906567Y-89211833D01*
X129001930Y-89127760D01*
X129084858Y-89054650D01*
X129084861Y-89054647D01*
X129088655Y-89051302D01*
X129102268Y-89034729D01*
X129239526Y-88867628D01*
X129239528Y-88867625D01*
X129242734Y-88863722D01*
X129245275Y-88859356D01*
X129245280Y-88859349D01*
X129257101Y-88839038D01*
X129308655Y-88790224D01*
X129378415Y-88777031D01*
X129444233Y-88803648D01*
G37*
%TD.AperFunction*%
%TD*%
%TA.AperFunction,NonConductor*%
G36*
X97633250Y-86528002D02*
G01*
X97679743Y-86581658D01*
X97689847Y-86651932D01*
X97660353Y-86716512D01*
X97654224Y-86723095D01*
X96561089Y-87816230D01*
X96546677Y-87828616D01*
X96535082Y-87837149D01*
X96535077Y-87837154D01*
X96529182Y-87841492D01*
X96524443Y-87847070D01*
X96524440Y-87847073D01*
X96494965Y-87881768D01*
X96488035Y-87889284D01*
X96482340Y-87894979D01*
X96480060Y-87897861D01*
X96464719Y-87917251D01*
X96461928Y-87920655D01*
X96443659Y-87942159D01*
X96414667Y-87976285D01*
X96411339Y-87982801D01*
X96407972Y-87987850D01*
X96404805Y-87992979D01*
X96400266Y-87998716D01*
X96369345Y-88064875D01*
X96367442Y-88068769D01*
X96334231Y-88133808D01*
X96332492Y-88140916D01*
X96330393Y-88146559D01*
X96328476Y-88152322D01*
X96325378Y-88158950D01*
X96310627Y-88229871D01*
X96310514Y-88230412D01*
X96309544Y-88234696D01*
X96292192Y-88305610D01*
X96291500Y-88316764D01*
X96291464Y-88316762D01*
X96291225Y-88320755D01*
X96290851Y-88324947D01*
X96289360Y-88332115D01*
X96290581Y-88377262D01*
X96291454Y-88409521D01*
X96291500Y-88412928D01*
X96291500Y-89165492D01*
X96271498Y-89233613D01*
X96217842Y-89280106D01*
X96147568Y-89290210D01*
X96082988Y-89260716D01*
X96045976Y-89205368D01*
X96019512Y-89126047D01*
X96013347Y-89112885D01*
X95929574Y-88977508D01*
X95920540Y-88966110D01*
X95807871Y-88853637D01*
X95796460Y-88844625D01*
X95660937Y-88761088D01*
X95647759Y-88754944D01*
X95496234Y-88704685D01*
X95482868Y-88701819D01*
X95390230Y-88692328D01*
X95383815Y-88692000D01*
X95372115Y-88692000D01*
X95356876Y-88696475D01*
X95355671Y-88697865D01*
X95354000Y-88705548D01*
X95354000Y-89840020D01*
X95333998Y-89908141D01*
X95280342Y-89954634D01*
X95228000Y-89966020D01*
X95127835Y-89966020D01*
X95120033Y-89965778D01*
X95058702Y-89961973D01*
X94995111Y-89972900D01*
X94988390Y-89973868D01*
X94967465Y-89976308D01*
X94931589Y-89980490D01*
X94931586Y-89980491D01*
X94924319Y-89981338D01*
X94917159Y-89983937D01*
X94916571Y-89984041D01*
X94910313Y-89985520D01*
X94910227Y-89985157D01*
X94874164Y-89991500D01*
X94135115Y-89991500D01*
X94119876Y-89995975D01*
X94118671Y-89997365D01*
X94117000Y-90005048D01*
X94117000Y-90083766D01*
X94117337Y-90090282D01*
X94127075Y-90184132D01*
X94129968Y-90197528D01*
X94180488Y-90348953D01*
X94186653Y-90362115D01*
X94270426Y-90497492D01*
X94279464Y-90508894D01*
X94281139Y-90510567D01*
X94281919Y-90511993D01*
X94284007Y-90514627D01*
X94283556Y-90514984D01*
X94315219Y-90572849D01*
X94310216Y-90643669D01*
X94281299Y-90688754D01*
X94278381Y-90691678D01*
X94273071Y-90696997D01*
X94269231Y-90703227D01*
X94269230Y-90703228D01*
X94199488Y-90816371D01*
X94181791Y-90845080D01*
X94127026Y-91010191D01*
X94116500Y-91112928D01*
X94116500Y-91321129D01*
X94096498Y-91389250D01*
X94079595Y-91410224D01*
X93546119Y-91943700D01*
X93483807Y-91977726D01*
X93412992Y-91972661D01*
X93381460Y-91955432D01*
X93365805Y-91943700D01*
X93346705Y-91929385D01*
X93210316Y-91878255D01*
X93148134Y-91871500D01*
X90851866Y-91871500D01*
X90789684Y-91878255D01*
X90653295Y-91929385D01*
X90536739Y-92016739D01*
X90449385Y-92133295D01*
X90398255Y-92269684D01*
X90391500Y-92331866D01*
X90391500Y-93628134D01*
X90398255Y-93690316D01*
X90449385Y-93826705D01*
X90536739Y-93943261D01*
X90653295Y-94030615D01*
X90789684Y-94081745D01*
X90851866Y-94088500D01*
X93148134Y-94088500D01*
X93210316Y-94081745D01*
X93346705Y-94030615D01*
X93463261Y-93943261D01*
X93550615Y-93826705D01*
X93554432Y-93816523D01*
X93554673Y-93815881D01*
X93556210Y-93813835D01*
X93558077Y-93810425D01*
X93558569Y-93810695D01*
X93597317Y-93759118D01*
X93662438Y-93734529D01*
X93684586Y-93732728D01*
X93724839Y-93729454D01*
X93724842Y-93729453D01*
X93732137Y-93728860D01*
X93739101Y-93726604D01*
X93745060Y-93725413D01*
X93750915Y-93724029D01*
X93758181Y-93723182D01*
X93826827Y-93698265D01*
X93830955Y-93696848D01*
X93893436Y-93676607D01*
X93893438Y-93676606D01*
X93900399Y-93674351D01*
X93906654Y-93670555D01*
X93912128Y-93668049D01*
X93917558Y-93665330D01*
X93924437Y-93662833D01*
X93941672Y-93651533D01*
X93985476Y-93622814D01*
X93989180Y-93620477D01*
X94051607Y-93582595D01*
X94059984Y-93575197D01*
X94060008Y-93575224D01*
X94063000Y-93572571D01*
X94066233Y-93569868D01*
X94072352Y-93565856D01*
X94125628Y-93509617D01*
X94128006Y-93507175D01*
X95089776Y-92545405D01*
X95152088Y-92511379D01*
X95178871Y-92508500D01*
X95387072Y-92508500D01*
X95390318Y-92508163D01*
X95390322Y-92508163D01*
X95484235Y-92498419D01*
X95484239Y-92498418D01*
X95491093Y-92497707D01*
X95497629Y-92495526D01*
X95497631Y-92495526D01*
X95649159Y-92444972D01*
X95656107Y-92442654D01*
X95804031Y-92351116D01*
X95820122Y-92334997D01*
X95921758Y-92233184D01*
X95921762Y-92233179D01*
X95926929Y-92228003D01*
X96001448Y-92107111D01*
X96054219Y-92059619D01*
X96124291Y-92048195D01*
X96189414Y-92076469D01*
X96223133Y-92120477D01*
X96285898Y-92256624D01*
X96403479Y-92422997D01*
X96426037Y-92444972D01*
X96517504Y-92534075D01*
X96549410Y-92565157D01*
X96554206Y-92568362D01*
X96554209Y-92568364D01*
X96599673Y-92598742D01*
X96718803Y-92678342D01*
X96724106Y-92680620D01*
X96724109Y-92680622D01*
X96883980Y-92749308D01*
X96905987Y-92758763D01*
X96978817Y-92775243D01*
X97099055Y-92802450D01*
X97099060Y-92802451D01*
X97104692Y-92803725D01*
X97110463Y-92803952D01*
X97110465Y-92803952D01*
X97173470Y-92806427D01*
X97308263Y-92811723D01*
X97509883Y-92782490D01*
X97515347Y-92780635D01*
X97515352Y-92780634D01*
X97697327Y-92718862D01*
X97697332Y-92718860D01*
X97702799Y-92717004D01*
X97709037Y-92713511D01*
X97797312Y-92664074D01*
X97880551Y-92617458D01*
X98037186Y-92487186D01*
X98088095Y-92425975D01*
X99877601Y-92425975D01*
X99906552Y-92526941D01*
X99911067Y-92538345D01*
X99995794Y-92703207D01*
X100002435Y-92713511D01*
X100004460Y-92716066D01*
X100005099Y-92717645D01*
X100005774Y-92718692D01*
X100005575Y-92718820D01*
X100031098Y-92781875D01*
X100017928Y-92851640D01*
X100013907Y-92858403D01*
X99921998Y-93025585D01*
X99917166Y-93036858D01*
X99878506Y-93158731D01*
X99878202Y-93172831D01*
X99884763Y-93176000D01*
X100577885Y-93176000D01*
X100593124Y-93171525D01*
X100594329Y-93170135D01*
X100596000Y-93162452D01*
X100596000Y-92432115D01*
X100591525Y-92416876D01*
X100590135Y-92415671D01*
X100582452Y-92414000D01*
X99892282Y-92414000D01*
X99878751Y-92417973D01*
X99877601Y-92425975D01*
X98088095Y-92425975D01*
X98167458Y-92330551D01*
X98267004Y-92152799D01*
X98268860Y-92147332D01*
X98268862Y-92147327D01*
X98330634Y-91965352D01*
X98330635Y-91965347D01*
X98332490Y-91959883D01*
X98361723Y-91758263D01*
X98363249Y-91700000D01*
X98344608Y-91497126D01*
X98339004Y-91477255D01*
X98290875Y-91306606D01*
X98290874Y-91306604D01*
X98289307Y-91301047D01*
X98273181Y-91268345D01*
X98217766Y-91155975D01*
X99877601Y-91155975D01*
X99906552Y-91256941D01*
X99911067Y-91268345D01*
X99995794Y-91433207D01*
X100002435Y-91443511D01*
X100004460Y-91446066D01*
X100005099Y-91447645D01*
X100005774Y-91448692D01*
X100005575Y-91448820D01*
X100031098Y-91511875D01*
X100017928Y-91581640D01*
X100013907Y-91588403D01*
X99921998Y-91755585D01*
X99917166Y-91766858D01*
X99878506Y-91888731D01*
X99878202Y-91902831D01*
X99884763Y-91906000D01*
X100577885Y-91906000D01*
X100593124Y-91901525D01*
X100594329Y-91900135D01*
X100596000Y-91892452D01*
X100596000Y-91162115D01*
X100591525Y-91146876D01*
X100590135Y-91145671D01*
X100582452Y-91144000D01*
X99892282Y-91144000D01*
X99878751Y-91147973D01*
X99877601Y-91155975D01*
X98217766Y-91155975D01*
X98201756Y-91123510D01*
X98199201Y-91118329D01*
X98191782Y-91108393D01*
X98080762Y-90959721D01*
X98077305Y-90955091D01*
X98048971Y-90928899D01*
X98012526Y-90867971D01*
X98008500Y-90836375D01*
X98008500Y-90816371D01*
X98028502Y-90748250D01*
X98045405Y-90727276D01*
X98631331Y-90141350D01*
X98694228Y-90107199D01*
X98750824Y-90095169D01*
X98750833Y-90095166D01*
X98757288Y-90093794D01*
X98765176Y-90090282D01*
X98925722Y-90018803D01*
X98925724Y-90018802D01*
X98931752Y-90016118D01*
X98946989Y-90005048D01*
X99000220Y-89966373D01*
X99086253Y-89903866D01*
X99102362Y-89885975D01*
X99877601Y-89885975D01*
X99906552Y-89986941D01*
X99911067Y-89998345D01*
X99995794Y-90163207D01*
X100002435Y-90173511D01*
X100004460Y-90176066D01*
X100005099Y-90177645D01*
X100005774Y-90178692D01*
X100005575Y-90178820D01*
X100031098Y-90241875D01*
X100017928Y-90311640D01*
X100013907Y-90318403D01*
X99921998Y-90485585D01*
X99917166Y-90496858D01*
X99878506Y-90618731D01*
X99878202Y-90632831D01*
X99884763Y-90636000D01*
X100577885Y-90636000D01*
X100593124Y-90631525D01*
X100594329Y-90630135D01*
X100596000Y-90622452D01*
X100596000Y-89892115D01*
X100591525Y-89876876D01*
X100590135Y-89875671D01*
X100582452Y-89874000D01*
X99892282Y-89874000D01*
X99878751Y-89877973D01*
X99877601Y-89885975D01*
X99102362Y-89885975D01*
X99112831Y-89874348D01*
X99209621Y-89766852D01*
X99209622Y-89766851D01*
X99214040Y-89761944D01*
X99309527Y-89596556D01*
X99364387Y-89427714D01*
X99395125Y-89377556D01*
X99627276Y-89145405D01*
X99689588Y-89111379D01*
X99716371Y-89108500D01*
X99782555Y-89108500D01*
X99850676Y-89128502D01*
X99897169Y-89182158D01*
X99907273Y-89252432D01*
X99902657Y-89272599D01*
X99878506Y-89348732D01*
X99878202Y-89362831D01*
X99884763Y-89366000D01*
X100978000Y-89366000D01*
X101046121Y-89386002D01*
X101092614Y-89439658D01*
X101104000Y-89492000D01*
X101104000Y-93558000D01*
X101083998Y-93626121D01*
X101030342Y-93672614D01*
X100978000Y-93684000D01*
X99892282Y-93684000D01*
X99878751Y-93687973D01*
X99877601Y-93695975D01*
X99906552Y-93796941D01*
X99911067Y-93808345D01*
X99995794Y-93973207D01*
X100002435Y-93983512D01*
X100117568Y-94128772D01*
X100126091Y-94137598D01*
X100267245Y-94257730D01*
X100277317Y-94264730D01*
X100439116Y-94355156D01*
X100450357Y-94360067D01*
X100482979Y-94370667D01*
X100541585Y-94410741D01*
X100569222Y-94476137D01*
X100557115Y-94546094D01*
X100509109Y-94598400D01*
X100444043Y-94616500D01*
X89964595Y-94616500D01*
X89896474Y-94596498D01*
X89875500Y-94579595D01*
X89697122Y-94401217D01*
X89663096Y-94338905D01*
X89660907Y-94325292D01*
X89644232Y-94166635D01*
X89644232Y-94166633D01*
X89643542Y-94160072D01*
X89584527Y-93978444D01*
X89563872Y-93942669D01*
X89492344Y-93818778D01*
X89492342Y-93818775D01*
X89489040Y-93813056D01*
X89466519Y-93788044D01*
X89438897Y-93757366D01*
X89408180Y-93693358D01*
X89407271Y-93659449D01*
X89408131Y-93651533D01*
X89408131Y-93651529D01*
X89408500Y-93648134D01*
X89408500Y-89064669D01*
X90392001Y-89064669D01*
X90392371Y-89071490D01*
X90397895Y-89122352D01*
X90401521Y-89137604D01*
X90446676Y-89258054D01*
X90455214Y-89273649D01*
X90531715Y-89375724D01*
X90544276Y-89388285D01*
X90646351Y-89464786D01*
X90661946Y-89473324D01*
X90782394Y-89518478D01*
X90797649Y-89522105D01*
X90848514Y-89527631D01*
X90855328Y-89528000D01*
X91727885Y-89528000D01*
X91743124Y-89523525D01*
X91744329Y-89522135D01*
X91746000Y-89514452D01*
X91746000Y-89509884D01*
X92254000Y-89509884D01*
X92258475Y-89525123D01*
X92259865Y-89526328D01*
X92267548Y-89527999D01*
X93144669Y-89527999D01*
X93151490Y-89527629D01*
X93202352Y-89522105D01*
X93217604Y-89518479D01*
X93338054Y-89473324D01*
X93352555Y-89465385D01*
X94117000Y-89465385D01*
X94121475Y-89480624D01*
X94122865Y-89481829D01*
X94130548Y-89483500D01*
X94827885Y-89483500D01*
X94843124Y-89479025D01*
X94844329Y-89477635D01*
X94846000Y-89469952D01*
X94846000Y-88710115D01*
X94841525Y-88694876D01*
X94840135Y-88693671D01*
X94832452Y-88692000D01*
X94816234Y-88692000D01*
X94809718Y-88692337D01*
X94715868Y-88702075D01*
X94702472Y-88704968D01*
X94551047Y-88755488D01*
X94537885Y-88761653D01*
X94402508Y-88845426D01*
X94391110Y-88854460D01*
X94278637Y-88967129D01*
X94269625Y-88978540D01*
X94186088Y-89114063D01*
X94179944Y-89127241D01*
X94129685Y-89278766D01*
X94126819Y-89292132D01*
X94117328Y-89384770D01*
X94117000Y-89391185D01*
X94117000Y-89465385D01*
X93352555Y-89465385D01*
X93353649Y-89464786D01*
X93455724Y-89388285D01*
X93468285Y-89375724D01*
X93544786Y-89273649D01*
X93553324Y-89258054D01*
X93598478Y-89137606D01*
X93602105Y-89122351D01*
X93607631Y-89071486D01*
X93608000Y-89064672D01*
X93608000Y-88692115D01*
X93603525Y-88676876D01*
X93602135Y-88675671D01*
X93594452Y-88674000D01*
X92272115Y-88674000D01*
X92256876Y-88678475D01*
X92255671Y-88679865D01*
X92254000Y-88687548D01*
X92254000Y-89509884D01*
X91746000Y-89509884D01*
X91746000Y-88692115D01*
X91741525Y-88676876D01*
X91740135Y-88675671D01*
X91732452Y-88674000D01*
X90410116Y-88674000D01*
X90394877Y-88678475D01*
X90393672Y-88679865D01*
X90392001Y-88687548D01*
X90392001Y-89064669D01*
X89408500Y-89064669D01*
X89408500Y-88147885D01*
X90392000Y-88147885D01*
X90396475Y-88163124D01*
X90397865Y-88164329D01*
X90405548Y-88166000D01*
X91727885Y-88166000D01*
X91743124Y-88161525D01*
X91744329Y-88160135D01*
X91746000Y-88152452D01*
X91746000Y-88147885D01*
X92254000Y-88147885D01*
X92258475Y-88163124D01*
X92259865Y-88164329D01*
X92267548Y-88166000D01*
X93589884Y-88166000D01*
X93605123Y-88161525D01*
X93606328Y-88160135D01*
X93607999Y-88152452D01*
X93607999Y-87775331D01*
X93607629Y-87768510D01*
X93602105Y-87717648D01*
X93598479Y-87702396D01*
X93553324Y-87581946D01*
X93544786Y-87566351D01*
X93468285Y-87464276D01*
X93455724Y-87451715D01*
X93353649Y-87375214D01*
X93338054Y-87366676D01*
X93217606Y-87321522D01*
X93202351Y-87317895D01*
X93151486Y-87312369D01*
X93144672Y-87312000D01*
X92272115Y-87312000D01*
X92256876Y-87316475D01*
X92255671Y-87317865D01*
X92254000Y-87325548D01*
X92254000Y-88147885D01*
X91746000Y-88147885D01*
X91746000Y-87330116D01*
X91741525Y-87314877D01*
X91740135Y-87313672D01*
X91732452Y-87312001D01*
X90855331Y-87312001D01*
X90848510Y-87312371D01*
X90797648Y-87317895D01*
X90782396Y-87321521D01*
X90661946Y-87366676D01*
X90646351Y-87375214D01*
X90544276Y-87451715D01*
X90531715Y-87464276D01*
X90455214Y-87566351D01*
X90446676Y-87581946D01*
X90401522Y-87702394D01*
X90397895Y-87717649D01*
X90392369Y-87768514D01*
X90392000Y-87775328D01*
X90392000Y-88147885D01*
X89408500Y-88147885D01*
X89408500Y-87751866D01*
X89401745Y-87689684D01*
X89350615Y-87553295D01*
X89263261Y-87436739D01*
X89146705Y-87349385D01*
X89010316Y-87298255D01*
X88948134Y-87291500D01*
X82451866Y-87291500D01*
X82389684Y-87298255D01*
X82253295Y-87349385D01*
X82136739Y-87436739D01*
X82049385Y-87553295D01*
X81998255Y-87689684D01*
X81991500Y-87751866D01*
X81991500Y-89015500D01*
X81971498Y-89083621D01*
X81917842Y-89130114D01*
X81865500Y-89141500D01*
X80059500Y-89141500D01*
X79991379Y-89121498D01*
X79944886Y-89067842D01*
X79933500Y-89015500D01*
X79933500Y-87149600D01*
X79932118Y-87136278D01*
X79923238Y-87050692D01*
X79923237Y-87050688D01*
X79922526Y-87043834D01*
X79866550Y-86876054D01*
X79773478Y-86725652D01*
X79768296Y-86720479D01*
X79763749Y-86714742D01*
X79765584Y-86713288D01*
X79736914Y-86660882D01*
X79741922Y-86590063D01*
X79784423Y-86533193D01*
X79850923Y-86508328D01*
X79860013Y-86508000D01*
X97565129Y-86508000D01*
X97633250Y-86528002D01*
G37*
%TD.AperFunction*%
M02*
