%TF.GenerationSoftware,KiCad,Pcbnew,6.0.2+dfsg-1*%
%TF.CreationDate,2022-08-30T22:44:58-05:00*%
%TF.ProjectId,Rocket Tracker,526f636b-6574-4205-9472-61636b65722e,rev?*%
%TF.SameCoordinates,Original*%
%TF.FileFunction,Copper,L1,Top*%
%TF.FilePolarity,Positive*%
%FSLAX46Y46*%
G04 Gerber Fmt 4.6, Leading zero omitted, Abs format (unit mm)*
G04 Created by KiCad (PCBNEW 6.0.2+dfsg-1) date 2022-08-30 22:44:58*
%MOMM*%
%LPD*%
G01*
G04 APERTURE LIST*
G04 Aperture macros list*
%AMRoundRect*
0 Rectangle with rounded corners*
0 $1 Rounding radius*
0 $2 $3 $4 $5 $6 $7 $8 $9 X,Y pos of 4 corners*
0 Add a 4 corners polygon primitive as box body*
4,1,4,$2,$3,$4,$5,$6,$7,$8,$9,$2,$3,0*
0 Add four circle primitives for the rounded corners*
1,1,$1+$1,$2,$3*
1,1,$1+$1,$4,$5*
1,1,$1+$1,$6,$7*
1,1,$1+$1,$8,$9*
0 Add four rect primitives between the rounded corners*
20,1,$1+$1,$2,$3,$4,$5,0*
20,1,$1+$1,$4,$5,$6,$7,0*
20,1,$1+$1,$6,$7,$8,$9,0*
20,1,$1+$1,$8,$9,$2,$3,0*%
%AMRotRect*
0 Rectangle, with rotation*
0 The origin of the aperture is its center*
0 $1 length*
0 $2 width*
0 $3 Rotation angle, in degrees counterclockwise*
0 Add horizontal line*
21,1,$1,$2,0,0,$3*%
G04 Aperture macros list end*
%TA.AperFunction,SMDPad,CuDef*%
%ADD10RoundRect,0.237500X0.237500X-0.250000X0.237500X0.250000X-0.237500X0.250000X-0.237500X-0.250000X0*%
%TD*%
%TA.AperFunction,SMDPad,CuDef*%
%ADD11RoundRect,0.237500X-0.237500X0.250000X-0.237500X-0.250000X0.237500X-0.250000X0.237500X0.250000X0*%
%TD*%
%TA.AperFunction,SMDPad,CuDef*%
%ADD12RoundRect,0.150000X-0.625000X0.150000X-0.625000X-0.150000X0.625000X-0.150000X0.625000X0.150000X0*%
%TD*%
%TA.AperFunction,SMDPad,CuDef*%
%ADD13RoundRect,0.250000X-0.650000X0.350000X-0.650000X-0.350000X0.650000X-0.350000X0.650000X0.350000X0*%
%TD*%
%TA.AperFunction,ComponentPad*%
%ADD14R,1.000000X1.000000*%
%TD*%
%TA.AperFunction,ComponentPad*%
%ADD15O,1.000000X1.000000*%
%TD*%
%TA.AperFunction,SMDPad,CuDef*%
%ADD16R,1.000000X2.000000*%
%TD*%
%TA.AperFunction,SMDPad,CuDef*%
%ADD17R,2.000000X0.900000*%
%TD*%
%TA.AperFunction,SMDPad,CuDef*%
%ADD18R,0.900000X2.000000*%
%TD*%
%TA.AperFunction,SMDPad,CuDef*%
%ADD19R,5.000000X5.000000*%
%TD*%
%TA.AperFunction,SMDPad,CuDef*%
%ADD20RoundRect,0.237500X-0.287500X-0.237500X0.287500X-0.237500X0.287500X0.237500X-0.287500X0.237500X0*%
%TD*%
%TA.AperFunction,ComponentPad*%
%ADD21R,1.700000X1.700000*%
%TD*%
%TA.AperFunction,ComponentPad*%
%ADD22O,1.700000X1.700000*%
%TD*%
%TA.AperFunction,SMDPad,CuDef*%
%ADD23RotRect,0.675000X0.250000X45.000000*%
%TD*%
%TA.AperFunction,SMDPad,CuDef*%
%ADD24RotRect,0.250000X0.675000X45.000000*%
%TD*%
%TA.AperFunction,SMDPad,CuDef*%
%ADD25R,4.060000X1.520000*%
%TD*%
%TA.AperFunction,ViaPad*%
%ADD26C,0.800000*%
%TD*%
%TA.AperFunction,ViaPad*%
%ADD27C,1.200000*%
%TD*%
%TA.AperFunction,Conductor*%
%ADD28C,0.500000*%
%TD*%
%TA.AperFunction,Conductor*%
%ADD29C,0.250000*%
%TD*%
G04 APERTURE END LIST*
D10*
%TO.P,R4,1*%
%TO.N,+3V3*%
X98300000Y-88962500D03*
%TO.P,R4,2*%
%TO.N,ESP_TMS*%
X98300000Y-87137500D03*
%TD*%
D11*
%TO.P,R3,1*%
%TO.N,+3V3*%
X104450000Y-88287500D03*
%TO.P,R3,2*%
%TO.N,ESP_TDI*%
X104450000Y-90112500D03*
%TD*%
D12*
%TO.P,J6,1,Pin_1*%
%TO.N,SCL*%
X81375000Y-88800000D03*
%TO.P,J6,2,Pin_2*%
%TO.N,SDA*%
X81375000Y-89800000D03*
%TO.P,J6,3,Pin_3*%
%TO.N,+3V3*%
X81375000Y-90800000D03*
%TO.P,J6,4,Pin_4*%
%TO.N,GND*%
X81375000Y-91800000D03*
D13*
%TO.P,J6,MP*%
%TO.N,N/C*%
X83900000Y-87500000D03*
X83900000Y-93100000D03*
%TD*%
D14*
%TO.P,J1,1,Pin_1*%
%TO.N,ESP_EN*%
X100225000Y-99275000D03*
D15*
%TO.P,J1,2,Pin_2*%
%TO.N,+3V3*%
X100225000Y-98005000D03*
%TO.P,J1,3,Pin_3*%
%TO.N,ESP_TXD*%
X101495000Y-99275000D03*
%TO.P,J1,4,Pin_4*%
%TO.N,GND*%
X101495000Y-98005000D03*
%TO.P,J1,5,Pin_5*%
%TO.N,ESP_RXD*%
X102765000Y-99275000D03*
%TO.P,J1,6,Pin_6*%
%TO.N,ESP_IO0*%
X102765000Y-98005000D03*
%TD*%
D16*
%TO.P,U3,1,Vcc*%
%TO.N,+3V3*%
X94750000Y-96000000D03*
%TO.P,U3,2,~{NRESET}*%
%TO.N,unconnected-(U3-Pad2)*%
X93250000Y-96000000D03*
%TO.P,U3,3,GND*%
%TO.N,GND*%
X91750000Y-96000000D03*
%TO.P,U3,4,Vbackup*%
%TO.N,Vbackup*%
X90250000Y-96000000D03*
%TO.P,U3,5,~{3D-Fix}*%
%TO.N,GPS_FIX*%
X88750000Y-96000000D03*
%TO.P,U3,6,NC*%
%TO.N,unconnected-(U3-Pad6)*%
X87250000Y-96000000D03*
%TO.P,U3,7,NC*%
%TO.N,unconnected-(U3-Pad7)*%
X85750000Y-96000000D03*
%TO.P,U3,8,GND*%
%TO.N,GND*%
X84250000Y-96000000D03*
%TO.P,U3,9,TX*%
%TO.N,GPS_TX*%
X82750000Y-96000000D03*
%TO.P,U3,10,RX*%
%TO.N,GPS_RX*%
X81250000Y-96000000D03*
%TO.P,U3,11,EX_ANT*%
%TO.N,unconnected-(U3-Pad11)*%
X81250000Y-112000000D03*
%TO.P,U3,12,GND*%
%TO.N,GND*%
X82750000Y-112000000D03*
%TO.P,U3,13,1PPS*%
%TO.N,GPS_1PPS*%
X84250000Y-112000000D03*
%TO.P,U3,14,RTCM*%
%TO.N,unconnected-(U3-Pad14)*%
X85750000Y-112000000D03*
%TO.P,U3,15,NC*%
%TO.N,unconnected-(U3-Pad15)*%
X87250000Y-112000000D03*
%TO.P,U3,16,NC*%
%TO.N,unconnected-(U3-Pad16)*%
X88750000Y-112000000D03*
%TO.P,U3,17,NC*%
%TO.N,unconnected-(U3-Pad17)*%
X90250000Y-112000000D03*
%TO.P,U3,18,NC*%
%TO.N,unconnected-(U3-Pad18)*%
X91750000Y-112000000D03*
%TO.P,U3,19,GND*%
%TO.N,GND*%
X93250000Y-112000000D03*
%TO.P,U3,20,NC*%
%TO.N,unconnected-(U3-Pad20)*%
X94750000Y-112000000D03*
%TD*%
D17*
%TO.P,U1,1,GND*%
%TO.N,GND*%
X123500000Y-105255000D03*
%TO.P,U1,2,VDD*%
%TO.N,+3V3*%
X123500000Y-103985000D03*
%TO.P,U1,3,EN*%
%TO.N,ESP_EN*%
X123500000Y-102715000D03*
%TO.P,U1,4,SENSOR_VP*%
%TO.N,unconnected-(U1-Pad4)*%
X123500000Y-101445000D03*
%TO.P,U1,5,SENSOR_VN*%
%TO.N,unconnected-(U1-Pad5)*%
X123500000Y-100175000D03*
%TO.P,U1,6,IO34*%
%TO.N,unconnected-(U1-Pad6)*%
X123500000Y-98905000D03*
%TO.P,U1,7,IO35*%
%TO.N,unconnected-(U1-Pad7)*%
X123500000Y-97635000D03*
%TO.P,U1,8,IO32*%
%TO.N,LED_R*%
X123500000Y-96365000D03*
%TO.P,U1,9,IO33*%
%TO.N,LED_G*%
X123500000Y-95095000D03*
%TO.P,U1,10,IO25*%
%TO.N,GPS_1PPS*%
X123500000Y-93825000D03*
%TO.P,U1,11,IO26*%
%TO.N,GPS_FIX*%
X123500000Y-92555000D03*
%TO.P,U1,12,IO27*%
%TO.N,RFM_RST*%
X123500000Y-91285000D03*
%TO.P,U1,13,IO14*%
%TO.N,ESP_TMS*%
X123500000Y-90015000D03*
%TO.P,U1,14,IO12*%
%TO.N,ESP_TDI*%
X123500000Y-88745000D03*
D18*
%TO.P,U1,15,GND*%
%TO.N,GND*%
X120715000Y-87745000D03*
%TO.P,U1,16,IO13*%
%TO.N,unconnected-(U1-Pad16)*%
X119445000Y-87745000D03*
%TO.P,U1,17,SHD/SD2*%
%TO.N,GPS_TX*%
X118175000Y-87745000D03*
%TO.P,U1,18,SWP/SD3*%
%TO.N,GPS_RX*%
X116905000Y-87745000D03*
%TO.P,U1,19,SCS/CMD*%
%TO.N,unconnected-(U1-Pad19)*%
X115635000Y-87745000D03*
%TO.P,U1,20,SCK/CLK*%
%TO.N,unconnected-(U1-Pad20)*%
X114365000Y-87745000D03*
%TO.P,U1,21,SDO/SD0*%
%TO.N,unconnected-(U1-Pad21)*%
X113095000Y-87745000D03*
%TO.P,U1,22,SDI/SD1*%
%TO.N,unconnected-(U1-Pad22)*%
X111825000Y-87745000D03*
%TO.P,U1,23,IO15*%
%TO.N,ESP_TDO*%
X110555000Y-87745000D03*
%TO.P,U1,24,IO2*%
%TO.N,RFM_DIO0*%
X109285000Y-87745000D03*
D17*
%TO.P,U1,25,IO0*%
%TO.N,ESP_IO0*%
X106500000Y-88745000D03*
%TO.P,U1,26,IO4*%
%TO.N,FLASH_CS*%
X106500000Y-90015000D03*
%TO.P,U1,27,IO16*%
%TO.N,ESP_TCK*%
X106500000Y-91285000D03*
%TO.P,U1,28,IO17*%
%TO.N,unconnected-(U1-Pad28)*%
X106500000Y-92555000D03*
%TO.P,U1,29,IO5*%
%TO.N,RFM_CS*%
X106500000Y-93825000D03*
%TO.P,U1,30,IO18*%
%TO.N,SCK*%
X106500000Y-95095000D03*
%TO.P,U1,31,IO19*%
%TO.N,CIPO*%
X106500000Y-96365000D03*
%TO.P,U1,32,NC*%
%TO.N,unconnected-(U1-Pad32)*%
X106500000Y-97635000D03*
%TO.P,U1,33,IO21*%
%TO.N,SDA*%
X106500000Y-98905000D03*
%TO.P,U1,34,RXD0/IO3*%
%TO.N,ESP_RXD*%
X106500000Y-100175000D03*
%TO.P,U1,35,TXD0/IO1*%
%TO.N,ESP_TXD*%
X106500000Y-101445000D03*
%TO.P,U1,36,IO22*%
%TO.N,SCL*%
X106500000Y-102715000D03*
%TO.P,U1,37,IO23*%
%TO.N,COPI*%
X106500000Y-103985000D03*
%TO.P,U1,38,GND*%
%TO.N,GND*%
X106500000Y-105255000D03*
D19*
%TO.P,U1,39,GND*%
X116000000Y-97755000D03*
%TD*%
D12*
%TO.P,J7,1,Pin_1*%
%TO.N,SCL*%
X87375000Y-88800000D03*
%TO.P,J7,2,Pin_2*%
%TO.N,SDA*%
X87375000Y-89800000D03*
%TO.P,J7,3,Pin_3*%
%TO.N,+3V3*%
X87375000Y-90800000D03*
%TO.P,J7,4,Pin_4*%
%TO.N,GND*%
X87375000Y-91800000D03*
D13*
%TO.P,J7,MP*%
%TO.N,N/C*%
X89900000Y-93100000D03*
X89900000Y-87500000D03*
%TD*%
D20*
%TO.P,D1,1,K*%
%TO.N,GND*%
X126425000Y-101200000D03*
%TO.P,D1,2,A*%
%TO.N,Net-(D1-Pad2)*%
X128175000Y-101200000D03*
%TD*%
D21*
%TO.P,J5,1,Pin_1*%
%TO.N,Vin*%
X127400000Y-97075000D03*
D22*
%TO.P,J5,2,Pin_2*%
%TO.N,GND*%
X127400000Y-94535000D03*
%TD*%
D12*
%TO.P,J8,1,Pin_1*%
%TO.N,SCL*%
X93375000Y-88800000D03*
%TO.P,J8,2,Pin_2*%
%TO.N,SDA*%
X93375000Y-89800000D03*
%TO.P,J8,3,Pin_3*%
%TO.N,+3V3*%
X93375000Y-90800000D03*
%TO.P,J8,4,Pin_4*%
%TO.N,GND*%
X93375000Y-91800000D03*
D13*
%TO.P,J8,MP*%
%TO.N,N/C*%
X95900000Y-87500000D03*
X95900000Y-93100000D03*
%TD*%
D20*
%TO.P,D2,1,K*%
%TO.N,GND*%
X126425000Y-104200000D03*
%TO.P,D2,2,A*%
%TO.N,Net-(D2-Pad2)*%
X128175000Y-104200000D03*
%TD*%
D23*
%TO.P,U4,1,SDO*%
%TO.N,unconnected-(U4-Pad1)*%
X75926948Y-90612392D03*
%TO.P,U4,2,ASDx*%
%TO.N,unconnected-(U4-Pad2)*%
X76280501Y-90965946D03*
%TO.P,U4,3,ASCx*%
%TO.N,unconnected-(U4-Pad3)*%
X76634054Y-91319499D03*
%TO.P,U4,4,INT1*%
%TO.N,IMU_INT*%
X76987608Y-91673052D03*
D24*
%TO.P,U4,5,VDDIO*%
%TO.N,+3V3*%
X77712392Y-91319499D03*
%TO.P,U4,6,GNDIO*%
%TO.N,GND*%
X78065946Y-90965946D03*
%TO.P,U4,7,GND*%
X78419499Y-90612392D03*
D23*
%TO.P,U4,8,VDD*%
%TO.N,+3V3*%
X78773052Y-89887608D03*
%TO.P,U4,9,INT2*%
%TO.N,unconnected-(U4-Pad9)*%
X78419499Y-89534054D03*
%TO.P,U4,10,OCSB*%
%TO.N,unconnected-(U4-Pad10)*%
X78065946Y-89180501D03*
%TO.P,U4,11,OSDO*%
%TO.N,unconnected-(U4-Pad11)*%
X77712392Y-88826948D03*
D24*
%TO.P,U4,12,CSB*%
%TO.N,unconnected-(U4-Pad12)*%
X76987608Y-89180501D03*
%TO.P,U4,13,SCx*%
%TO.N,SCL*%
X76634054Y-89534054D03*
%TO.P,U4,14,SDx*%
%TO.N,SDA*%
X76280501Y-89887608D03*
%TD*%
D21*
%TO.P,J3,1,Pin_1*%
%TO.N,Vbackup*%
X76450000Y-111600000D03*
D22*
%TO.P,J3,2,Pin_2*%
%TO.N,GND*%
X76450000Y-109060000D03*
%TD*%
D15*
%TO.P,J2,10,Pin_10*%
%TO.N,unconnected-(J2-Pad10)*%
X102120000Y-93430000D03*
%TO.P,J2,9,Pin_9*%
%TO.N,GND*%
X100850000Y-93430000D03*
%TO.P,J2,8,Pin_8*%
%TO.N,ESP_TDI*%
X102120000Y-92160000D03*
%TO.P,J2,7,Pin_7*%
%TO.N,GND*%
X100850000Y-92160000D03*
%TO.P,J2,6,Pin_6*%
%TO.N,ESP_TDO*%
X102120000Y-90890000D03*
%TO.P,J2,5,Pin_5*%
%TO.N,GND*%
X100850000Y-90890000D03*
%TO.P,J2,4,Pin_4*%
%TO.N,ESP_TCK*%
X102120000Y-89620000D03*
%TO.P,J2,3,Pin_3*%
%TO.N,GND*%
X100850000Y-89620000D03*
%TO.P,J2,2,Pin_2*%
%TO.N,ESP_TMS*%
X102120000Y-88350000D03*
D14*
%TO.P,J2,1,Pin_1*%
%TO.N,+3V3*%
X100850000Y-88350000D03*
%TD*%
D25*
%TO.P,J4,2,Ext*%
%TO.N,GND*%
X72080000Y-102540000D03*
X72080000Y-97460000D03*
%TD*%
D26*
%TO.N,ESP_TDI*%
X104240000Y-92160000D03*
%TO.N,+3V3*%
X98475000Y-89225000D03*
D27*
%TO.N,GND*%
X81250000Y-87250000D03*
D26*
X77100000Y-95700000D03*
X75200000Y-102100000D03*
X121300000Y-98450000D03*
D27*
X118950000Y-105750000D03*
X99350000Y-111350000D03*
D26*
X81036812Y-92600500D03*
X121350000Y-95550000D03*
X75200000Y-97900000D03*
X77200000Y-90450000D03*
X77800000Y-101200000D03*
X76100000Y-96700000D03*
D27*
X109700000Y-104250000D03*
D26*
X78400000Y-95200000D03*
X79500000Y-95100000D03*
X76500000Y-101800000D03*
X121250000Y-101300000D03*
D27*
X115450000Y-101900000D03*
D26*
%TO.N,Net-(D1-Pad2)*%
X129250000Y-101200000D03*
%TO.N,Net-(D2-Pad2)*%
X129250000Y-104200000D03*
%TO.N,ESP_EN*%
X119250000Y-102700000D03*
X99400489Y-96874011D03*
D27*
%TO.N,+3V3*%
X78750000Y-93450000D03*
X112200000Y-104000000D03*
X83650000Y-90800000D03*
X94250000Y-101000000D03*
X108035498Y-87600000D03*
X121550000Y-104000000D03*
D26*
X78762500Y-91500000D03*
D27*
X97250000Y-91700000D03*
D26*
%TO.N,ESP_TMS*%
X118899500Y-89400000D03*
%TO.N,ESP_TCK*%
X105000000Y-91300000D03*
%TO.N,ESP_TDI*%
X121900000Y-88750000D03*
%TO.N,SDA*%
X104950000Y-98900000D03*
X98500000Y-102075500D03*
%TO.N,LED_R*%
X125100000Y-97900000D03*
%TO.N,LED_G*%
X125200000Y-96150000D03*
%TO.N,RFM_CS*%
X108000000Y-93900000D03*
%TO.N,GPS_FIX*%
X121900000Y-92550000D03*
X88750000Y-94350000D03*
%TO.N,RFM_RST*%
X111050000Y-94450000D03*
%TO.N,GPS_TX*%
X83800000Y-97600000D03*
X118200000Y-92250000D03*
%TO.N,GPS_RX*%
X116900000Y-91650000D03*
X82700000Y-97600000D03*
%TO.N,SCK*%
X109450000Y-95500000D03*
%TO.N,COPI*%
X104600000Y-104000000D03*
%TO.N,CIPO*%
X109374500Y-96538163D03*
%TO.N,RFM_DIO0*%
X110350000Y-93699011D03*
%TD*%
D28*
%TO.N,+3V3*%
X104450000Y-88287500D02*
X105137500Y-87600000D01*
X105137500Y-87600000D02*
X108035498Y-87600000D01*
D29*
%TO.N,ESP_TDI*%
X104240000Y-92160000D02*
X104240000Y-90322500D01*
X104240000Y-90322500D02*
X104450000Y-90112500D01*
%TO.N,ESP_IO0*%
X106500000Y-88745000D02*
X106004511Y-89240489D01*
X106004511Y-89240489D02*
X103499520Y-89240489D01*
X103499520Y-89240489D02*
X103499520Y-90042234D01*
X103499520Y-90042234D02*
X103100000Y-90441754D01*
X103100000Y-90441754D02*
X103100000Y-97670000D01*
X103100000Y-97670000D02*
X102765000Y-98005000D01*
%TO.N,ESP_TDO*%
X102120000Y-90890000D02*
X102120000Y-90444511D01*
X103050000Y-89856036D02*
X103050000Y-86310000D01*
X103050000Y-86310000D02*
X106700000Y-86310000D01*
X102120000Y-90444511D02*
X102461525Y-90444511D01*
X102461525Y-90444511D02*
X103050000Y-89856036D01*
%TO.N,ESP_EN*%
X99400489Y-98450489D02*
X100225000Y-99275000D01*
X99400489Y-96874011D02*
X99400489Y-98450489D01*
%TO.N,ESP_TMS*%
X102120000Y-88350000D02*
X102120000Y-87520000D01*
X102120000Y-87520000D02*
X101737500Y-87137500D01*
X101737500Y-87137500D02*
X98300000Y-87137500D01*
D28*
%TO.N,+3V3*%
X108150000Y-87714502D02*
X108150000Y-92848609D01*
%TO.N,Vbackup*%
X76450000Y-111600000D02*
X90250000Y-97800000D01*
X90250000Y-97800000D02*
X90250000Y-96000000D01*
%TO.N,GND*%
X77655387Y-90450000D02*
X78118640Y-90913253D01*
X81036812Y-92600500D02*
X81036812Y-92138188D01*
X77200000Y-90450000D02*
X77655387Y-90450000D01*
X91750000Y-93425000D02*
X93375000Y-91800000D01*
X81036812Y-92138188D02*
X81375000Y-91800000D01*
X78419499Y-90612392D02*
X78118639Y-90913253D01*
X91750000Y-96000000D02*
X91750000Y-93425000D01*
D29*
%TO.N,Net-(D1-Pad2)*%
X128175000Y-101200000D02*
X129250000Y-101200000D01*
%TO.N,Net-(D2-Pad2)*%
X128175000Y-104200000D02*
X129250000Y-104200000D01*
%TO.N,ESP_EN*%
X123500000Y-102715000D02*
X119265000Y-102715000D01*
X119265000Y-102715000D02*
X119250000Y-102700000D01*
D28*
%TO.N,+3V3*%
X108035498Y-87600000D02*
X108150000Y-87714502D01*
X91900000Y-90800000D02*
X93375000Y-90800000D01*
X94700000Y-92198925D02*
X94700000Y-91350000D01*
D29*
X78762500Y-91500000D02*
X78994018Y-91268482D01*
X78342893Y-91950000D02*
X77712392Y-91319499D01*
D28*
X81375000Y-90800000D02*
X83650000Y-90800000D01*
X83650000Y-90800000D02*
X87375000Y-90800000D01*
D29*
X78762500Y-91500000D02*
X78762500Y-91537500D01*
X78762500Y-91537500D02*
X78350000Y-91950000D01*
D28*
X94700000Y-91350000D02*
X94150000Y-90800000D01*
X82700000Y-90800000D02*
X82700000Y-92250000D01*
X112200000Y-96898609D02*
X112200000Y-104000000D01*
D29*
X78350000Y-91950000D02*
X78342893Y-91950000D01*
D28*
X81375000Y-90800000D02*
X82700000Y-90800000D01*
X87375000Y-90800000D02*
X91900000Y-90800000D01*
X94300000Y-100950000D02*
X94300000Y-96450000D01*
X94250000Y-101000000D02*
X94300000Y-100950000D01*
X97250000Y-93739270D02*
X94989270Y-96000000D01*
X108150000Y-92848609D02*
X112200000Y-96898609D01*
X94150000Y-90800000D02*
X93375000Y-90800000D01*
D29*
X78994018Y-91268482D02*
X78994018Y-90108574D01*
D28*
X81500000Y-93450000D02*
X78750000Y-93450000D01*
X94300000Y-96450000D02*
X94750000Y-96000000D01*
X82700000Y-92250000D02*
X81500000Y-93450000D01*
D29*
X78994018Y-90108574D02*
X78773052Y-89887608D01*
D28*
X94750000Y-96000000D02*
X94400000Y-95650000D01*
X123500000Y-103985000D02*
X121565000Y-103985000D01*
X94989270Y-96000000D02*
X94750000Y-96000000D01*
X94400000Y-95650000D02*
X94400000Y-92498925D01*
X121565000Y-103985000D02*
X121550000Y-104000000D01*
X94400000Y-92498925D02*
X94700000Y-92198925D01*
X97250000Y-91700000D02*
X97250000Y-93739270D01*
D29*
%TO.N,ESP_TXD*%
X103665000Y-101445000D02*
X101495000Y-99275000D01*
X106500000Y-101445000D02*
X103665000Y-101445000D01*
%TO.N,ESP_RXD*%
X103665000Y-100175000D02*
X102765000Y-99275000D01*
X106500000Y-100175000D02*
X103665000Y-100175000D01*
%TO.N,ESP_TMS*%
X118899500Y-89400000D02*
X119514500Y-90015000D01*
X119514500Y-90015000D02*
X123500000Y-90015000D01*
%TO.N,ESP_TCK*%
X106500000Y-91285000D02*
X105015000Y-91285000D01*
X105000000Y-91300000D02*
X105015000Y-91285000D01*
%TO.N,ESP_TDO*%
X106700000Y-86310000D02*
X106710000Y-86300000D01*
X106700000Y-86300000D02*
X106700000Y-86310000D01*
X110555000Y-86915978D02*
X110555000Y-87745000D01*
X106710000Y-86300000D02*
X109939022Y-86300000D01*
X109939022Y-86300000D02*
X110555000Y-86915978D01*
%TO.N,ESP_TDI*%
X121905000Y-88745000D02*
X121900000Y-88750000D01*
X123500000Y-88745000D02*
X121905000Y-88745000D01*
%TO.N,SCL*%
X99224511Y-102674511D02*
X99265000Y-102715000D01*
X99224511Y-101775397D02*
X99224511Y-102674511D01*
X77097902Y-88275391D02*
X76436051Y-88937242D01*
X76436051Y-89336051D02*
X76634054Y-89534054D01*
X98624031Y-90874031D02*
X98624031Y-101174917D01*
X87375000Y-88800000D02*
X93375000Y-88800000D01*
X93375000Y-88800000D02*
X96550000Y-88800000D01*
X98624031Y-101174917D02*
X99224511Y-101775397D01*
X96550000Y-88800000D02*
X98624031Y-90874031D01*
X81375000Y-88800000D02*
X87375000Y-88800000D01*
X99265000Y-102715000D02*
X106500000Y-102715000D01*
X81375000Y-88800000D02*
X80850391Y-88275391D01*
X76436051Y-88937242D02*
X76436051Y-89336051D01*
X80850391Y-88275391D02*
X77097902Y-88275391D01*
%TO.N,SDA*%
X93375000Y-89800000D02*
X87375000Y-89800000D01*
X98174511Y-101750011D02*
X98174511Y-91074511D01*
X80275480Y-90453448D02*
X80275480Y-91624520D01*
X98500000Y-102075500D02*
X98174511Y-101750011D01*
X106500000Y-98905000D02*
X104955000Y-98905000D01*
X81375000Y-89800000D02*
X80928928Y-89800000D01*
X96900000Y-89800000D02*
X93375000Y-89800000D01*
X80928928Y-89800000D02*
X80275480Y-90453448D01*
X98174511Y-91074511D02*
X96900000Y-89800000D01*
X80275480Y-91624520D02*
X79374511Y-92525489D01*
X76775489Y-92525489D02*
X75100000Y-90850000D01*
X75512392Y-89887608D02*
X76280501Y-89887608D01*
X75100000Y-90850000D02*
X75100000Y-90300000D01*
X104955000Y-98905000D02*
X104950000Y-98900000D01*
X81375000Y-89800000D02*
X87375000Y-89800000D01*
X79374511Y-92525489D02*
X76775489Y-92525489D01*
X75100000Y-90300000D02*
X75512392Y-89887608D01*
%TO.N,LED_R*%
X124365000Y-96365000D02*
X125100000Y-97100000D01*
X123500000Y-96365000D02*
X124365000Y-96365000D01*
X125100000Y-97100000D02*
X125100000Y-97900000D01*
%TO.N,LED_G*%
X123500000Y-95095000D02*
X124145000Y-95095000D01*
X124145000Y-95095000D02*
X125200000Y-96150000D01*
%TO.N,RFM_CS*%
X106500000Y-93825000D02*
X107925000Y-93825000D01*
X107925000Y-93825000D02*
X108000000Y-93900000D01*
%TO.N,GPS_1PPS*%
X119950000Y-94850000D02*
X120975000Y-93825000D01*
X119950000Y-100650000D02*
X119950000Y-94850000D01*
X114570489Y-106029511D02*
X119950000Y-100650000D01*
X89720489Y-106029511D02*
X114570489Y-106029511D01*
X84250000Y-112000000D02*
X84250000Y-111500000D01*
X120975000Y-93825000D02*
X123500000Y-93825000D01*
X84250000Y-111500000D02*
X89720489Y-106029511D01*
%TO.N,GPS_FIX*%
X121905000Y-92555000D02*
X121900000Y-92550000D01*
X88750000Y-96000000D02*
X88750000Y-94350000D01*
X123500000Y-92555000D02*
X121905000Y-92555000D01*
%TO.N,RFM_RST*%
X118150000Y-94450000D02*
X121315000Y-91285000D01*
X111050000Y-94450000D02*
X118150000Y-94450000D01*
X121315000Y-91285000D02*
X123500000Y-91285000D01*
%TO.N,GPS_TX*%
X82750000Y-96000000D02*
X82750000Y-96550000D01*
X118175000Y-92225000D02*
X118175000Y-87745000D01*
X118200000Y-92250000D02*
X118175000Y-92225000D01*
X82750000Y-96550000D02*
X83800000Y-97600000D01*
%TO.N,GPS_RX*%
X82350000Y-97600000D02*
X82700000Y-97600000D01*
X81250000Y-96500000D02*
X82350000Y-97600000D01*
X116900000Y-91650000D02*
X116905000Y-91645000D01*
X81250000Y-96000000D02*
X81250000Y-96500000D01*
X116905000Y-91645000D02*
X116905000Y-87745000D01*
%TO.N,SCK*%
X109045000Y-95095000D02*
X106500000Y-95095000D01*
X109450000Y-95500000D02*
X109045000Y-95095000D01*
%TO.N,COPI*%
X106500000Y-103985000D02*
X104615000Y-103985000D01*
X104615000Y-103985000D02*
X104600000Y-104000000D01*
%TO.N,CIPO*%
X109201337Y-96365000D02*
X109374500Y-96538163D01*
X106500000Y-96365000D02*
X109201337Y-96365000D01*
%TO.N,RFM_DIO0*%
X109285000Y-92634011D02*
X109285000Y-87745000D01*
X110350000Y-93699011D02*
X109285000Y-92634011D01*
%TD*%
%TA.AperFunction,Conductor*%
%TO.N,GND*%
G36*
X82597120Y-86528002D02*
G01*
X82643613Y-86581658D01*
X82653717Y-86651932D01*
X82636259Y-86700116D01*
X82562470Y-86819823D01*
X82557885Y-86827262D01*
X82502203Y-86995139D01*
X82491500Y-87099600D01*
X82491500Y-87900400D01*
X82496113Y-87944856D01*
X82483249Y-88014675D01*
X82434678Y-88066458D01*
X82365823Y-88083761D01*
X82306649Y-88066314D01*
X82263601Y-88040855D01*
X82255990Y-88038644D01*
X82255988Y-88038643D01*
X82200656Y-88022568D01*
X82103831Y-87994438D01*
X82097426Y-87993934D01*
X82097421Y-87993933D01*
X82068958Y-87991693D01*
X82068950Y-87991693D01*
X82066502Y-87991500D01*
X81514595Y-87991500D01*
X81446474Y-87971498D01*
X81425500Y-87954595D01*
X81354043Y-87883138D01*
X81346503Y-87874852D01*
X81342391Y-87868373D01*
X81326024Y-87853003D01*
X81292740Y-87821748D01*
X81289898Y-87818993D01*
X81270161Y-87799256D01*
X81266964Y-87796776D01*
X81257942Y-87789071D01*
X81253788Y-87785170D01*
X81225712Y-87758805D01*
X81218766Y-87754986D01*
X81218763Y-87754984D01*
X81207957Y-87749043D01*
X81191438Y-87738192D01*
X81190974Y-87737832D01*
X81175432Y-87725777D01*
X81168163Y-87722632D01*
X81168159Y-87722629D01*
X81134854Y-87708217D01*
X81124204Y-87703000D01*
X81085451Y-87681696D01*
X81065828Y-87676658D01*
X81047125Y-87670254D01*
X81035811Y-87665358D01*
X81035810Y-87665358D01*
X81028536Y-87662210D01*
X81020713Y-87660971D01*
X81020703Y-87660968D01*
X80984867Y-87655292D01*
X80973247Y-87652886D01*
X80938102Y-87643863D01*
X80938101Y-87643863D01*
X80930421Y-87641891D01*
X80910167Y-87641891D01*
X80890456Y-87640340D01*
X80878277Y-87638411D01*
X80870448Y-87637171D01*
X80841177Y-87639938D01*
X80826430Y-87641332D01*
X80814572Y-87641891D01*
X77176670Y-87641891D01*
X77165487Y-87641364D01*
X77157994Y-87639689D01*
X77150068Y-87639938D01*
X77150067Y-87639938D01*
X77089904Y-87641829D01*
X77085946Y-87641891D01*
X77058046Y-87641891D01*
X77054056Y-87642395D01*
X77042222Y-87643327D01*
X76998013Y-87644717D01*
X76990397Y-87646930D01*
X76990395Y-87646930D01*
X76978554Y-87650370D01*
X76959195Y-87654379D01*
X76957885Y-87654545D01*
X76939105Y-87656917D01*
X76931739Y-87659833D01*
X76931733Y-87659835D01*
X76898000Y-87673191D01*
X76886770Y-87677036D01*
X76870730Y-87681696D01*
X76844309Y-87689372D01*
X76837486Y-87693407D01*
X76826868Y-87699686D01*
X76809115Y-87708383D01*
X76802327Y-87711071D01*
X76790285Y-87715839D01*
X76776607Y-87725777D01*
X76754514Y-87741828D01*
X76744597Y-87748342D01*
X76706540Y-87770849D01*
X76692219Y-87785170D01*
X76677186Y-87798010D01*
X76660795Y-87809919D01*
X76634890Y-87841233D01*
X76632614Y-87843984D01*
X76624624Y-87852765D01*
X76043793Y-88433595D01*
X76035514Y-88441129D01*
X76029033Y-88445242D01*
X75982408Y-88494893D01*
X75979653Y-88497735D01*
X75959916Y-88517472D01*
X75957436Y-88520669D01*
X75949733Y-88529689D01*
X75919465Y-88561921D01*
X75915646Y-88568867D01*
X75915644Y-88568870D01*
X75909703Y-88579676D01*
X75898852Y-88596195D01*
X75886437Y-88612201D01*
X75883292Y-88619470D01*
X75883289Y-88619474D01*
X75868877Y-88652779D01*
X75863660Y-88663429D01*
X75842356Y-88702182D01*
X75840385Y-88709857D01*
X75840385Y-88709858D01*
X75837318Y-88721804D01*
X75830914Y-88740508D01*
X75826807Y-88750000D01*
X75822870Y-88759097D01*
X75821631Y-88766920D01*
X75821628Y-88766930D01*
X75815952Y-88802766D01*
X75813546Y-88814386D01*
X75809573Y-88829862D01*
X75802551Y-88857212D01*
X75802551Y-88877466D01*
X75801000Y-88897176D01*
X75797831Y-88917185D01*
X75801166Y-88952460D01*
X75801992Y-88961203D01*
X75802551Y-88973061D01*
X75802551Y-89128108D01*
X75782549Y-89196229D01*
X75728893Y-89242722D01*
X75676551Y-89254108D01*
X75591155Y-89254108D01*
X75579971Y-89253581D01*
X75572483Y-89251907D01*
X75564560Y-89252156D01*
X75504425Y-89254046D01*
X75500467Y-89254108D01*
X75472536Y-89254108D01*
X75468621Y-89254603D01*
X75468617Y-89254603D01*
X75468559Y-89254611D01*
X75468530Y-89254614D01*
X75456688Y-89255547D01*
X75412502Y-89256935D01*
X75395136Y-89261980D01*
X75393050Y-89262586D01*
X75373698Y-89266594D01*
X75366627Y-89267488D01*
X75353595Y-89269134D01*
X75346226Y-89272051D01*
X75346224Y-89272052D01*
X75312489Y-89285408D01*
X75301261Y-89289253D01*
X75258799Y-89301590D01*
X75251977Y-89305624D01*
X75251971Y-89305627D01*
X75241360Y-89311902D01*
X75223610Y-89320598D01*
X75212148Y-89325136D01*
X75212143Y-89325139D01*
X75204775Y-89328056D01*
X75190414Y-89338490D01*
X75169017Y-89354035D01*
X75159099Y-89360551D01*
X75153036Y-89364137D01*
X75121029Y-89383066D01*
X75106705Y-89397390D01*
X75091673Y-89410229D01*
X75075285Y-89422136D01*
X75048359Y-89454684D01*
X75047104Y-89456201D01*
X75039114Y-89464981D01*
X74707747Y-89796348D01*
X74699461Y-89803888D01*
X74692982Y-89808000D01*
X74687557Y-89813777D01*
X74646357Y-89857651D01*
X74643602Y-89860493D01*
X74623865Y-89880230D01*
X74621385Y-89883427D01*
X74613682Y-89892447D01*
X74583414Y-89924679D01*
X74579595Y-89931625D01*
X74579593Y-89931628D01*
X74573652Y-89942434D01*
X74562801Y-89958953D01*
X74550386Y-89974959D01*
X74547241Y-89982228D01*
X74547238Y-89982232D01*
X74532826Y-90015537D01*
X74527609Y-90026187D01*
X74506305Y-90064940D01*
X74504334Y-90072615D01*
X74504334Y-90072616D01*
X74501267Y-90084562D01*
X74494863Y-90103266D01*
X74486819Y-90121855D01*
X74485580Y-90129678D01*
X74485577Y-90129688D01*
X74479901Y-90165524D01*
X74477495Y-90177144D01*
X74468472Y-90212289D01*
X74466500Y-90219970D01*
X74466500Y-90240224D01*
X74464949Y-90259934D01*
X74461780Y-90279943D01*
X74462526Y-90287835D01*
X74465941Y-90323961D01*
X74466500Y-90335819D01*
X74466500Y-90771233D01*
X74465973Y-90782416D01*
X74464298Y-90789909D01*
X74464547Y-90797835D01*
X74464547Y-90797836D01*
X74466438Y-90857986D01*
X74466500Y-90861945D01*
X74466500Y-90889856D01*
X74466997Y-90893790D01*
X74466997Y-90893791D01*
X74467005Y-90893856D01*
X74467938Y-90905693D01*
X74469327Y-90949889D01*
X74472436Y-90960589D01*
X74474978Y-90969339D01*
X74478987Y-90988700D01*
X74481526Y-91008797D01*
X74484445Y-91016168D01*
X74484445Y-91016170D01*
X74497804Y-91049912D01*
X74501649Y-91061142D01*
X74513982Y-91103593D01*
X74518015Y-91110412D01*
X74518017Y-91110417D01*
X74524293Y-91121028D01*
X74532988Y-91138776D01*
X74540448Y-91157617D01*
X74545110Y-91164033D01*
X74545110Y-91164034D01*
X74566436Y-91193387D01*
X74572952Y-91203307D01*
X74590692Y-91233303D01*
X74595458Y-91241362D01*
X74609779Y-91255683D01*
X74622619Y-91270716D01*
X74634528Y-91287107D01*
X74661425Y-91309358D01*
X74668605Y-91315298D01*
X74677384Y-91323288D01*
X76271832Y-92917736D01*
X76279376Y-92926026D01*
X76283489Y-92932507D01*
X76289266Y-92937932D01*
X76333156Y-92979147D01*
X76335998Y-92981902D01*
X76355719Y-93001623D01*
X76358914Y-93004101D01*
X76367936Y-93011807D01*
X76400168Y-93042075D01*
X76407117Y-93045895D01*
X76417921Y-93051835D01*
X76434445Y-93062688D01*
X76450448Y-93075102D01*
X76491032Y-93092665D01*
X76501662Y-93097872D01*
X76540429Y-93119184D01*
X76548106Y-93121155D01*
X76548111Y-93121157D01*
X76560047Y-93124221D01*
X76578755Y-93130626D01*
X76597344Y-93138670D01*
X76605172Y-93139910D01*
X76605179Y-93139912D01*
X76641013Y-93145588D01*
X76652633Y-93147994D01*
X76687778Y-93157017D01*
X76695459Y-93158989D01*
X76715713Y-93158989D01*
X76735423Y-93160540D01*
X76755432Y-93163709D01*
X76763324Y-93162963D01*
X76799450Y-93159548D01*
X76811308Y-93158989D01*
X77526334Y-93158989D01*
X77594455Y-93178991D01*
X77640948Y-93232647D01*
X77651461Y-93299798D01*
X77637132Y-93420859D01*
X77650457Y-93624151D01*
X77700605Y-93821610D01*
X77785898Y-94006624D01*
X77903479Y-94172997D01*
X77939578Y-94208163D01*
X78010269Y-94277027D01*
X78049410Y-94315157D01*
X78054206Y-94318362D01*
X78054209Y-94318364D01*
X78187837Y-94407651D01*
X78218803Y-94428342D01*
X78224106Y-94430620D01*
X78224109Y-94430622D01*
X78398504Y-94505548D01*
X78405987Y-94508763D01*
X78459802Y-94520940D01*
X78599055Y-94552450D01*
X78599060Y-94552451D01*
X78604692Y-94553725D01*
X78610463Y-94553952D01*
X78610465Y-94553952D01*
X78673470Y-94556427D01*
X78808263Y-94561723D01*
X79009883Y-94532490D01*
X79015347Y-94530635D01*
X79015352Y-94530634D01*
X79197327Y-94468862D01*
X79197332Y-94468860D01*
X79202799Y-94467004D01*
X79212844Y-94461379D01*
X79268464Y-94430230D01*
X79380551Y-94367458D01*
X79536657Y-94237626D01*
X79601821Y-94209445D01*
X79617226Y-94208500D01*
X81432930Y-94208500D01*
X81451880Y-94209933D01*
X81466115Y-94212099D01*
X81466119Y-94212099D01*
X81473349Y-94213199D01*
X81480641Y-94212606D01*
X81480644Y-94212606D01*
X81526018Y-94208915D01*
X81536233Y-94208500D01*
X81544293Y-94208500D01*
X81557583Y-94206951D01*
X81572507Y-94205211D01*
X81576882Y-94204778D01*
X81642339Y-94199454D01*
X81642342Y-94199453D01*
X81649637Y-94198860D01*
X81656601Y-94196604D01*
X81662560Y-94195413D01*
X81668415Y-94194029D01*
X81675681Y-94193182D01*
X81744327Y-94168265D01*
X81748455Y-94166848D01*
X81810936Y-94146607D01*
X81810938Y-94146606D01*
X81817899Y-94144351D01*
X81824154Y-94140555D01*
X81829628Y-94138049D01*
X81835058Y-94135330D01*
X81841937Y-94132833D01*
X81902976Y-94092814D01*
X81906680Y-94090477D01*
X81969107Y-94052595D01*
X81977484Y-94045197D01*
X81977508Y-94045224D01*
X81980500Y-94042571D01*
X81983733Y-94039868D01*
X81989852Y-94035856D01*
X82043128Y-93979617D01*
X82045506Y-93977175D01*
X82336853Y-93685828D01*
X82399165Y-93651802D01*
X82469980Y-93656867D01*
X82526816Y-93699414D01*
X82545471Y-93735046D01*
X82555729Y-93765791D01*
X82558450Y-93773946D01*
X82651522Y-93924348D01*
X82776697Y-94049305D01*
X82782927Y-94053145D01*
X82782928Y-94053146D01*
X82920666Y-94138049D01*
X82927262Y-94142115D01*
X82981401Y-94160072D01*
X83088611Y-94195632D01*
X83088613Y-94195632D01*
X83095139Y-94197797D01*
X83101975Y-94198497D01*
X83101978Y-94198498D01*
X83145031Y-94202909D01*
X83199600Y-94208500D01*
X84600400Y-94208500D01*
X84603646Y-94208163D01*
X84603650Y-94208163D01*
X84699308Y-94198238D01*
X84699312Y-94198237D01*
X84706166Y-94197526D01*
X84712702Y-94195345D01*
X84712704Y-94195345D01*
X84858788Y-94146607D01*
X84873946Y-94141550D01*
X85024348Y-94048478D01*
X85149305Y-93923303D01*
X85166250Y-93895814D01*
X85238275Y-93778968D01*
X85238276Y-93778966D01*
X85242115Y-93772738D01*
X85272302Y-93681727D01*
X85295632Y-93611389D01*
X85295632Y-93611387D01*
X85297797Y-93604861D01*
X85308500Y-93500400D01*
X85308500Y-92699600D01*
X85305149Y-92667303D01*
X85298238Y-92600692D01*
X85298237Y-92600688D01*
X85297526Y-92593834D01*
X85284453Y-92554648D01*
X85243868Y-92433002D01*
X85241550Y-92426054D01*
X85148478Y-92275652D01*
X85023303Y-92150695D01*
X84920192Y-92087136D01*
X84885694Y-92065871D01*
X86098456Y-92065871D01*
X86139107Y-92205790D01*
X86145352Y-92220221D01*
X86221911Y-92349678D01*
X86231551Y-92362104D01*
X86337896Y-92468449D01*
X86350322Y-92478089D01*
X86479779Y-92554648D01*
X86494210Y-92560893D01*
X86640065Y-92603269D01*
X86652667Y-92605570D01*
X86681084Y-92607807D01*
X86686014Y-92608000D01*
X87102885Y-92608000D01*
X87118124Y-92603525D01*
X87119329Y-92602135D01*
X87121000Y-92594452D01*
X87121000Y-92072115D01*
X87116525Y-92056876D01*
X87115135Y-92055671D01*
X87107452Y-92054000D01*
X86113122Y-92054000D01*
X86099591Y-92057973D01*
X86098456Y-92065871D01*
X84885694Y-92065871D01*
X84878968Y-92061725D01*
X84878966Y-92061724D01*
X84872738Y-92057885D01*
X84763209Y-92021556D01*
X84711389Y-92004368D01*
X84711387Y-92004368D01*
X84704861Y-92002203D01*
X84698025Y-92001503D01*
X84698022Y-92001502D01*
X84654969Y-91997091D01*
X84600400Y-91991500D01*
X84274070Y-91991500D01*
X84205949Y-91971498D01*
X84159456Y-91917842D01*
X84149352Y-91847568D01*
X84178846Y-91782988D01*
X84212499Y-91755569D01*
X84280551Y-91717458D01*
X84436657Y-91587626D01*
X84501821Y-91559445D01*
X84517226Y-91558500D01*
X86466246Y-91558500D01*
X86501398Y-91563503D01*
X86639989Y-91603767D01*
X86639993Y-91603768D01*
X86646169Y-91605562D01*
X86652574Y-91606066D01*
X86652579Y-91606067D01*
X86681042Y-91608307D01*
X86681050Y-91608307D01*
X86683498Y-91608500D01*
X88066502Y-91608500D01*
X88068950Y-91608307D01*
X88068958Y-91608307D01*
X88097421Y-91606067D01*
X88097426Y-91606066D01*
X88103831Y-91605562D01*
X88110007Y-91603768D01*
X88110011Y-91603767D01*
X88248602Y-91563503D01*
X88283754Y-91558500D01*
X92466246Y-91558500D01*
X92501398Y-91563503D01*
X92639989Y-91603767D01*
X92639993Y-91603768D01*
X92646169Y-91605562D01*
X92652574Y-91606066D01*
X92652579Y-91606067D01*
X92681042Y-91608307D01*
X92681050Y-91608307D01*
X92683498Y-91608500D01*
X93503000Y-91608500D01*
X93571121Y-91628502D01*
X93617614Y-91682158D01*
X93629000Y-91734500D01*
X93629000Y-92589884D01*
X93636396Y-92615072D01*
X93641500Y-92650570D01*
X93641500Y-94365500D01*
X93621498Y-94433621D01*
X93567842Y-94480114D01*
X93515500Y-94491500D01*
X92701866Y-94491500D01*
X92639684Y-94498255D01*
X92632288Y-94501027D01*
X92632282Y-94501029D01*
X92543517Y-94534306D01*
X92472710Y-94539489D01*
X92455059Y-94534306D01*
X92367609Y-94501522D01*
X92352351Y-94497895D01*
X92301486Y-94492369D01*
X92294672Y-94492000D01*
X92022115Y-94492000D01*
X92006876Y-94496475D01*
X92005671Y-94497865D01*
X92004000Y-94505548D01*
X92004000Y-97489884D01*
X92008475Y-97505123D01*
X92009865Y-97506328D01*
X92017548Y-97507999D01*
X92294669Y-97507999D01*
X92301490Y-97507629D01*
X92352352Y-97502105D01*
X92367606Y-97498478D01*
X92455059Y-97465694D01*
X92525866Y-97460511D01*
X92543517Y-97465694D01*
X92632282Y-97498971D01*
X92632288Y-97498973D01*
X92639684Y-97501745D01*
X92701866Y-97508500D01*
X93415500Y-97508500D01*
X93483621Y-97528502D01*
X93530114Y-97582158D01*
X93541500Y-97634500D01*
X93541500Y-100089760D01*
X93521498Y-100157881D01*
X93498577Y-100184492D01*
X93446824Y-100229878D01*
X93446820Y-100229882D01*
X93442478Y-100233690D01*
X93316351Y-100393681D01*
X93313662Y-100398792D01*
X93313660Y-100398795D01*
X93270243Y-100481317D01*
X93221492Y-100573978D01*
X93161078Y-100768543D01*
X93137132Y-100970859D01*
X93150457Y-101174151D01*
X93200605Y-101371610D01*
X93285898Y-101556624D01*
X93403479Y-101722997D01*
X93449058Y-101767398D01*
X93529772Y-101846026D01*
X93549410Y-101865157D01*
X93554206Y-101868362D01*
X93554209Y-101868364D01*
X93674415Y-101948683D01*
X93718803Y-101978342D01*
X93724106Y-101980620D01*
X93724109Y-101980622D01*
X93893558Y-102053423D01*
X93905987Y-102058763D01*
X93950950Y-102068937D01*
X94099055Y-102102450D01*
X94099060Y-102102451D01*
X94104692Y-102103725D01*
X94110463Y-102103952D01*
X94110465Y-102103952D01*
X94173470Y-102106427D01*
X94308263Y-102111723D01*
X94509883Y-102082490D01*
X94515347Y-102080635D01*
X94515352Y-102080634D01*
X94697327Y-102018862D01*
X94697332Y-102018860D01*
X94702799Y-102017004D01*
X94723670Y-102005316D01*
X94812622Y-101955500D01*
X94880551Y-101917458D01*
X95037186Y-101787186D01*
X95167458Y-101630551D01*
X95242903Y-101495834D01*
X95264180Y-101457842D01*
X95264181Y-101457840D01*
X95267004Y-101452799D01*
X95268860Y-101447332D01*
X95268862Y-101447327D01*
X95330634Y-101265352D01*
X95330635Y-101265347D01*
X95332490Y-101259883D01*
X95361723Y-101058263D01*
X95363249Y-101000000D01*
X95348233Y-100836577D01*
X95345137Y-100802880D01*
X95345136Y-100802877D01*
X95344608Y-100797126D01*
X95329874Y-100744884D01*
X95290875Y-100606606D01*
X95290874Y-100606604D01*
X95289307Y-100601047D01*
X95278680Y-100579496D01*
X95201756Y-100423510D01*
X95199201Y-100418329D01*
X95184614Y-100398795D01*
X95083542Y-100263443D01*
X95058810Y-100196893D01*
X95058500Y-100188054D01*
X95058500Y-97634500D01*
X95078502Y-97566379D01*
X95132158Y-97519886D01*
X95184500Y-97508500D01*
X95298134Y-97508500D01*
X95360316Y-97501745D01*
X95496705Y-97450615D01*
X95613261Y-97363261D01*
X95700615Y-97246705D01*
X95751745Y-97110316D01*
X95758500Y-97048134D01*
X95758500Y-96355641D01*
X95778502Y-96287520D01*
X95795405Y-96266546D01*
X97325916Y-94736035D01*
X97388228Y-94702009D01*
X97459043Y-94707074D01*
X97515879Y-94749621D01*
X97540690Y-94816141D01*
X97541011Y-94825130D01*
X97541011Y-101671244D01*
X97540484Y-101682427D01*
X97538809Y-101689920D01*
X97539058Y-101697846D01*
X97539058Y-101697847D01*
X97540949Y-101757997D01*
X97541011Y-101761956D01*
X97541011Y-101789867D01*
X97541508Y-101793801D01*
X97541508Y-101793802D01*
X97541516Y-101793867D01*
X97542449Y-101805704D01*
X97543838Y-101849900D01*
X97549489Y-101869350D01*
X97553498Y-101888711D01*
X97556037Y-101908808D01*
X97558956Y-101916179D01*
X97558956Y-101916181D01*
X97572315Y-101949923D01*
X97576160Y-101961153D01*
X97585679Y-101993917D01*
X97589992Y-102042241D01*
X97586496Y-102075500D01*
X97587186Y-102082065D01*
X97600200Y-102205882D01*
X97606458Y-102265428D01*
X97665473Y-102447056D01*
X97760960Y-102612444D01*
X97888747Y-102754366D01*
X97987843Y-102826364D01*
X98024187Y-102852769D01*
X98043248Y-102866618D01*
X98049276Y-102869302D01*
X98049278Y-102869303D01*
X98211681Y-102941609D01*
X98217712Y-102944294D01*
X98310774Y-102964075D01*
X98398056Y-102982628D01*
X98398061Y-102982628D01*
X98404513Y-102984000D01*
X98595487Y-102984000D01*
X98595487Y-102985962D01*
X98656101Y-102997046D01*
X98707888Y-103045445D01*
X98719969Y-103065873D01*
X98734293Y-103080197D01*
X98747128Y-103095224D01*
X98759039Y-103111618D01*
X98765147Y-103116671D01*
X98765149Y-103116673D01*
X98780233Y-103129151D01*
X98786170Y-103134385D01*
X98822637Y-103168629D01*
X98825481Y-103171385D01*
X98845230Y-103191135D01*
X98848427Y-103193615D01*
X98857447Y-103201318D01*
X98889679Y-103231586D01*
X98896625Y-103235405D01*
X98896628Y-103235407D01*
X98907434Y-103241348D01*
X98923953Y-103252199D01*
X98939959Y-103264614D01*
X98947228Y-103267759D01*
X98947232Y-103267762D01*
X98980537Y-103282174D01*
X98991187Y-103287391D01*
X99029940Y-103308695D01*
X99037615Y-103310666D01*
X99037616Y-103310666D01*
X99049562Y-103313733D01*
X99068267Y-103320137D01*
X99086855Y-103328181D01*
X99094678Y-103329420D01*
X99094688Y-103329423D01*
X99130524Y-103335099D01*
X99142144Y-103337505D01*
X99177289Y-103346528D01*
X99184970Y-103348500D01*
X99205224Y-103348500D01*
X99224934Y-103350051D01*
X99244943Y-103353220D01*
X99252835Y-103352474D01*
X99264263Y-103351394D01*
X99288962Y-103349059D01*
X99300819Y-103348500D01*
X103708861Y-103348500D01*
X103776982Y-103368502D01*
X103823475Y-103422158D01*
X103833579Y-103492432D01*
X103817981Y-103537498D01*
X103765473Y-103628444D01*
X103706458Y-103810072D01*
X103705768Y-103816633D01*
X103705768Y-103816635D01*
X103693595Y-103932452D01*
X103686496Y-104000000D01*
X103687186Y-104006565D01*
X103705389Y-104179753D01*
X103706458Y-104189928D01*
X103765473Y-104371556D01*
X103768776Y-104377278D01*
X103768777Y-104377279D01*
X103787933Y-104410458D01*
X103860960Y-104536944D01*
X103865378Y-104541851D01*
X103865379Y-104541852D01*
X103876221Y-104553893D01*
X103988747Y-104678866D01*
X104049488Y-104722997D01*
X104131728Y-104782748D01*
X104143248Y-104791118D01*
X104149276Y-104793802D01*
X104149278Y-104793803D01*
X104222176Y-104826259D01*
X104317712Y-104868794D01*
X104411112Y-104888647D01*
X104498056Y-104907128D01*
X104498061Y-104907128D01*
X104504513Y-104908500D01*
X104695487Y-104908500D01*
X104701939Y-104907128D01*
X104701944Y-104907128D01*
X104803152Y-104885615D01*
X104839824Y-104877820D01*
X104910614Y-104883222D01*
X104967246Y-104926039D01*
X104986916Y-104965569D01*
X104996475Y-104998124D01*
X104997865Y-104999329D01*
X105005548Y-105001000D01*
X107989884Y-105001000D01*
X108005123Y-104996525D01*
X108006328Y-104995135D01*
X108007999Y-104987452D01*
X108007999Y-104760331D01*
X108007629Y-104753510D01*
X108002105Y-104702648D01*
X107998480Y-104687400D01*
X107990061Y-104664943D01*
X107984878Y-104594136D01*
X107990058Y-104576490D01*
X108001745Y-104545316D01*
X108008500Y-104483134D01*
X108008500Y-103486866D01*
X108001745Y-103424684D01*
X107990328Y-103394229D01*
X107985145Y-103323423D01*
X107990326Y-103305776D01*
X108001745Y-103275316D01*
X108008500Y-103213134D01*
X108008500Y-102216866D01*
X108001745Y-102154684D01*
X107990328Y-102124229D01*
X107985145Y-102053423D01*
X107990326Y-102035776D01*
X108001745Y-102005316D01*
X108008500Y-101943134D01*
X108008500Y-100946866D01*
X108008094Y-100943124D01*
X108002598Y-100892540D01*
X108001745Y-100884684D01*
X107990328Y-100854229D01*
X107985145Y-100783423D01*
X107990326Y-100765776D01*
X108001745Y-100735316D01*
X108008500Y-100673134D01*
X108008500Y-99676866D01*
X108001745Y-99614684D01*
X107990328Y-99584229D01*
X107985145Y-99513423D01*
X107990326Y-99495776D01*
X108001745Y-99465316D01*
X108008500Y-99403134D01*
X108008500Y-98406866D01*
X108001745Y-98344684D01*
X107990328Y-98314229D01*
X107985145Y-98243423D01*
X107990326Y-98225776D01*
X108001745Y-98195316D01*
X108008500Y-98133134D01*
X108008500Y-97136866D01*
X108008132Y-97133480D01*
X108008015Y-97131317D01*
X108024302Y-97062214D01*
X108075364Y-97012886D01*
X108133830Y-96998500D01*
X108518485Y-96998500D01*
X108586606Y-97018502D01*
X108627604Y-97061500D01*
X108635460Y-97075107D01*
X108639878Y-97080014D01*
X108639879Y-97080015D01*
X108726201Y-97175885D01*
X108763247Y-97217029D01*
X108917748Y-97329281D01*
X108923776Y-97331965D01*
X108923778Y-97331966D01*
X109041521Y-97384388D01*
X109092212Y-97406957D01*
X109185612Y-97426810D01*
X109272556Y-97445291D01*
X109272561Y-97445291D01*
X109279013Y-97446663D01*
X109469987Y-97446663D01*
X109476439Y-97445291D01*
X109476444Y-97445291D01*
X109563388Y-97426810D01*
X109656788Y-97406957D01*
X109707479Y-97384388D01*
X109825222Y-97331966D01*
X109825224Y-97331965D01*
X109831252Y-97329281D01*
X109985753Y-97217029D01*
X110022799Y-97175885D01*
X110109121Y-97080015D01*
X110109122Y-97080014D01*
X110113540Y-97075107D01*
X110200022Y-96925316D01*
X110205723Y-96915442D01*
X110205724Y-96915441D01*
X110209027Y-96909719D01*
X110268042Y-96728091D01*
X110272668Y-96684083D01*
X110287314Y-96544728D01*
X110288004Y-96538163D01*
X110268954Y-96356914D01*
X110281726Y-96287076D01*
X110330228Y-96235229D01*
X110399061Y-96217835D01*
X110466371Y-96240416D01*
X110483359Y-96254649D01*
X111404595Y-97175885D01*
X111438621Y-97238197D01*
X111441500Y-97264980D01*
X111441500Y-103133609D01*
X111421498Y-103201730D01*
X111398580Y-103228338D01*
X111396821Y-103229881D01*
X111392478Y-103233690D01*
X111388911Y-103238215D01*
X111388906Y-103238220D01*
X111302331Y-103348040D01*
X111266351Y-103393681D01*
X111263662Y-103398792D01*
X111263660Y-103398795D01*
X111238948Y-103445765D01*
X111171492Y-103573978D01*
X111111078Y-103768543D01*
X111087132Y-103970859D01*
X111100457Y-104174151D01*
X111150605Y-104371610D01*
X111235898Y-104556624D01*
X111353479Y-104722997D01*
X111499410Y-104865157D01*
X111504206Y-104868362D01*
X111504209Y-104868364D01*
X111557589Y-104904031D01*
X111668803Y-104978342D01*
X111674106Y-104980620D01*
X111674109Y-104980622D01*
X111814459Y-105040921D01*
X111855987Y-105058763D01*
X111906386Y-105070167D01*
X112049055Y-105102450D01*
X112049060Y-105102451D01*
X112054692Y-105103725D01*
X112060463Y-105103952D01*
X112060465Y-105103952D01*
X112123470Y-105106427D01*
X112258263Y-105111723D01*
X112459883Y-105082490D01*
X112465347Y-105080635D01*
X112465352Y-105080634D01*
X112647327Y-105018862D01*
X112647332Y-105018860D01*
X112652799Y-105017004D01*
X112661926Y-105011893D01*
X112727567Y-104975132D01*
X112830551Y-104917458D01*
X112987186Y-104787186D01*
X113117458Y-104630551D01*
X113183883Y-104511941D01*
X113214180Y-104457842D01*
X113214181Y-104457840D01*
X113217004Y-104452799D01*
X113218860Y-104447332D01*
X113218862Y-104447327D01*
X113280634Y-104265352D01*
X113280635Y-104265347D01*
X113282490Y-104259883D01*
X113311723Y-104058263D01*
X113313249Y-104000000D01*
X113296401Y-103816635D01*
X113295137Y-103802880D01*
X113295136Y-103802877D01*
X113294608Y-103797126D01*
X113269679Y-103708735D01*
X113240875Y-103606606D01*
X113240874Y-103606604D01*
X113239307Y-103601047D01*
X113228680Y-103579496D01*
X113151756Y-103423510D01*
X113149201Y-103418329D01*
X113127408Y-103389144D01*
X113083118Y-103329833D01*
X113027305Y-103255091D01*
X113001878Y-103231586D01*
X112998971Y-103228899D01*
X112962526Y-103167971D01*
X112958500Y-103136375D01*
X112958500Y-100735944D01*
X112978502Y-100667823D01*
X113032158Y-100621330D01*
X113102432Y-100611226D01*
X113160065Y-100635118D01*
X113246351Y-100699786D01*
X113261946Y-100708324D01*
X113382394Y-100753478D01*
X113397649Y-100757105D01*
X113448514Y-100762631D01*
X113455328Y-100763000D01*
X115727885Y-100763000D01*
X115743124Y-100758525D01*
X115744329Y-100757135D01*
X115746000Y-100749452D01*
X115746000Y-97627000D01*
X115766002Y-97558879D01*
X115819658Y-97512386D01*
X115872000Y-97501000D01*
X118989884Y-97501000D01*
X119005123Y-97496525D01*
X119006328Y-97495135D01*
X119007999Y-97487452D01*
X119007999Y-95210331D01*
X119007629Y-95203510D01*
X119002105Y-95152648D01*
X118998479Y-95137396D01*
X118953324Y-95016946D01*
X118944786Y-95001351D01*
X118868285Y-94899276D01*
X118855724Y-94886715D01*
X118831097Y-94868258D01*
X118788582Y-94811399D01*
X118783556Y-94740580D01*
X118817567Y-94678337D01*
X120799640Y-92696264D01*
X120861952Y-92662238D01*
X120932767Y-92667303D01*
X120989603Y-92709850D01*
X121008568Y-92746422D01*
X121065473Y-92921556D01*
X121068776Y-92927278D01*
X121068777Y-92927279D01*
X121111492Y-93001264D01*
X121128230Y-93070260D01*
X121105009Y-93137352D01*
X121049202Y-93181239D01*
X121006332Y-93190202D01*
X120967001Y-93191438D01*
X120963043Y-93191500D01*
X120935144Y-93191500D01*
X120931154Y-93192004D01*
X120919320Y-93192936D01*
X120875111Y-93194326D01*
X120867497Y-93196538D01*
X120867492Y-93196539D01*
X120855659Y-93199977D01*
X120836296Y-93203988D01*
X120816203Y-93206526D01*
X120808836Y-93209443D01*
X120808831Y-93209444D01*
X120775092Y-93222802D01*
X120763865Y-93226646D01*
X120721407Y-93238982D01*
X120714581Y-93243019D01*
X120703972Y-93249293D01*
X120686224Y-93257988D01*
X120667383Y-93265448D01*
X120660967Y-93270110D01*
X120660966Y-93270110D01*
X120631613Y-93291436D01*
X120621693Y-93297952D01*
X120590465Y-93316420D01*
X120590462Y-93316422D01*
X120583638Y-93320458D01*
X120569317Y-93334779D01*
X120554284Y-93347619D01*
X120537893Y-93359528D01*
X120532843Y-93365632D01*
X120532838Y-93365637D01*
X120509707Y-93393598D01*
X120501717Y-93402379D01*
X119557742Y-94346353D01*
X119549463Y-94353887D01*
X119542982Y-94358000D01*
X119496357Y-94407651D01*
X119493602Y-94410493D01*
X119473865Y-94430230D01*
X119471385Y-94433427D01*
X119463682Y-94442447D01*
X119433414Y-94474679D01*
X119429595Y-94481625D01*
X119429593Y-94481628D01*
X119423652Y-94492434D01*
X119412801Y-94508953D01*
X119400386Y-94524959D01*
X119397241Y-94532228D01*
X119397238Y-94532232D01*
X119382826Y-94565537D01*
X119377609Y-94576187D01*
X119356305Y-94614940D01*
X119354334Y-94622615D01*
X119354334Y-94622616D01*
X119351267Y-94634562D01*
X119344863Y-94653266D01*
X119336819Y-94671855D01*
X119335580Y-94679678D01*
X119335577Y-94679688D01*
X119329901Y-94715524D01*
X119327495Y-94727144D01*
X119318472Y-94762289D01*
X119316500Y-94769970D01*
X119316500Y-94790224D01*
X119314949Y-94809934D01*
X119311780Y-94829943D01*
X119312526Y-94837835D01*
X119315941Y-94873961D01*
X119316500Y-94885819D01*
X119316500Y-100335405D01*
X119296498Y-100403526D01*
X119279595Y-100424500D01*
X119209192Y-100494903D01*
X119146880Y-100528929D01*
X119076065Y-100523864D01*
X119019229Y-100481317D01*
X118994418Y-100414797D01*
X118997514Y-100376662D01*
X119002105Y-100357352D01*
X119007631Y-100306486D01*
X119008000Y-100299672D01*
X119008000Y-98027115D01*
X119003525Y-98011876D01*
X119002135Y-98010671D01*
X118994452Y-98009000D01*
X116272115Y-98009000D01*
X116256876Y-98013475D01*
X116255671Y-98014865D01*
X116254000Y-98022548D01*
X116254000Y-100744884D01*
X116258475Y-100760123D01*
X116259865Y-100761328D01*
X116267548Y-100762999D01*
X118544669Y-100762999D01*
X118551490Y-100762629D01*
X118602354Y-100757105D01*
X118621665Y-100752514D01*
X118692565Y-100756217D01*
X118750207Y-100797665D01*
X118776291Y-100863696D01*
X118762535Y-100933347D01*
X118739903Y-100964192D01*
X114344989Y-105359106D01*
X114282677Y-105393132D01*
X114255894Y-105396011D01*
X90646937Y-105396011D01*
X90578816Y-105376009D01*
X90532323Y-105322353D01*
X90522219Y-105252079D01*
X90537818Y-105207011D01*
X90537997Y-105206702D01*
X90609636Y-105082619D01*
X90714862Y-104822176D01*
X90731359Y-104756010D01*
X90781753Y-104553893D01*
X90781754Y-104553888D01*
X90782817Y-104549624D01*
X90784096Y-104537460D01*
X90811719Y-104274636D01*
X90811719Y-104274633D01*
X90812178Y-104270267D01*
X90812025Y-104265873D01*
X90802529Y-103993939D01*
X90802528Y-103993933D01*
X90802375Y-103989542D01*
X90800098Y-103976625D01*
X90754360Y-103717236D01*
X90753598Y-103712913D01*
X90666797Y-103445765D01*
X90655943Y-103423510D01*
X90607472Y-103324132D01*
X90543660Y-103193298D01*
X90541205Y-103189659D01*
X90541202Y-103189653D01*
X90457711Y-103065873D01*
X90386585Y-102960424D01*
X90372062Y-102944294D01*
X90286900Y-102849713D01*
X90198629Y-102751678D01*
X89983450Y-102571121D01*
X89745236Y-102422269D01*
X89488625Y-102308018D01*
X89218610Y-102230593D01*
X89214260Y-102229982D01*
X89214257Y-102229981D01*
X89096766Y-102213469D01*
X88940448Y-102191500D01*
X88729854Y-102191500D01*
X88727668Y-102191653D01*
X88727664Y-102191653D01*
X88524173Y-102205882D01*
X88524168Y-102205883D01*
X88519788Y-102206189D01*
X88245030Y-102264591D01*
X88240901Y-102266094D01*
X88240897Y-102266095D01*
X87985219Y-102359154D01*
X87985215Y-102359156D01*
X87981074Y-102360663D01*
X87733058Y-102492536D01*
X87729499Y-102495122D01*
X87729497Y-102495123D01*
X87561263Y-102617352D01*
X87505808Y-102657642D01*
X87303748Y-102852769D01*
X87130812Y-103074118D01*
X87128616Y-103077922D01*
X87128611Y-103077929D01*
X87041117Y-103229474D01*
X86990364Y-103317381D01*
X86885138Y-103577824D01*
X86884073Y-103582097D01*
X86884072Y-103582099D01*
X86825472Y-103817132D01*
X86817183Y-103850376D01*
X86816724Y-103854744D01*
X86816723Y-103854749D01*
X86788281Y-104125364D01*
X86787822Y-104129733D01*
X86787975Y-104134121D01*
X86787975Y-104134127D01*
X86796452Y-104376856D01*
X86797625Y-104410458D01*
X86798387Y-104414781D01*
X86798388Y-104414788D01*
X86821404Y-104545316D01*
X86846402Y-104687087D01*
X86933203Y-104954235D01*
X86935131Y-104958188D01*
X86935133Y-104958193D01*
X86966136Y-105021758D01*
X87056340Y-105206702D01*
X87058795Y-105210341D01*
X87058798Y-105210347D01*
X87086947Y-105252079D01*
X87213415Y-105439576D01*
X87401371Y-105648322D01*
X87616550Y-105828879D01*
X87854764Y-105977731D01*
X88111375Y-106091982D01*
X88381390Y-106169407D01*
X88385743Y-106170019D01*
X88385744Y-106170019D01*
X88397058Y-106171609D01*
X88461732Y-106200897D01*
X88500306Y-106260500D01*
X88500531Y-106331496D01*
X88468618Y-106385478D01*
X86433281Y-108420814D01*
X84399500Y-110454595D01*
X84337188Y-110488621D01*
X84310405Y-110491500D01*
X83701866Y-110491500D01*
X83639684Y-110498255D01*
X83632288Y-110501027D01*
X83632282Y-110501029D01*
X83543517Y-110534306D01*
X83472710Y-110539489D01*
X83455059Y-110534306D01*
X83367609Y-110501522D01*
X83352351Y-110497895D01*
X83301486Y-110492369D01*
X83294672Y-110492000D01*
X83022115Y-110492000D01*
X83006876Y-110496475D01*
X83005671Y-110497865D01*
X83004000Y-110505548D01*
X83004000Y-112128000D01*
X82983998Y-112196121D01*
X82930342Y-112242614D01*
X82878000Y-112254000D01*
X82622000Y-112254000D01*
X82553879Y-112233998D01*
X82507386Y-112180342D01*
X82496000Y-112128000D01*
X82496000Y-110510116D01*
X82491525Y-110494877D01*
X82490135Y-110493672D01*
X82482452Y-110492001D01*
X82205331Y-110492001D01*
X82198510Y-110492371D01*
X82147648Y-110497895D01*
X82132394Y-110501522D01*
X82044941Y-110534306D01*
X81974134Y-110539489D01*
X81956483Y-110534306D01*
X81867718Y-110501029D01*
X81867712Y-110501027D01*
X81860316Y-110498255D01*
X81798134Y-110491500D01*
X80701866Y-110491500D01*
X80639684Y-110498255D01*
X80503295Y-110549385D01*
X80386739Y-110636739D01*
X80299385Y-110753295D01*
X80248255Y-110889684D01*
X80241500Y-110951866D01*
X80241500Y-113048134D01*
X80248255Y-113110316D01*
X80299385Y-113246705D01*
X80332159Y-113290435D01*
X80357007Y-113356941D01*
X80341954Y-113426324D01*
X80291780Y-113476554D01*
X80231333Y-113492000D01*
X72898207Y-113492000D01*
X72830086Y-113471998D01*
X72783593Y-113418342D01*
X72773489Y-113348068D01*
X72802983Y-113283488D01*
X72831064Y-113259380D01*
X72902288Y-113214528D01*
X72902291Y-113214526D01*
X72906567Y-113211833D01*
X73013324Y-113117715D01*
X73084858Y-113054650D01*
X73084861Y-113054647D01*
X73088655Y-113051302D01*
X73216854Y-112895229D01*
X73239526Y-112867628D01*
X73239528Y-112867625D01*
X73242734Y-112863722D01*
X73364841Y-112653922D01*
X73385040Y-112601301D01*
X73424642Y-112498134D01*
X75091500Y-112498134D01*
X75098255Y-112560316D01*
X75149385Y-112696705D01*
X75236739Y-112813261D01*
X75353295Y-112900615D01*
X75489684Y-112951745D01*
X75551866Y-112958500D01*
X77348134Y-112958500D01*
X77410316Y-112951745D01*
X77546705Y-112900615D01*
X77663261Y-112813261D01*
X77750615Y-112696705D01*
X77801745Y-112560316D01*
X77808500Y-112498134D01*
X77808500Y-111366371D01*
X77828502Y-111298250D01*
X77845405Y-111277276D01*
X90738911Y-98383770D01*
X90753323Y-98371384D01*
X90764918Y-98362851D01*
X90764923Y-98362846D01*
X90770818Y-98358508D01*
X90775557Y-98352930D01*
X90775560Y-98352927D01*
X90805035Y-98318232D01*
X90811965Y-98310716D01*
X90817660Y-98305021D01*
X90822518Y-98298880D01*
X90835281Y-98282749D01*
X90838072Y-98279345D01*
X90880591Y-98229297D01*
X90880592Y-98229295D01*
X90885333Y-98223715D01*
X90888661Y-98217199D01*
X90892028Y-98212150D01*
X90895195Y-98207021D01*
X90899734Y-98201284D01*
X90930655Y-98135125D01*
X90932561Y-98131225D01*
X90945341Y-98106197D01*
X90965769Y-98066192D01*
X90967508Y-98059084D01*
X90969607Y-98053441D01*
X90971524Y-98047678D01*
X90974622Y-98041050D01*
X90977521Y-98027115D01*
X90988042Y-97976531D01*
X90989487Y-97969583D01*
X90990457Y-97965299D01*
X91006473Y-97899845D01*
X91007808Y-97894390D01*
X91008500Y-97883236D01*
X91008536Y-97883238D01*
X91008775Y-97879245D01*
X91009149Y-97875053D01*
X91010640Y-97867885D01*
X91008546Y-97790479D01*
X91008500Y-97787072D01*
X91008500Y-97627418D01*
X91028502Y-97559297D01*
X91082158Y-97512804D01*
X91148108Y-97502155D01*
X91198514Y-97507631D01*
X91205328Y-97508000D01*
X91477885Y-97508000D01*
X91493124Y-97503525D01*
X91494329Y-97502135D01*
X91496000Y-97494452D01*
X91496000Y-94510116D01*
X91491525Y-94494877D01*
X91490135Y-94493672D01*
X91482452Y-94492001D01*
X91205331Y-94492001D01*
X91198510Y-94492371D01*
X91147648Y-94497895D01*
X91132394Y-94501522D01*
X91044941Y-94534306D01*
X90974134Y-94539489D01*
X90956483Y-94534306D01*
X90867718Y-94501029D01*
X90867712Y-94501027D01*
X90860316Y-94498255D01*
X90798134Y-94491500D01*
X89788569Y-94491500D01*
X89720448Y-94471498D01*
X89673955Y-94417842D01*
X89665030Y-94363170D01*
X89662814Y-94363170D01*
X89662814Y-94356565D01*
X89663504Y-94350000D01*
X89662814Y-94343435D01*
X89662814Y-94336830D01*
X89665243Y-94336830D01*
X89676029Y-94277837D01*
X89724528Y-94225988D01*
X89788569Y-94208500D01*
X90600400Y-94208500D01*
X90603646Y-94208163D01*
X90603650Y-94208163D01*
X90699308Y-94198238D01*
X90699312Y-94198237D01*
X90706166Y-94197526D01*
X90712702Y-94195345D01*
X90712704Y-94195345D01*
X90858788Y-94146607D01*
X90873946Y-94141550D01*
X91024348Y-94048478D01*
X91149305Y-93923303D01*
X91166250Y-93895814D01*
X91238275Y-93778968D01*
X91238276Y-93778966D01*
X91242115Y-93772738D01*
X91272302Y-93681727D01*
X91295632Y-93611389D01*
X91295632Y-93611387D01*
X91297797Y-93604861D01*
X91308500Y-93500400D01*
X91308500Y-92699600D01*
X91305149Y-92667303D01*
X91298238Y-92600692D01*
X91298237Y-92600688D01*
X91297526Y-92593834D01*
X91284453Y-92554648D01*
X91243868Y-92433002D01*
X91241550Y-92426054D01*
X91148478Y-92275652D01*
X91023303Y-92150695D01*
X90920192Y-92087136D01*
X90885694Y-92065871D01*
X92098456Y-92065871D01*
X92139107Y-92205790D01*
X92145352Y-92220221D01*
X92221911Y-92349678D01*
X92231551Y-92362104D01*
X92337896Y-92468449D01*
X92350322Y-92478089D01*
X92479779Y-92554648D01*
X92494210Y-92560893D01*
X92640065Y-92603269D01*
X92652667Y-92605570D01*
X92681084Y-92607807D01*
X92686014Y-92608000D01*
X93102885Y-92608000D01*
X93118124Y-92603525D01*
X93119329Y-92602135D01*
X93121000Y-92594452D01*
X93121000Y-92072115D01*
X93116525Y-92056876D01*
X93115135Y-92055671D01*
X93107452Y-92054000D01*
X92113122Y-92054000D01*
X92099591Y-92057973D01*
X92098456Y-92065871D01*
X90885694Y-92065871D01*
X90878968Y-92061725D01*
X90878966Y-92061724D01*
X90872738Y-92057885D01*
X90763209Y-92021556D01*
X90711389Y-92004368D01*
X90711387Y-92004368D01*
X90704861Y-92002203D01*
X90698025Y-92001503D01*
X90698022Y-92001502D01*
X90654969Y-91997091D01*
X90600400Y-91991500D01*
X89199600Y-91991500D01*
X89196354Y-91991837D01*
X89196350Y-91991837D01*
X89100692Y-92001762D01*
X89100688Y-92001763D01*
X89093834Y-92002474D01*
X89087298Y-92004655D01*
X89087296Y-92004655D01*
X88955194Y-92048728D01*
X88926054Y-92058450D01*
X88838966Y-92112342D01*
X88835212Y-92114665D01*
X88766760Y-92133503D01*
X88698991Y-92112342D01*
X88663105Y-92075943D01*
X88651520Y-92058029D01*
X88642630Y-92054000D01*
X87647115Y-92054000D01*
X87631876Y-92058475D01*
X87630671Y-92059865D01*
X87629000Y-92067548D01*
X87629000Y-92589884D01*
X87633475Y-92605123D01*
X87634865Y-92606328D01*
X87642548Y-92607999D01*
X88063984Y-92607999D01*
X88068920Y-92607805D01*
X88097336Y-92605570D01*
X88109931Y-92603270D01*
X88255790Y-92560893D01*
X88270226Y-92554646D01*
X88306649Y-92533106D01*
X88375466Y-92515647D01*
X88442797Y-92538165D01*
X88487265Y-92593510D01*
X88496131Y-92654402D01*
X88491500Y-92699600D01*
X88491500Y-93388789D01*
X88471498Y-93456910D01*
X88416749Y-93503896D01*
X88299278Y-93556197D01*
X88299276Y-93556198D01*
X88293248Y-93558882D01*
X88287907Y-93562762D01*
X88287906Y-93562763D01*
X88266751Y-93578133D01*
X88138747Y-93671134D01*
X88134326Y-93676044D01*
X88134325Y-93676045D01*
X88040310Y-93780460D01*
X88010960Y-93813056D01*
X87915473Y-93978444D01*
X87856458Y-94160072D01*
X87855768Y-94166633D01*
X87855768Y-94166635D01*
X87844050Y-94278124D01*
X87836496Y-94350000D01*
X87837186Y-94356565D01*
X87837186Y-94363170D01*
X87834757Y-94363170D01*
X87823971Y-94422163D01*
X87775472Y-94474012D01*
X87711431Y-94491500D01*
X86701866Y-94491500D01*
X86639684Y-94498255D01*
X86632288Y-94501027D01*
X86632282Y-94501029D01*
X86544229Y-94534039D01*
X86473422Y-94539222D01*
X86455771Y-94534039D01*
X86367718Y-94501029D01*
X86367712Y-94501027D01*
X86360316Y-94498255D01*
X86298134Y-94491500D01*
X85201866Y-94491500D01*
X85139684Y-94498255D01*
X85132288Y-94501027D01*
X85132282Y-94501029D01*
X85043517Y-94534306D01*
X84972710Y-94539489D01*
X84955059Y-94534306D01*
X84867609Y-94501522D01*
X84852351Y-94497895D01*
X84801486Y-94492369D01*
X84794672Y-94492000D01*
X84522115Y-94492000D01*
X84506876Y-94496475D01*
X84505671Y-94497865D01*
X84504000Y-94505548D01*
X84504000Y-96128000D01*
X84483998Y-96196121D01*
X84430342Y-96242614D01*
X84378000Y-96254000D01*
X84122000Y-96254000D01*
X84053879Y-96233998D01*
X84007386Y-96180342D01*
X83996000Y-96128000D01*
X83996000Y-94510116D01*
X83991525Y-94494877D01*
X83990135Y-94493672D01*
X83982452Y-94492001D01*
X83705331Y-94492001D01*
X83698510Y-94492371D01*
X83647648Y-94497895D01*
X83632394Y-94501522D01*
X83544941Y-94534306D01*
X83474134Y-94539489D01*
X83456483Y-94534306D01*
X83367718Y-94501029D01*
X83367712Y-94501027D01*
X83360316Y-94498255D01*
X83298134Y-94491500D01*
X82201866Y-94491500D01*
X82139684Y-94498255D01*
X82132288Y-94501027D01*
X82132282Y-94501029D01*
X82044229Y-94534039D01*
X81973422Y-94539222D01*
X81955771Y-94534039D01*
X81867718Y-94501029D01*
X81867712Y-94501027D01*
X81860316Y-94498255D01*
X81798134Y-94491500D01*
X80701866Y-94491500D01*
X80639684Y-94498255D01*
X80503295Y-94549385D01*
X80386739Y-94636739D01*
X80299385Y-94753295D01*
X80248255Y-94889684D01*
X80241500Y-94951866D01*
X80241500Y-97048134D01*
X80248255Y-97110316D01*
X80299385Y-97246705D01*
X80386739Y-97363261D01*
X80503295Y-97450615D01*
X80639684Y-97501745D01*
X80701866Y-97508500D01*
X81310405Y-97508500D01*
X81378526Y-97528502D01*
X81399500Y-97545405D01*
X81846348Y-97992253D01*
X81853888Y-98000539D01*
X81858000Y-98007018D01*
X81885983Y-98033295D01*
X81905478Y-98051602D01*
X81928344Y-98080452D01*
X81960960Y-98136944D01*
X81965378Y-98141851D01*
X81965379Y-98141852D01*
X82073241Y-98261645D01*
X82088747Y-98278866D01*
X82150000Y-98323369D01*
X82216087Y-98371384D01*
X82243248Y-98391118D01*
X82249276Y-98393802D01*
X82249278Y-98393803D01*
X82333332Y-98431226D01*
X82417712Y-98468794D01*
X82511113Y-98488647D01*
X82598056Y-98507128D01*
X82598061Y-98507128D01*
X82604513Y-98508500D01*
X82795487Y-98508500D01*
X82801939Y-98507128D01*
X82801944Y-98507128D01*
X82888887Y-98488647D01*
X82982288Y-98468794D01*
X83066668Y-98431226D01*
X83150722Y-98393803D01*
X83150724Y-98393802D01*
X83156752Y-98391118D01*
X83175940Y-98377177D01*
X83242808Y-98353319D01*
X83311959Y-98369400D01*
X83324060Y-98377177D01*
X83343248Y-98391118D01*
X83349276Y-98393802D01*
X83349278Y-98393803D01*
X83433332Y-98431226D01*
X83517712Y-98468794D01*
X83611113Y-98488647D01*
X83698056Y-98507128D01*
X83698061Y-98507128D01*
X83704513Y-98508500D01*
X83895487Y-98508500D01*
X83901939Y-98507128D01*
X83901944Y-98507128D01*
X83988887Y-98488647D01*
X84082288Y-98468794D01*
X84166668Y-98431226D01*
X84250722Y-98393803D01*
X84250724Y-98393802D01*
X84256752Y-98391118D01*
X84283914Y-98371384D01*
X84350000Y-98323369D01*
X84411253Y-98278866D01*
X84426759Y-98261645D01*
X84534621Y-98141852D01*
X84534622Y-98141851D01*
X84539040Y-98136944D01*
X84600880Y-98029834D01*
X84631223Y-97977279D01*
X84631224Y-97977278D01*
X84634527Y-97971556D01*
X84693542Y-97789928D01*
X84711681Y-97617344D01*
X84738694Y-97551687D01*
X84796916Y-97511057D01*
X84823387Y-97505251D01*
X84852352Y-97502105D01*
X84867606Y-97498478D01*
X84955059Y-97465694D01*
X85025866Y-97460511D01*
X85043517Y-97465694D01*
X85132282Y-97498971D01*
X85132288Y-97498973D01*
X85139684Y-97501745D01*
X85201866Y-97508500D01*
X86298134Y-97508500D01*
X86360316Y-97501745D01*
X86367712Y-97498973D01*
X86367718Y-97498971D01*
X86455771Y-97465961D01*
X86526578Y-97460778D01*
X86544229Y-97465961D01*
X86632282Y-97498971D01*
X86632288Y-97498973D01*
X86639684Y-97501745D01*
X86701866Y-97508500D01*
X87798134Y-97508500D01*
X87860316Y-97501745D01*
X87867712Y-97498973D01*
X87867718Y-97498971D01*
X87955771Y-97465961D01*
X88026578Y-97460778D01*
X88044229Y-97465961D01*
X88132282Y-97498971D01*
X88132288Y-97498973D01*
X88139684Y-97501745D01*
X88201866Y-97508500D01*
X89164629Y-97508500D01*
X89232750Y-97528502D01*
X89279243Y-97582158D01*
X89289347Y-97652432D01*
X89259853Y-97717012D01*
X89253724Y-97723595D01*
X78012984Y-108964335D01*
X77950672Y-108998361D01*
X77879857Y-108993296D01*
X77823021Y-108950749D01*
X77798313Y-108885564D01*
X77794781Y-108842603D01*
X77793096Y-108832424D01*
X77741214Y-108625875D01*
X77737894Y-108616124D01*
X77652972Y-108420814D01*
X77648105Y-108411739D01*
X77532426Y-108232926D01*
X77526136Y-108224757D01*
X77382806Y-108067240D01*
X77375273Y-108060215D01*
X77208139Y-107928222D01*
X77199552Y-107922517D01*
X77013117Y-107819599D01*
X77003705Y-107815369D01*
X76802959Y-107744280D01*
X76792988Y-107741646D01*
X76721837Y-107728972D01*
X76708540Y-107730432D01*
X76704000Y-107744989D01*
X76704000Y-109188000D01*
X76683998Y-109256121D01*
X76630342Y-109302614D01*
X76578000Y-109314000D01*
X75133225Y-109314000D01*
X75119694Y-109317973D01*
X75118257Y-109327966D01*
X75148565Y-109462446D01*
X75151645Y-109472275D01*
X75231770Y-109669603D01*
X75236413Y-109678794D01*
X75347694Y-109860388D01*
X75353777Y-109868699D01*
X75493213Y-110029667D01*
X75500577Y-110036879D01*
X75505522Y-110040985D01*
X75545156Y-110099889D01*
X75546653Y-110170870D01*
X75509537Y-110231392D01*
X75469264Y-110255910D01*
X75361705Y-110296232D01*
X75361704Y-110296233D01*
X75353295Y-110299385D01*
X75236739Y-110386739D01*
X75149385Y-110503295D01*
X75098255Y-110639684D01*
X75091500Y-110701866D01*
X75091500Y-112498134D01*
X73424642Y-112498134D01*
X73450020Y-112432022D01*
X73450021Y-112432018D01*
X73451833Y-112427298D01*
X73490416Y-112242614D01*
X73500440Y-112194631D01*
X73500440Y-112194627D01*
X73501474Y-112189680D01*
X73512486Y-111947183D01*
X73484585Y-111706044D01*
X73418490Y-111472468D01*
X73416356Y-111467892D01*
X73416354Y-111467886D01*
X73318038Y-111257046D01*
X73318036Y-111257042D01*
X73315901Y-111252464D01*
X73179456Y-111051693D01*
X73012668Y-110875319D01*
X73008641Y-110872240D01*
X72823846Y-110730953D01*
X72823842Y-110730950D01*
X72819826Y-110727880D01*
X72605891Y-110613169D01*
X72376369Y-110534138D01*
X72277022Y-110516978D01*
X72141074Y-110493496D01*
X72141068Y-110493495D01*
X72137164Y-110492821D01*
X72133203Y-110492641D01*
X72133202Y-110492641D01*
X72109494Y-110491564D01*
X72109475Y-110491564D01*
X72108075Y-110491500D01*
X71938999Y-110491500D01*
X71936491Y-110491702D01*
X71936486Y-110491702D01*
X71763076Y-110505654D01*
X71763071Y-110505655D01*
X71758035Y-110506060D01*
X71753127Y-110507266D01*
X71753124Y-110507266D01*
X71571593Y-110551854D01*
X71522294Y-110563963D01*
X71517642Y-110565938D01*
X71517638Y-110565939D01*
X71410252Y-110611522D01*
X71298844Y-110658812D01*
X71294560Y-110661510D01*
X71097712Y-110785472D01*
X71097709Y-110785474D01*
X71093433Y-110788167D01*
X71089639Y-110791512D01*
X70915142Y-110945350D01*
X70915139Y-110945353D01*
X70911345Y-110948698D01*
X70757266Y-111136278D01*
X70754725Y-111140644D01*
X70754720Y-111140651D01*
X70742899Y-111160962D01*
X70691345Y-111209776D01*
X70621585Y-111222969D01*
X70555767Y-111196352D01*
X70514787Y-111138377D01*
X70508000Y-111097582D01*
X70508000Y-108794183D01*
X75114389Y-108794183D01*
X75115912Y-108802607D01*
X75128292Y-108806000D01*
X76177885Y-108806000D01*
X76193124Y-108801525D01*
X76194329Y-108800135D01*
X76196000Y-108792452D01*
X76196000Y-107743102D01*
X76192082Y-107729758D01*
X76177806Y-107727771D01*
X76139324Y-107733660D01*
X76129288Y-107736051D01*
X75926868Y-107802212D01*
X75917359Y-107806209D01*
X75728463Y-107904542D01*
X75719738Y-107910036D01*
X75549433Y-108037905D01*
X75541726Y-108044748D01*
X75394590Y-108198717D01*
X75388104Y-108206727D01*
X75268098Y-108382649D01*
X75263000Y-108391623D01*
X75173338Y-108584783D01*
X75169775Y-108594470D01*
X75114389Y-108794183D01*
X70508000Y-108794183D01*
X70508000Y-88897983D01*
X70528002Y-88829862D01*
X70581658Y-88783369D01*
X70651932Y-88773265D01*
X70716512Y-88802759D01*
X70738211Y-88827159D01*
X70820544Y-88948307D01*
X70987332Y-89124681D01*
X70991358Y-89127759D01*
X70991359Y-89127760D01*
X71176154Y-89269047D01*
X71176158Y-89269050D01*
X71180174Y-89272120D01*
X71184632Y-89274510D01*
X71184633Y-89274511D01*
X71209038Y-89287597D01*
X71394109Y-89386831D01*
X71623631Y-89465862D01*
X71714457Y-89481550D01*
X71858926Y-89506504D01*
X71858932Y-89506505D01*
X71862836Y-89507179D01*
X71866797Y-89507359D01*
X71866798Y-89507359D01*
X71890506Y-89508436D01*
X71890525Y-89508436D01*
X71891925Y-89508500D01*
X72061001Y-89508500D01*
X72063509Y-89508298D01*
X72063514Y-89508298D01*
X72236924Y-89494346D01*
X72236929Y-89494345D01*
X72241965Y-89493940D01*
X72246873Y-89492734D01*
X72246876Y-89492734D01*
X72472792Y-89437244D01*
X72477706Y-89436037D01*
X72482358Y-89434062D01*
X72482362Y-89434061D01*
X72642703Y-89366000D01*
X72701156Y-89341188D01*
X72786257Y-89287597D01*
X72902288Y-89214528D01*
X72902291Y-89214526D01*
X72906567Y-89211833D01*
X72997606Y-89131572D01*
X73084858Y-89054650D01*
X73084861Y-89054647D01*
X73088655Y-89051302D01*
X73096893Y-89041273D01*
X73239526Y-88867628D01*
X73239528Y-88867625D01*
X73242734Y-88863722D01*
X73355137Y-88670595D01*
X73362299Y-88658290D01*
X73362300Y-88658288D01*
X73364841Y-88653922D01*
X73403823Y-88552369D01*
X73450020Y-88432022D01*
X73450021Y-88432018D01*
X73451833Y-88427298D01*
X73458812Y-88393893D01*
X73500440Y-88194631D01*
X73500440Y-88194627D01*
X73501474Y-88189680D01*
X73512486Y-87947183D01*
X73510699Y-87931739D01*
X73485167Y-87711071D01*
X73485166Y-87711067D01*
X73484585Y-87706044D01*
X73479868Y-87689372D01*
X73419866Y-87477331D01*
X73418490Y-87472468D01*
X73416356Y-87467892D01*
X73416354Y-87467886D01*
X73318038Y-87257046D01*
X73318036Y-87257042D01*
X73315901Y-87252464D01*
X73179456Y-87051693D01*
X73012668Y-86875319D01*
X72827956Y-86734096D01*
X72785988Y-86676831D01*
X72781643Y-86605968D01*
X72816299Y-86544004D01*
X72878953Y-86510614D01*
X72904485Y-86508000D01*
X82528999Y-86508000D01*
X82597120Y-86528002D01*
G37*
%TD.AperFunction*%
%TA.AperFunction,Conductor*%
G36*
X100642121Y-106683013D02*
G01*
X100688614Y-106736669D01*
X100700000Y-106789011D01*
X100700000Y-113366000D01*
X100679998Y-113434121D01*
X100626342Y-113480614D01*
X100574000Y-113492000D01*
X95768667Y-113492000D01*
X95700546Y-113471998D01*
X95654053Y-113418342D01*
X95643949Y-113348068D01*
X95667841Y-113290435D01*
X95700615Y-113246705D01*
X95751745Y-113110316D01*
X95758500Y-113048134D01*
X95758500Y-110951866D01*
X95751745Y-110889684D01*
X95700615Y-110753295D01*
X95613261Y-110636739D01*
X95496705Y-110549385D01*
X95360316Y-110498255D01*
X95298134Y-110491500D01*
X94201866Y-110491500D01*
X94139684Y-110498255D01*
X94132288Y-110501027D01*
X94132282Y-110501029D01*
X94043517Y-110534306D01*
X93972710Y-110539489D01*
X93955059Y-110534306D01*
X93867609Y-110501522D01*
X93852351Y-110497895D01*
X93801486Y-110492369D01*
X93794672Y-110492000D01*
X93522115Y-110492000D01*
X93506876Y-110496475D01*
X93505671Y-110497865D01*
X93504000Y-110505548D01*
X93504000Y-112128000D01*
X93483998Y-112196121D01*
X93430342Y-112242614D01*
X93378000Y-112254000D01*
X93122000Y-112254000D01*
X93053879Y-112233998D01*
X93007386Y-112180342D01*
X92996000Y-112128000D01*
X92996000Y-110510116D01*
X92991525Y-110494877D01*
X92990135Y-110493672D01*
X92982452Y-110492001D01*
X92705331Y-110492001D01*
X92698510Y-110492371D01*
X92647648Y-110497895D01*
X92632394Y-110501522D01*
X92544941Y-110534306D01*
X92474134Y-110539489D01*
X92456483Y-110534306D01*
X92367718Y-110501029D01*
X92367712Y-110501027D01*
X92360316Y-110498255D01*
X92298134Y-110491500D01*
X91201866Y-110491500D01*
X91139684Y-110498255D01*
X91132288Y-110501027D01*
X91132282Y-110501029D01*
X91044229Y-110534039D01*
X90973422Y-110539222D01*
X90955771Y-110534039D01*
X90867718Y-110501029D01*
X90867712Y-110501027D01*
X90860316Y-110498255D01*
X90798134Y-110491500D01*
X89701866Y-110491500D01*
X89639684Y-110498255D01*
X89632288Y-110501027D01*
X89632282Y-110501029D01*
X89544229Y-110534039D01*
X89473422Y-110539222D01*
X89455771Y-110534039D01*
X89367718Y-110501029D01*
X89367712Y-110501027D01*
X89360316Y-110498255D01*
X89298134Y-110491500D01*
X88201866Y-110491500D01*
X88139684Y-110498255D01*
X88132288Y-110501027D01*
X88132282Y-110501029D01*
X88044229Y-110534039D01*
X87973422Y-110539222D01*
X87955771Y-110534039D01*
X87867718Y-110501029D01*
X87867712Y-110501027D01*
X87860316Y-110498255D01*
X87798134Y-110491500D01*
X86701866Y-110491500D01*
X86639684Y-110498255D01*
X86632288Y-110501027D01*
X86632282Y-110501029D01*
X86544229Y-110534039D01*
X86473422Y-110539222D01*
X86455771Y-110534039D01*
X86388883Y-110508964D01*
X86332118Y-110466323D01*
X86307418Y-110399761D01*
X86322625Y-110330412D01*
X86344017Y-110301887D01*
X89945989Y-106699916D01*
X90008301Y-106665890D01*
X90035084Y-106663011D01*
X100574000Y-106663011D01*
X100642121Y-106683013D01*
G37*
%TD.AperFunction*%
%TA.AperFunction,Conductor*%
G36*
X127169914Y-86528002D02*
G01*
X127216407Y-86581658D01*
X127226511Y-86651932D01*
X127197017Y-86716512D01*
X127168936Y-86740620D01*
X127097712Y-86785472D01*
X127097709Y-86785474D01*
X127093433Y-86788167D01*
X127089639Y-86791512D01*
X126915142Y-86945350D01*
X126915139Y-86945353D01*
X126911345Y-86948698D01*
X126908135Y-86952606D01*
X126908134Y-86952607D01*
X126779652Y-87109025D01*
X126757266Y-87136278D01*
X126754724Y-87140646D01*
X126660643Y-87302293D01*
X126635159Y-87346078D01*
X126633346Y-87350801D01*
X126557312Y-87548879D01*
X126548167Y-87572702D01*
X126547133Y-87577652D01*
X126547132Y-87577655D01*
X126500252Y-87802060D01*
X126498526Y-87810320D01*
X126487514Y-88052817D01*
X126488095Y-88057837D01*
X126488095Y-88057841D01*
X126514514Y-88286167D01*
X126515415Y-88293956D01*
X126516791Y-88298820D01*
X126516792Y-88298823D01*
X126554929Y-88433595D01*
X126581510Y-88527532D01*
X126583644Y-88532108D01*
X126583646Y-88532114D01*
X126681962Y-88742954D01*
X126684099Y-88747536D01*
X126686940Y-88751717D01*
X126686941Y-88751718D01*
X126702494Y-88774603D01*
X126820544Y-88948307D01*
X126987332Y-89124681D01*
X126991358Y-89127759D01*
X126991359Y-89127760D01*
X127176154Y-89269047D01*
X127176158Y-89269050D01*
X127180174Y-89272120D01*
X127184632Y-89274510D01*
X127184633Y-89274511D01*
X127209038Y-89287597D01*
X127394109Y-89386831D01*
X127623631Y-89465862D01*
X127714457Y-89481550D01*
X127858926Y-89506504D01*
X127858932Y-89506505D01*
X127862836Y-89507179D01*
X127866797Y-89507359D01*
X127866798Y-89507359D01*
X127890506Y-89508436D01*
X127890525Y-89508436D01*
X127891925Y-89508500D01*
X128061001Y-89508500D01*
X128063509Y-89508298D01*
X128063514Y-89508298D01*
X128236924Y-89494346D01*
X128236929Y-89494345D01*
X128241965Y-89493940D01*
X128246873Y-89492734D01*
X128246876Y-89492734D01*
X128472792Y-89437244D01*
X128477706Y-89436037D01*
X128482358Y-89434062D01*
X128482362Y-89434061D01*
X128642703Y-89366000D01*
X128701156Y-89341188D01*
X128786257Y-89287597D01*
X128902288Y-89214528D01*
X128902291Y-89214526D01*
X128906567Y-89211833D01*
X128997606Y-89131572D01*
X129084858Y-89054650D01*
X129084861Y-89054647D01*
X129088655Y-89051302D01*
X129096893Y-89041273D01*
X129239526Y-88867628D01*
X129239528Y-88867625D01*
X129242734Y-88863722D01*
X129245275Y-88859356D01*
X129245280Y-88859349D01*
X129257101Y-88839038D01*
X129308655Y-88790224D01*
X129378415Y-88777031D01*
X129444233Y-88803648D01*
X129485213Y-88861623D01*
X129492000Y-88902418D01*
X129492000Y-100167656D01*
X129471998Y-100235777D01*
X129418342Y-100282270D01*
X129352829Y-100292966D01*
X129351949Y-100292873D01*
X129345487Y-100291500D01*
X129154513Y-100291500D01*
X129148061Y-100292872D01*
X129148056Y-100292872D01*
X129023988Y-100319244D01*
X128967712Y-100331206D01*
X128961676Y-100333893D01*
X128955402Y-100335932D01*
X128954614Y-100333507D01*
X128895587Y-100341410D01*
X128848612Y-100324132D01*
X128786154Y-100285633D01*
X128786149Y-100285631D01*
X128779920Y-100281791D01*
X128614809Y-100227026D01*
X128607973Y-100226326D01*
X128607970Y-100226325D01*
X128556474Y-100221049D01*
X128512072Y-100216500D01*
X127837928Y-100216500D01*
X127834682Y-100216837D01*
X127834678Y-100216837D01*
X127740765Y-100226581D01*
X127740761Y-100226582D01*
X127733907Y-100227293D01*
X127727371Y-100229474D01*
X127727369Y-100229474D01*
X127594605Y-100273768D01*
X127568893Y-100282346D01*
X127420969Y-100373884D01*
X127388769Y-100406141D01*
X127326488Y-100440220D01*
X127255668Y-100435218D01*
X127210578Y-100406296D01*
X127182871Y-100378637D01*
X127171460Y-100369625D01*
X127035937Y-100286088D01*
X127022759Y-100279944D01*
X126871234Y-100229685D01*
X126857868Y-100226819D01*
X126765230Y-100217328D01*
X126758815Y-100217000D01*
X126697115Y-100217000D01*
X126681876Y-100221475D01*
X126680671Y-100222865D01*
X126679000Y-100230548D01*
X126679000Y-102164885D01*
X126683475Y-102180124D01*
X126684865Y-102181329D01*
X126692548Y-102183000D01*
X126758766Y-102183000D01*
X126765282Y-102182663D01*
X126859132Y-102172925D01*
X126872528Y-102170032D01*
X127023953Y-102119512D01*
X127037115Y-102113347D01*
X127172492Y-102029574D01*
X127183895Y-102020536D01*
X127210525Y-101993860D01*
X127272807Y-101959781D01*
X127343627Y-101964784D01*
X127388715Y-101993705D01*
X127421997Y-102026929D01*
X127428227Y-102030769D01*
X127428228Y-102030770D01*
X127559558Y-102111723D01*
X127570080Y-102118209D01*
X127735191Y-102172974D01*
X127742027Y-102173674D01*
X127742030Y-102173675D01*
X127789370Y-102178525D01*
X127837928Y-102183500D01*
X128512072Y-102183500D01*
X128515318Y-102183163D01*
X128515322Y-102183163D01*
X128609235Y-102173419D01*
X128609239Y-102173418D01*
X128616093Y-102172707D01*
X128622629Y-102170526D01*
X128622631Y-102170526D01*
X128692283Y-102147288D01*
X128781107Y-102117654D01*
X128787328Y-102113805D01*
X128787331Y-102113803D01*
X128848439Y-102075989D01*
X128916891Y-102057152D01*
X128954913Y-102065572D01*
X128955402Y-102064068D01*
X128961676Y-102066107D01*
X128967712Y-102068794D01*
X128999261Y-102075500D01*
X129148056Y-102107128D01*
X129148061Y-102107128D01*
X129154513Y-102108500D01*
X129345487Y-102108500D01*
X129351949Y-102107127D01*
X129352829Y-102107034D01*
X129422668Y-102119806D01*
X129474515Y-102168308D01*
X129492000Y-102232344D01*
X129492000Y-103167656D01*
X129471998Y-103235777D01*
X129418342Y-103282270D01*
X129352829Y-103292966D01*
X129351949Y-103292873D01*
X129345487Y-103291500D01*
X129154513Y-103291500D01*
X129148061Y-103292872D01*
X129148056Y-103292872D01*
X129038314Y-103316199D01*
X128967712Y-103331206D01*
X128961676Y-103333893D01*
X128955402Y-103335932D01*
X128954614Y-103333507D01*
X128895587Y-103341410D01*
X128848612Y-103324132D01*
X128786154Y-103285633D01*
X128786149Y-103285631D01*
X128779920Y-103281791D01*
X128614809Y-103227026D01*
X128607973Y-103226326D01*
X128607970Y-103226325D01*
X128556474Y-103221049D01*
X128512072Y-103216500D01*
X127837928Y-103216500D01*
X127834682Y-103216837D01*
X127834678Y-103216837D01*
X127740765Y-103226581D01*
X127740761Y-103226582D01*
X127733907Y-103227293D01*
X127727371Y-103229474D01*
X127727369Y-103229474D01*
X127594605Y-103273768D01*
X127568893Y-103282346D01*
X127420969Y-103373884D01*
X127388769Y-103406141D01*
X127326488Y-103440220D01*
X127255668Y-103435218D01*
X127210578Y-103406296D01*
X127182871Y-103378637D01*
X127171460Y-103369625D01*
X127035937Y-103286088D01*
X127022759Y-103279944D01*
X126871234Y-103229685D01*
X126857868Y-103226819D01*
X126765230Y-103217328D01*
X126758815Y-103217000D01*
X126697115Y-103217000D01*
X126681876Y-103221475D01*
X126680671Y-103222865D01*
X126679000Y-103230548D01*
X126679000Y-105164885D01*
X126683475Y-105180124D01*
X126684865Y-105181329D01*
X126692548Y-105183000D01*
X126758766Y-105183000D01*
X126765282Y-105182663D01*
X126859132Y-105172925D01*
X126872528Y-105170032D01*
X127023953Y-105119512D01*
X127037115Y-105113347D01*
X127172492Y-105029574D01*
X127183895Y-105020536D01*
X127210525Y-104993860D01*
X127272807Y-104959781D01*
X127343627Y-104964784D01*
X127388715Y-104993705D01*
X127421997Y-105026929D01*
X127428227Y-105030769D01*
X127428228Y-105030770D01*
X127559558Y-105111723D01*
X127570080Y-105118209D01*
X127735191Y-105172974D01*
X127742027Y-105173674D01*
X127742030Y-105173675D01*
X127789370Y-105178525D01*
X127837928Y-105183500D01*
X128512072Y-105183500D01*
X128515318Y-105183163D01*
X128515322Y-105183163D01*
X128609235Y-105173419D01*
X128609239Y-105173418D01*
X128616093Y-105172707D01*
X128622629Y-105170526D01*
X128622631Y-105170526D01*
X128683879Y-105150092D01*
X128781107Y-105117654D01*
X128787328Y-105113805D01*
X128787331Y-105113803D01*
X128848439Y-105075989D01*
X128916891Y-105057152D01*
X128954913Y-105065572D01*
X128955402Y-105064068D01*
X128961676Y-105066107D01*
X128967712Y-105068794D01*
X129001562Y-105075989D01*
X129148056Y-105107128D01*
X129148061Y-105107128D01*
X129154513Y-105108500D01*
X129345487Y-105108500D01*
X129351949Y-105107127D01*
X129352829Y-105107034D01*
X129422668Y-105119806D01*
X129474515Y-105168308D01*
X129492000Y-105232344D01*
X129492000Y-106574000D01*
X129471998Y-106642121D01*
X129418342Y-106688614D01*
X129366000Y-106700000D01*
X115105756Y-106700000D01*
X115037635Y-106679998D01*
X114991142Y-106626342D01*
X114981038Y-106556068D01*
X115008671Y-106493685D01*
X115035787Y-106460907D01*
X115043777Y-106452127D01*
X115746235Y-105749669D01*
X121992001Y-105749669D01*
X121992371Y-105756490D01*
X121997895Y-105807352D01*
X122001521Y-105822604D01*
X122046676Y-105943054D01*
X122055214Y-105958649D01*
X122131715Y-106060724D01*
X122144276Y-106073285D01*
X122246351Y-106149786D01*
X122261946Y-106158324D01*
X122382394Y-106203478D01*
X122397649Y-106207105D01*
X122448514Y-106212631D01*
X122455328Y-106213000D01*
X123227885Y-106213000D01*
X123243124Y-106208525D01*
X123244329Y-106207135D01*
X123246000Y-106199452D01*
X123246000Y-106194884D01*
X123754000Y-106194884D01*
X123758475Y-106210123D01*
X123759865Y-106211328D01*
X123767548Y-106212999D01*
X124544669Y-106212999D01*
X124551490Y-106212629D01*
X124602352Y-106207105D01*
X124617604Y-106203479D01*
X124738054Y-106158324D01*
X124753649Y-106149786D01*
X124855724Y-106073285D01*
X124868285Y-106060724D01*
X124944786Y-105958649D01*
X124953324Y-105943054D01*
X124998478Y-105822606D01*
X125002105Y-105807351D01*
X125007631Y-105756486D01*
X125008000Y-105749672D01*
X125008000Y-105527115D01*
X125003525Y-105511876D01*
X125002135Y-105510671D01*
X124994452Y-105509000D01*
X123772115Y-105509000D01*
X123756876Y-105513475D01*
X123755671Y-105514865D01*
X123754000Y-105522548D01*
X123754000Y-106194884D01*
X123246000Y-106194884D01*
X123246000Y-105527115D01*
X123241525Y-105511876D01*
X123240135Y-105510671D01*
X123232452Y-105509000D01*
X122010116Y-105509000D01*
X121994877Y-105513475D01*
X121993672Y-105514865D01*
X121992001Y-105522548D01*
X121992001Y-105749669D01*
X115746235Y-105749669D01*
X118302610Y-103193294D01*
X118364922Y-103159268D01*
X118435737Y-103164333D01*
X118492573Y-103206880D01*
X118500821Y-103219383D01*
X118510960Y-103236944D01*
X118515378Y-103241851D01*
X118515379Y-103241852D01*
X118634261Y-103373884D01*
X118638747Y-103378866D01*
X118691630Y-103417288D01*
X118787396Y-103486866D01*
X118793248Y-103491118D01*
X118799276Y-103493802D01*
X118799278Y-103493803D01*
X118821148Y-103503540D01*
X118967712Y-103568794D01*
X119061112Y-103588647D01*
X119148056Y-103607128D01*
X119148061Y-103607128D01*
X119154513Y-103608500D01*
X119345487Y-103608500D01*
X119351939Y-103607128D01*
X119351944Y-103607128D01*
X119438888Y-103588647D01*
X119532288Y-103568794D01*
X119678852Y-103503540D01*
X119700722Y-103493803D01*
X119700724Y-103493802D01*
X119706752Y-103491118D01*
X119712605Y-103486866D01*
X119808370Y-103417288D01*
X119859476Y-103380157D01*
X119859478Y-103380156D01*
X119861253Y-103378866D01*
X119861489Y-103379191D01*
X119922009Y-103350147D01*
X119942313Y-103348500D01*
X120431455Y-103348500D01*
X120499576Y-103368502D01*
X120546069Y-103422158D01*
X120556173Y-103492432D01*
X120542964Y-103533166D01*
X120521492Y-103573978D01*
X120461078Y-103768543D01*
X120437132Y-103970859D01*
X120450457Y-104174151D01*
X120500605Y-104371610D01*
X120585898Y-104556624D01*
X120703479Y-104722997D01*
X120849410Y-104865157D01*
X120854206Y-104868362D01*
X120854209Y-104868364D01*
X120907589Y-104904031D01*
X121018803Y-104978342D01*
X121024106Y-104980620D01*
X121024109Y-104980622D01*
X121164459Y-105040921D01*
X121205987Y-105058763D01*
X121256386Y-105070167D01*
X121399055Y-105102450D01*
X121399060Y-105102451D01*
X121404692Y-105103725D01*
X121410463Y-105103952D01*
X121410465Y-105103952D01*
X121473470Y-105106427D01*
X121608263Y-105111723D01*
X121809883Y-105082490D01*
X121815347Y-105080635D01*
X121815352Y-105080634D01*
X121988794Y-105021758D01*
X122002799Y-105017004D01*
X122007836Y-105014183D01*
X122012980Y-105011893D01*
X122064227Y-105001000D01*
X124989884Y-105001000D01*
X125005123Y-104996525D01*
X125006328Y-104995135D01*
X125007999Y-104987452D01*
X125007999Y-104760331D01*
X125007629Y-104753510D01*
X125002105Y-104702648D01*
X124998480Y-104687400D01*
X124990061Y-104664943D01*
X124984878Y-104594136D01*
X124990058Y-104576490D01*
X125001745Y-104545316D01*
X125008431Y-104483766D01*
X125392000Y-104483766D01*
X125392337Y-104490282D01*
X125402075Y-104584132D01*
X125404968Y-104597528D01*
X125455488Y-104748953D01*
X125461653Y-104762115D01*
X125545426Y-104897492D01*
X125554460Y-104908890D01*
X125667129Y-105021363D01*
X125678540Y-105030375D01*
X125814063Y-105113912D01*
X125827241Y-105120056D01*
X125978766Y-105170315D01*
X125992132Y-105173181D01*
X126084770Y-105182672D01*
X126091185Y-105183000D01*
X126152885Y-105183000D01*
X126168124Y-105178525D01*
X126169329Y-105177135D01*
X126171000Y-105169452D01*
X126171000Y-104472115D01*
X126166525Y-104456876D01*
X126165135Y-104455671D01*
X126157452Y-104454000D01*
X125410115Y-104454000D01*
X125394876Y-104458475D01*
X125393671Y-104459865D01*
X125392000Y-104467548D01*
X125392000Y-104483766D01*
X125008431Y-104483766D01*
X125008500Y-104483134D01*
X125008500Y-103927885D01*
X125392000Y-103927885D01*
X125396475Y-103943124D01*
X125397865Y-103944329D01*
X125405548Y-103946000D01*
X126152885Y-103946000D01*
X126168124Y-103941525D01*
X126169329Y-103940135D01*
X126171000Y-103932452D01*
X126171000Y-103235115D01*
X126166525Y-103219876D01*
X126165135Y-103218671D01*
X126157452Y-103217000D01*
X126091234Y-103217000D01*
X126084718Y-103217337D01*
X125990868Y-103227075D01*
X125977472Y-103229968D01*
X125826047Y-103280488D01*
X125812885Y-103286653D01*
X125677508Y-103370426D01*
X125666110Y-103379460D01*
X125553637Y-103492129D01*
X125544625Y-103503540D01*
X125461088Y-103639063D01*
X125454944Y-103652241D01*
X125404685Y-103803766D01*
X125401819Y-103817132D01*
X125392328Y-103909770D01*
X125392000Y-103916185D01*
X125392000Y-103927885D01*
X125008500Y-103927885D01*
X125008500Y-103486866D01*
X125001745Y-103424684D01*
X124990328Y-103394229D01*
X124985145Y-103323423D01*
X124990326Y-103305776D01*
X125001745Y-103275316D01*
X125008500Y-103213134D01*
X125008500Y-102216866D01*
X125001745Y-102154684D01*
X124990328Y-102124229D01*
X124985145Y-102053423D01*
X124990326Y-102035776D01*
X125001745Y-102005316D01*
X125008500Y-101943134D01*
X125008500Y-101483766D01*
X125392000Y-101483766D01*
X125392337Y-101490282D01*
X125402075Y-101584132D01*
X125404968Y-101597528D01*
X125455488Y-101748953D01*
X125461653Y-101762115D01*
X125545426Y-101897492D01*
X125554460Y-101908890D01*
X125667129Y-102021363D01*
X125678540Y-102030375D01*
X125814063Y-102113912D01*
X125827241Y-102120056D01*
X125978766Y-102170315D01*
X125992132Y-102173181D01*
X126084770Y-102182672D01*
X126091185Y-102183000D01*
X126152885Y-102183000D01*
X126168124Y-102178525D01*
X126169329Y-102177135D01*
X126171000Y-102169452D01*
X126171000Y-101472115D01*
X126166525Y-101456876D01*
X126165135Y-101455671D01*
X126157452Y-101454000D01*
X125410115Y-101454000D01*
X125394876Y-101458475D01*
X125393671Y-101459865D01*
X125392000Y-101467548D01*
X125392000Y-101483766D01*
X125008500Y-101483766D01*
X125008500Y-100946866D01*
X125008094Y-100943124D01*
X125006438Y-100927885D01*
X125392000Y-100927885D01*
X125396475Y-100943124D01*
X125397865Y-100944329D01*
X125405548Y-100946000D01*
X126152885Y-100946000D01*
X126168124Y-100941525D01*
X126169329Y-100940135D01*
X126171000Y-100932452D01*
X126171000Y-100235115D01*
X126166525Y-100219876D01*
X126165135Y-100218671D01*
X126157452Y-100217000D01*
X126091234Y-100217000D01*
X126084718Y-100217337D01*
X125990868Y-100227075D01*
X125977472Y-100229968D01*
X125826047Y-100280488D01*
X125812885Y-100286653D01*
X125677508Y-100370426D01*
X125666110Y-100379460D01*
X125553637Y-100492129D01*
X125544625Y-100503540D01*
X125461088Y-100639063D01*
X125454944Y-100652241D01*
X125404685Y-100803766D01*
X125401819Y-100817132D01*
X125392328Y-100909770D01*
X125392000Y-100916185D01*
X125392000Y-100927885D01*
X125006438Y-100927885D01*
X125002598Y-100892540D01*
X125001745Y-100884684D01*
X124990328Y-100854229D01*
X124985145Y-100783423D01*
X124990326Y-100765776D01*
X125001745Y-100735316D01*
X125008500Y-100673134D01*
X125008500Y-99676866D01*
X125001745Y-99614684D01*
X124990328Y-99584229D01*
X124985145Y-99513423D01*
X124990326Y-99495776D01*
X125001745Y-99465316D01*
X125008500Y-99403134D01*
X125008500Y-98934500D01*
X125028502Y-98866379D01*
X125082158Y-98819886D01*
X125134500Y-98808500D01*
X125195487Y-98808500D01*
X125201939Y-98807128D01*
X125201944Y-98807128D01*
X125288888Y-98788647D01*
X125382288Y-98768794D01*
X125504900Y-98714204D01*
X125550722Y-98693803D01*
X125550724Y-98693802D01*
X125556752Y-98691118D01*
X125711253Y-98578866D01*
X125839040Y-98436944D01*
X125934527Y-98271556D01*
X125936314Y-98266057D01*
X125982099Y-98212193D01*
X126050027Y-98191545D01*
X126118334Y-98210899D01*
X126152048Y-98241973D01*
X126186739Y-98288261D01*
X126303295Y-98375615D01*
X126439684Y-98426745D01*
X126501866Y-98433500D01*
X128298134Y-98433500D01*
X128360316Y-98426745D01*
X128496705Y-98375615D01*
X128613261Y-98288261D01*
X128700615Y-98171705D01*
X128751745Y-98035316D01*
X128758500Y-97973134D01*
X128758500Y-96176866D01*
X128751745Y-96114684D01*
X128700615Y-95978295D01*
X128613261Y-95861739D01*
X128496705Y-95774385D01*
X128449202Y-95756577D01*
X128377687Y-95729767D01*
X128320923Y-95687125D01*
X128296223Y-95620564D01*
X128311430Y-95551215D01*
X128332977Y-95522535D01*
X128434052Y-95421812D01*
X128440730Y-95413965D01*
X128565003Y-95241020D01*
X128570313Y-95232183D01*
X128664670Y-95041267D01*
X128668469Y-95031672D01*
X128730377Y-94827910D01*
X128732555Y-94817837D01*
X128733986Y-94806962D01*
X128731775Y-94792778D01*
X128718617Y-94789000D01*
X126083225Y-94789000D01*
X126069694Y-94792973D01*
X126068257Y-94802966D01*
X126098565Y-94937446D01*
X126101645Y-94947275D01*
X126181770Y-95144603D01*
X126186413Y-95153794D01*
X126297694Y-95335388D01*
X126303777Y-95343699D01*
X126443213Y-95504667D01*
X126450577Y-95511879D01*
X126455522Y-95515985D01*
X126495156Y-95574889D01*
X126496653Y-95645870D01*
X126459537Y-95706392D01*
X126419264Y-95730910D01*
X126311705Y-95771232D01*
X126311704Y-95771233D01*
X126303295Y-95774385D01*
X126292414Y-95782540D01*
X126226266Y-95832115D01*
X126159760Y-95856963D01*
X126090377Y-95841910D01*
X126040147Y-95791736D01*
X126036360Y-95784086D01*
X126034527Y-95778444D01*
X125939040Y-95613056D01*
X125918026Y-95589717D01*
X125815675Y-95476045D01*
X125815674Y-95476044D01*
X125811253Y-95471134D01*
X125656752Y-95358882D01*
X125650724Y-95356198D01*
X125650722Y-95356197D01*
X125488319Y-95283891D01*
X125488318Y-95283891D01*
X125482288Y-95281206D01*
X125388888Y-95261353D01*
X125301944Y-95242872D01*
X125301939Y-95242872D01*
X125295487Y-95241500D01*
X125239595Y-95241500D01*
X125171474Y-95221498D01*
X125150500Y-95204595D01*
X125045405Y-95099500D01*
X125011379Y-95037188D01*
X125008500Y-95010405D01*
X125008500Y-94596866D01*
X125001745Y-94534684D01*
X124990328Y-94504229D01*
X124985145Y-94433423D01*
X124990326Y-94415776D01*
X125001745Y-94385316D01*
X125008500Y-94323134D01*
X125008500Y-94269183D01*
X126064389Y-94269183D01*
X126065912Y-94277607D01*
X126078292Y-94281000D01*
X127127885Y-94281000D01*
X127143124Y-94276525D01*
X127144329Y-94275135D01*
X127146000Y-94267452D01*
X127146000Y-94262885D01*
X127654000Y-94262885D01*
X127658475Y-94278124D01*
X127659865Y-94279329D01*
X127667548Y-94281000D01*
X128718344Y-94281000D01*
X128731875Y-94277027D01*
X128733180Y-94267947D01*
X128691214Y-94100875D01*
X128687894Y-94091124D01*
X128602972Y-93895814D01*
X128598105Y-93886739D01*
X128482426Y-93707926D01*
X128476136Y-93699757D01*
X128332806Y-93542240D01*
X128325273Y-93535215D01*
X128158139Y-93403222D01*
X128149552Y-93397517D01*
X127963117Y-93294599D01*
X127953705Y-93290369D01*
X127752959Y-93219280D01*
X127742988Y-93216646D01*
X127671837Y-93203972D01*
X127658540Y-93205432D01*
X127654000Y-93219989D01*
X127654000Y-94262885D01*
X127146000Y-94262885D01*
X127146000Y-93218102D01*
X127142082Y-93204758D01*
X127127806Y-93202771D01*
X127089324Y-93208660D01*
X127079288Y-93211051D01*
X126876868Y-93277212D01*
X126867359Y-93281209D01*
X126678463Y-93379542D01*
X126669738Y-93385036D01*
X126499433Y-93512905D01*
X126491726Y-93519748D01*
X126344590Y-93673717D01*
X126338104Y-93681727D01*
X126218098Y-93857649D01*
X126213000Y-93866623D01*
X126123338Y-94059783D01*
X126119775Y-94069470D01*
X126064389Y-94269183D01*
X125008500Y-94269183D01*
X125008500Y-93326866D01*
X125001745Y-93264684D01*
X124990328Y-93234229D01*
X124985145Y-93163423D01*
X124990326Y-93145776D01*
X125001745Y-93115316D01*
X125008500Y-93053134D01*
X125008500Y-92056866D01*
X125001745Y-91994684D01*
X124990328Y-91964229D01*
X124985145Y-91893423D01*
X124990326Y-91875776D01*
X125001745Y-91845316D01*
X125008500Y-91783134D01*
X125008500Y-90786866D01*
X125001745Y-90724684D01*
X124990328Y-90694229D01*
X124985145Y-90623423D01*
X124990326Y-90605776D01*
X125001745Y-90575316D01*
X125008500Y-90513134D01*
X125008500Y-89516866D01*
X125001745Y-89454684D01*
X124990328Y-89424229D01*
X124985145Y-89353423D01*
X124990326Y-89335776D01*
X125001745Y-89305316D01*
X125008500Y-89243134D01*
X125008500Y-88246866D01*
X125001745Y-88184684D01*
X124950615Y-88048295D01*
X124863261Y-87931739D01*
X124746705Y-87844385D01*
X124610316Y-87793255D01*
X124548134Y-87786500D01*
X122451866Y-87786500D01*
X122389684Y-87793255D01*
X122253295Y-87844385D01*
X122246110Y-87849770D01*
X122246106Y-87849772D01*
X122245119Y-87850512D01*
X122243973Y-87850940D01*
X122238240Y-87854079D01*
X122237787Y-87853251D01*
X122178612Y-87875358D01*
X122143360Y-87872931D01*
X122001944Y-87842872D01*
X122001939Y-87842872D01*
X121995487Y-87841500D01*
X121804513Y-87841500D01*
X121798061Y-87842872D01*
X121798056Y-87842872D01*
X121711112Y-87861353D01*
X121617712Y-87881206D01*
X121611682Y-87883891D01*
X121611681Y-87883891D01*
X121452877Y-87954595D01*
X121443248Y-87958882D01*
X121437908Y-87962761D01*
X121437904Y-87962764D01*
X121421152Y-87974935D01*
X121354284Y-87998794D01*
X121347090Y-87999000D01*
X120587000Y-87999000D01*
X120518879Y-87978998D01*
X120472386Y-87925342D01*
X120461000Y-87873000D01*
X120461000Y-87617000D01*
X120481002Y-87548879D01*
X120534658Y-87502386D01*
X120587000Y-87491000D01*
X121654884Y-87491000D01*
X121670123Y-87486525D01*
X121671328Y-87485135D01*
X121672999Y-87477452D01*
X121672999Y-86700331D01*
X121672629Y-86693507D01*
X121667644Y-86647604D01*
X121680174Y-86577722D01*
X121728496Y-86525708D01*
X121792907Y-86508000D01*
X127101793Y-86508000D01*
X127169914Y-86528002D01*
G37*
%TD.AperFunction*%
%TA.AperFunction,Conductor*%
G36*
X121934291Y-94478502D02*
G01*
X121980784Y-94532158D01*
X121991985Y-94591317D01*
X121991868Y-94593480D01*
X121991500Y-94596866D01*
X121991500Y-95593134D01*
X121998255Y-95655316D01*
X122009672Y-95685771D01*
X122014855Y-95756577D01*
X122009674Y-95774224D01*
X121998255Y-95804684D01*
X121991500Y-95866866D01*
X121991500Y-96863134D01*
X121998255Y-96925316D01*
X122009672Y-96955771D01*
X122014855Y-97026577D01*
X122009674Y-97044224D01*
X121998255Y-97074684D01*
X121991500Y-97136866D01*
X121991500Y-98133134D01*
X121998255Y-98195316D01*
X122009672Y-98225771D01*
X122014855Y-98296577D01*
X122009674Y-98314224D01*
X121998255Y-98344684D01*
X121991500Y-98406866D01*
X121991500Y-99403134D01*
X121998255Y-99465316D01*
X122009672Y-99495771D01*
X122014855Y-99566577D01*
X122009674Y-99584224D01*
X121998255Y-99614684D01*
X121991500Y-99676866D01*
X121991500Y-100673134D01*
X121998255Y-100735316D01*
X122009672Y-100765771D01*
X122014855Y-100836577D01*
X122009674Y-100854224D01*
X121998255Y-100884684D01*
X121997402Y-100892540D01*
X121991907Y-100943124D01*
X121991500Y-100946866D01*
X121991500Y-101943134D01*
X121991868Y-101946520D01*
X121991985Y-101948683D01*
X121975698Y-102017786D01*
X121924636Y-102067114D01*
X121866170Y-102081500D01*
X119971706Y-102081500D01*
X119903585Y-102061498D01*
X119878070Y-102039811D01*
X119865668Y-102026037D01*
X119865666Y-102026036D01*
X119861253Y-102021134D01*
X119756755Y-101945211D01*
X119713402Y-101888991D01*
X119707327Y-101818255D01*
X119741722Y-101754182D01*
X120342247Y-101153657D01*
X120350537Y-101146113D01*
X120357018Y-101142000D01*
X120403659Y-101092332D01*
X120406413Y-101089491D01*
X120426134Y-101069770D01*
X120428612Y-101066575D01*
X120436318Y-101057553D01*
X120461158Y-101031101D01*
X120466586Y-101025321D01*
X120476346Y-101007568D01*
X120487199Y-100991045D01*
X120494753Y-100981306D01*
X120499613Y-100975041D01*
X120517176Y-100934457D01*
X120522383Y-100923827D01*
X120543695Y-100885060D01*
X120545666Y-100877383D01*
X120545668Y-100877378D01*
X120548732Y-100865442D01*
X120555138Y-100846730D01*
X120560034Y-100835417D01*
X120563181Y-100828145D01*
X120564926Y-100817132D01*
X120570097Y-100784481D01*
X120572504Y-100772860D01*
X120581528Y-100737711D01*
X120581528Y-100737710D01*
X120583500Y-100730030D01*
X120583500Y-100709769D01*
X120585051Y-100690058D01*
X120586979Y-100677885D01*
X120588219Y-100670057D01*
X120584059Y-100626046D01*
X120583500Y-100614189D01*
X120583500Y-95164595D01*
X120603502Y-95096474D01*
X120620405Y-95075499D01*
X121200501Y-94495404D01*
X121262813Y-94461379D01*
X121289596Y-94458500D01*
X121866170Y-94458500D01*
X121934291Y-94478502D01*
G37*
%TD.AperFunction*%
%TA.AperFunction,Conductor*%
G36*
X99783621Y-87791002D02*
G01*
X99830114Y-87844658D01*
X99841500Y-87897000D01*
X99841500Y-88898134D01*
X99848255Y-88960316D01*
X99899385Y-89096705D01*
X99904766Y-89103885D01*
X99909079Y-89111763D01*
X99907004Y-89112899D01*
X99927362Y-89167387D01*
X99918389Y-89220782D01*
X99919029Y-89220985D01*
X99917595Y-89225505D01*
X99917497Y-89226089D01*
X99917162Y-89226870D01*
X99878506Y-89348731D01*
X99878202Y-89362831D01*
X99884763Y-89366000D01*
X100978000Y-89366000D01*
X101046121Y-89386002D01*
X101092614Y-89439658D01*
X101104000Y-89492000D01*
X101104000Y-94387564D01*
X101107973Y-94401095D01*
X101116188Y-94402276D01*
X101210337Y-94375989D01*
X101221787Y-94371548D01*
X101387226Y-94287979D01*
X101397588Y-94281403D01*
X101406074Y-94274773D01*
X101472068Y-94248595D01*
X101545117Y-94264074D01*
X101714294Y-94358624D01*
X101902392Y-94419740D01*
X102098777Y-94443158D01*
X102104912Y-94442686D01*
X102104914Y-94442686D01*
X102289831Y-94428457D01*
X102289836Y-94428456D01*
X102295972Y-94427984D01*
X102301901Y-94426329D01*
X102301910Y-94426327D01*
X102306615Y-94425013D01*
X102377605Y-94425958D01*
X102436815Y-94465134D01*
X102465445Y-94530102D01*
X102466500Y-94546371D01*
X102466500Y-96948296D01*
X102446498Y-97016417D01*
X102388436Y-97064511D01*
X102385381Y-97065410D01*
X102379928Y-97068261D01*
X102379925Y-97068262D01*
X102342088Y-97088043D01*
X102210110Y-97157040D01*
X102205310Y-97160900D01*
X102200153Y-97164274D01*
X102198849Y-97162281D01*
X102142977Y-97185354D01*
X102073122Y-97172674D01*
X102059186Y-97164522D01*
X102055980Y-97162360D01*
X101892924Y-97074196D01*
X101881619Y-97069444D01*
X101766308Y-97033750D01*
X101752205Y-97033544D01*
X101749000Y-97040299D01*
X101749000Y-98133000D01*
X101728998Y-98201121D01*
X101675342Y-98247614D01*
X101623000Y-98259000D01*
X101367000Y-98259000D01*
X101298879Y-98238998D01*
X101252386Y-98185342D01*
X101241000Y-98133000D01*
X101241000Y-97047076D01*
X101237027Y-97033545D01*
X101229232Y-97032425D01*
X101121479Y-97064138D01*
X101110111Y-97068731D01*
X100945846Y-97154607D01*
X100930426Y-97164697D01*
X100929003Y-97162522D01*
X100873864Y-97185314D01*
X100804005Y-97172657D01*
X100794055Y-97166839D01*
X100791675Y-97164870D01*
X100617701Y-97070802D01*
X100519161Y-97040299D01*
X100434655Y-97014140D01*
X100434652Y-97014139D01*
X100428768Y-97012318D01*
X100422643Y-97011674D01*
X100416601Y-97010434D01*
X100417039Y-97008299D01*
X100360478Y-96985029D01*
X100319847Y-96926809D01*
X100313303Y-96886731D01*
X100313303Y-96880576D01*
X100313993Y-96874011D01*
X100307148Y-96808882D01*
X100294721Y-96690646D01*
X100294721Y-96690644D01*
X100294031Y-96684083D01*
X100235016Y-96502455D01*
X100139529Y-96337067D01*
X100116165Y-96311118D01*
X100016164Y-96200056D01*
X100016163Y-96200055D01*
X100011742Y-96195145D01*
X99857241Y-96082893D01*
X99851213Y-96080209D01*
X99851211Y-96080208D01*
X99688808Y-96007902D01*
X99688807Y-96007902D01*
X99682777Y-96005217D01*
X99589376Y-95985364D01*
X99502433Y-95966883D01*
X99502428Y-95966883D01*
X99495976Y-95965511D01*
X99383531Y-95965511D01*
X99315410Y-95945509D01*
X99268917Y-95891853D01*
X99257531Y-95839511D01*
X99257531Y-93695975D01*
X99877601Y-93695975D01*
X99906552Y-93796941D01*
X99911067Y-93808345D01*
X99995794Y-93973207D01*
X100002435Y-93983512D01*
X100117568Y-94128772D01*
X100126091Y-94137598D01*
X100267245Y-94257730D01*
X100277317Y-94264730D01*
X100439116Y-94355156D01*
X100450356Y-94360067D01*
X100578768Y-94401790D01*
X100592867Y-94402193D01*
X100596000Y-94395821D01*
X100596000Y-93702115D01*
X100591525Y-93686876D01*
X100590135Y-93685671D01*
X100582452Y-93684000D01*
X99892282Y-93684000D01*
X99878751Y-93687973D01*
X99877601Y-93695975D01*
X99257531Y-93695975D01*
X99257531Y-92425975D01*
X99877601Y-92425975D01*
X99906552Y-92526941D01*
X99911067Y-92538345D01*
X99995794Y-92703207D01*
X100002435Y-92713511D01*
X100004460Y-92716066D01*
X100005099Y-92717645D01*
X100005774Y-92718692D01*
X100005575Y-92718820D01*
X100031098Y-92781875D01*
X100017928Y-92851640D01*
X100013907Y-92858403D01*
X99921998Y-93025585D01*
X99917166Y-93036858D01*
X99878506Y-93158731D01*
X99878202Y-93172831D01*
X99884763Y-93176000D01*
X100577885Y-93176000D01*
X100593124Y-93171525D01*
X100594329Y-93170135D01*
X100596000Y-93162452D01*
X100596000Y-92432115D01*
X100591525Y-92416876D01*
X100590135Y-92415671D01*
X100582452Y-92414000D01*
X99892282Y-92414000D01*
X99878751Y-92417973D01*
X99877601Y-92425975D01*
X99257531Y-92425975D01*
X99257531Y-91155975D01*
X99877601Y-91155975D01*
X99906552Y-91256941D01*
X99911067Y-91268345D01*
X99995794Y-91433207D01*
X100002435Y-91443511D01*
X100004460Y-91446066D01*
X100005099Y-91447645D01*
X100005774Y-91448692D01*
X100005575Y-91448820D01*
X100031098Y-91511875D01*
X100017928Y-91581640D01*
X100013907Y-91588403D01*
X99921998Y-91755585D01*
X99917166Y-91766858D01*
X99878506Y-91888731D01*
X99878202Y-91902831D01*
X99884763Y-91906000D01*
X100577885Y-91906000D01*
X100593124Y-91901525D01*
X100594329Y-91900135D01*
X100596000Y-91892452D01*
X100596000Y-91162115D01*
X100591525Y-91146876D01*
X100590135Y-91145671D01*
X100582452Y-91144000D01*
X99892282Y-91144000D01*
X99878751Y-91147973D01*
X99877601Y-91155975D01*
X99257531Y-91155975D01*
X99257531Y-90952799D01*
X99258058Y-90941616D01*
X99259733Y-90934123D01*
X99259058Y-90912630D01*
X99257593Y-90866033D01*
X99257531Y-90862075D01*
X99257531Y-90834175D01*
X99257027Y-90830184D01*
X99256094Y-90818342D01*
X99255698Y-90805721D01*
X99254705Y-90774142D01*
X99252493Y-90766528D01*
X99252492Y-90766523D01*
X99249054Y-90754690D01*
X99245043Y-90735326D01*
X99244380Y-90730073D01*
X99242505Y-90715234D01*
X99239588Y-90707867D01*
X99239587Y-90707862D01*
X99226229Y-90674123D01*
X99222385Y-90662896D01*
X99219437Y-90652750D01*
X99210049Y-90620438D01*
X99201374Y-90605769D01*
X99199738Y-90603003D01*
X99191043Y-90585255D01*
X99183583Y-90566414D01*
X99157595Y-90530644D01*
X99151079Y-90520724D01*
X99132611Y-90489496D01*
X99132609Y-90489493D01*
X99128573Y-90482669D01*
X99114252Y-90468348D01*
X99101411Y-90453314D01*
X99094162Y-90443337D01*
X99089503Y-90436924D01*
X99083399Y-90431874D01*
X99083394Y-90431869D01*
X99055433Y-90408738D01*
X99046652Y-90400748D01*
X98874752Y-90228847D01*
X98840727Y-90166535D01*
X98845792Y-90095719D01*
X98888339Y-90038884D01*
X98912602Y-90024644D01*
X98925720Y-90018804D01*
X98925723Y-90018802D01*
X98931752Y-90016118D01*
X98956215Y-89998345D01*
X99006998Y-89961448D01*
X99086253Y-89903866D01*
X99090675Y-89898955D01*
X99102362Y-89885975D01*
X99877601Y-89885975D01*
X99906552Y-89986941D01*
X99911067Y-89998345D01*
X99995794Y-90163207D01*
X100002435Y-90173511D01*
X100004460Y-90176066D01*
X100005099Y-90177645D01*
X100005774Y-90178692D01*
X100005575Y-90178820D01*
X100031098Y-90241875D01*
X100017928Y-90311640D01*
X100013907Y-90318403D01*
X99921998Y-90485585D01*
X99917166Y-90496858D01*
X99878506Y-90618731D01*
X99878202Y-90632831D01*
X99884763Y-90636000D01*
X100577885Y-90636000D01*
X100593124Y-90631525D01*
X100594329Y-90630135D01*
X100596000Y-90622452D01*
X100596000Y-89892115D01*
X100591525Y-89876876D01*
X100590135Y-89875671D01*
X100582452Y-89874000D01*
X99892282Y-89874000D01*
X99878751Y-89877973D01*
X99877601Y-89885975D01*
X99102362Y-89885975D01*
X99209621Y-89766852D01*
X99209622Y-89766851D01*
X99214040Y-89761944D01*
X99272314Y-89661010D01*
X99306223Y-89602279D01*
X99306224Y-89602278D01*
X99309527Y-89596556D01*
X99368542Y-89414928D01*
X99370741Y-89394012D01*
X99387814Y-89231565D01*
X99388504Y-89225000D01*
X99378760Y-89132287D01*
X99369232Y-89041635D01*
X99369232Y-89041633D01*
X99368542Y-89035072D01*
X99309527Y-88853444D01*
X99300380Y-88837602D01*
X99283500Y-88774603D01*
X99283500Y-88662928D01*
X99282076Y-88649199D01*
X99273419Y-88565765D01*
X99273418Y-88565761D01*
X99272707Y-88558907D01*
X99262240Y-88527532D01*
X99219972Y-88400841D01*
X99217654Y-88393893D01*
X99126116Y-88245969D01*
X99109990Y-88229871D01*
X99019214Y-88139253D01*
X98985135Y-88076970D01*
X98990138Y-88006150D01*
X99019059Y-87961063D01*
X99121757Y-87858185D01*
X99121761Y-87858180D01*
X99126929Y-87853003D01*
X99132073Y-87844658D01*
X99140564Y-87830884D01*
X99193336Y-87783391D01*
X99247824Y-87771000D01*
X99715500Y-87771000D01*
X99783621Y-87791002D01*
G37*
%TD.AperFunction*%
%TA.AperFunction,Conductor*%
G36*
X115044224Y-89235326D02*
G01*
X115074684Y-89246745D01*
X115136866Y-89253500D01*
X116133134Y-89253500D01*
X116136520Y-89253132D01*
X116138683Y-89253015D01*
X116207786Y-89269302D01*
X116257114Y-89320364D01*
X116271500Y-89378830D01*
X116271500Y-90941923D01*
X116251498Y-91010044D01*
X116239142Y-91026226D01*
X116160960Y-91113056D01*
X116142130Y-91145671D01*
X116074565Y-91262697D01*
X116065473Y-91278444D01*
X116006458Y-91460072D01*
X116005768Y-91466633D01*
X116005768Y-91466635D01*
X115987186Y-91643435D01*
X115986496Y-91650000D01*
X115987186Y-91656565D01*
X116004049Y-91817004D01*
X116006458Y-91839928D01*
X116065473Y-92021556D01*
X116068776Y-92027278D01*
X116068777Y-92027279D01*
X116094663Y-92072115D01*
X116160960Y-92186944D01*
X116165378Y-92191851D01*
X116165379Y-92191852D01*
X116246441Y-92281880D01*
X116288747Y-92328866D01*
X116357746Y-92378997D01*
X116422406Y-92425975D01*
X116443248Y-92441118D01*
X116449276Y-92443802D01*
X116449278Y-92443803D01*
X116611681Y-92516109D01*
X116617712Y-92518794D01*
X116708610Y-92538115D01*
X116798056Y-92557128D01*
X116798061Y-92557128D01*
X116804513Y-92558500D01*
X116995487Y-92558500D01*
X117001939Y-92557128D01*
X117001944Y-92557128D01*
X117091390Y-92538115D01*
X117182288Y-92518794D01*
X117188320Y-92516108D01*
X117194600Y-92514068D01*
X117195265Y-92516114D01*
X117255674Y-92508012D01*
X117319972Y-92538115D01*
X117356394Y-92593615D01*
X117365473Y-92621556D01*
X117460960Y-92786944D01*
X117465378Y-92791851D01*
X117465379Y-92791852D01*
X117582165Y-92921556D01*
X117588747Y-92928866D01*
X117664990Y-92984260D01*
X117737385Y-93036858D01*
X117743248Y-93041118D01*
X117749276Y-93043802D01*
X117749278Y-93043803D01*
X117892255Y-93107460D01*
X117917712Y-93118794D01*
X117996411Y-93135522D01*
X118098056Y-93157128D01*
X118098061Y-93157128D01*
X118104513Y-93158500D01*
X118241405Y-93158500D01*
X118309526Y-93178502D01*
X118356019Y-93232158D01*
X118366123Y-93302432D01*
X118336629Y-93367012D01*
X118330500Y-93373595D01*
X117924500Y-93779595D01*
X117862188Y-93813621D01*
X117835405Y-93816500D01*
X111758200Y-93816500D01*
X111690079Y-93796498D01*
X111670853Y-93780157D01*
X111670580Y-93780460D01*
X111665668Y-93776037D01*
X111661253Y-93771134D01*
X111566257Y-93702115D01*
X111512094Y-93662763D01*
X111512093Y-93662762D01*
X111506752Y-93658882D01*
X111500724Y-93656198D01*
X111500722Y-93656197D01*
X111441327Y-93629753D01*
X111332288Y-93581206D01*
X111325818Y-93579831D01*
X111320593Y-93578133D01*
X111261986Y-93538061D01*
X111239692Y-93497234D01*
X111226590Y-93456910D01*
X111184527Y-93327455D01*
X111167494Y-93297952D01*
X111144016Y-93257288D01*
X111089040Y-93162067D01*
X111054964Y-93124221D01*
X110965675Y-93025056D01*
X110965674Y-93025055D01*
X110961253Y-93020145D01*
X110835619Y-92928866D01*
X110812094Y-92911774D01*
X110812093Y-92911773D01*
X110806752Y-92907893D01*
X110800724Y-92905209D01*
X110800722Y-92905208D01*
X110638319Y-92832902D01*
X110638318Y-92832902D01*
X110632288Y-92830217D01*
X110538887Y-92810364D01*
X110451944Y-92791883D01*
X110451939Y-92791883D01*
X110445487Y-92790511D01*
X110389595Y-92790511D01*
X110321474Y-92770509D01*
X110300500Y-92753606D01*
X109955405Y-92408511D01*
X109921379Y-92346199D01*
X109918500Y-92319416D01*
X109918500Y-89378830D01*
X109938502Y-89310709D01*
X109992158Y-89264216D01*
X110051317Y-89253015D01*
X110053480Y-89253132D01*
X110056866Y-89253500D01*
X111053134Y-89253500D01*
X111115316Y-89246745D01*
X111145771Y-89235328D01*
X111216577Y-89230145D01*
X111234224Y-89235326D01*
X111264684Y-89246745D01*
X111326866Y-89253500D01*
X112323134Y-89253500D01*
X112385316Y-89246745D01*
X112415771Y-89235328D01*
X112486577Y-89230145D01*
X112504224Y-89235326D01*
X112534684Y-89246745D01*
X112596866Y-89253500D01*
X113593134Y-89253500D01*
X113655316Y-89246745D01*
X113685771Y-89235328D01*
X113756577Y-89230145D01*
X113774224Y-89235326D01*
X113804684Y-89246745D01*
X113866866Y-89253500D01*
X114863134Y-89253500D01*
X114925316Y-89246745D01*
X114955771Y-89235328D01*
X115026577Y-89230145D01*
X115044224Y-89235326D01*
G37*
%TD.AperFunction*%
%TA.AperFunction,Conductor*%
G36*
X77591075Y-89300962D02*
G01*
X77639452Y-89352926D01*
X77641926Y-89358344D01*
X77644240Y-89369975D01*
X77660845Y-89394826D01*
X77851621Y-89585600D01*
X77876472Y-89602207D01*
X77895097Y-89605912D01*
X77958005Y-89638822D01*
X77994088Y-89704903D01*
X77997793Y-89723528D01*
X78002830Y-89731067D01*
X78010172Y-89799356D01*
X77978392Y-89862843D01*
X77965129Y-89875178D01*
X77946691Y-89890004D01*
X77941624Y-89894550D01*
X77701658Y-90134517D01*
X77697113Y-90139583D01*
X77660095Y-90185621D01*
X77658215Y-90184110D01*
X77637665Y-90204664D01*
X77639175Y-90206542D01*
X77593135Y-90243560D01*
X77588071Y-90248104D01*
X77348105Y-90488071D01*
X77343560Y-90493137D01*
X77311494Y-90533017D01*
X77303272Y-90546367D01*
X77250028Y-90663472D01*
X77245041Y-90680527D01*
X77226958Y-90806797D01*
X77226958Y-90824572D01*
X77229506Y-90842361D01*
X77219365Y-90912630D01*
X77199293Y-90943551D01*
X77184272Y-90960589D01*
X77180675Y-90967649D01*
X77180672Y-90967653D01*
X77165219Y-90997982D01*
X77116471Y-91049598D01*
X77047556Y-91066664D01*
X76980355Y-91043764D01*
X76963857Y-91029876D01*
X76852758Y-90918779D01*
X76848379Y-90914400D01*
X76823528Y-90897793D01*
X76804903Y-90894088D01*
X76741995Y-90861178D01*
X76705912Y-90795097D01*
X76704880Y-90789909D01*
X76702207Y-90776472D01*
X76685602Y-90751621D01*
X76572494Y-90638514D01*
X76538470Y-90576204D01*
X76543534Y-90505389D01*
X76586080Y-90448552D01*
X76588157Y-90447213D01*
X76588118Y-90447160D01*
X76602207Y-90436924D01*
X76717608Y-90353080D01*
X76819634Y-90229752D01*
X76847951Y-90169575D01*
X76895053Y-90116454D01*
X76909497Y-90109429D01*
X76909420Y-90109277D01*
X76916479Y-90105680D01*
X76923943Y-90102993D01*
X77056325Y-90013027D01*
X77061834Y-90006779D01*
X77156933Y-89898910D01*
X77156933Y-89898909D01*
X77162175Y-89892964D01*
X77165773Y-89885903D01*
X77231241Y-89757415D01*
X77231242Y-89757413D01*
X77234840Y-89750351D01*
X77269756Y-89594146D01*
X77269142Y-89574602D01*
X77286995Y-89505886D01*
X77305984Y-89481550D01*
X77388328Y-89399205D01*
X77392707Y-89394826D01*
X77409314Y-89369975D01*
X77411313Y-89359928D01*
X77454920Y-89305819D01*
X77522285Y-89283401D01*
X77591075Y-89300962D01*
G37*
%TD.AperFunction*%
%TD*%
M02*
