M48
; DRILL file {KiCad 6.0.2+dfsg-1} date Tue 30 Aug 2022 10:44:57 PM CDT
; FORMAT={-:-/ absolute / inch / decimal}
; #@! TF.CreationDate,2022-08-30T22:44:57-05:00
; #@! TF.GenerationSoftware,Kicad,Pcbnew,6.0.2+dfsg-1
; #@! TF.FileFunction,Plated,1,2,PTH
FMAT,2
INCH
; #@! TA.AperFunction,Plated,PTH,ViaDrill
T1C0.0157
; #@! TA.AperFunction,Plated,PTH,ViaDrill
T2C0.0236
; #@! TA.AperFunction,Plated,PTH,ComponentDrill
T3C0.0256
; #@! TA.AperFunction,Plated,PTH,ComponentDrill
T4C0.0394
%
G90
G05
T1
X2.9606Y-3.8543
X2.9606Y-4.0197
X2.9961Y-3.8071
X3.0118Y-4.0079
X3.0354Y-3.7677
X3.0394Y-3.561
X3.063Y-3.9843
X3.0866Y-3.748
X3.1009Y-3.6024
X3.1299Y-3.7441
X3.1904Y-3.6457
X3.2559Y-3.8425
X3.2992Y-3.8425
X3.4941Y-3.7146
X3.877Y-3.5128
X3.878Y-4.0187
X3.9134Y-3.8139
X4.1039Y-3.6283
X4.1181Y-4.0945
X4.1319Y-3.8937
X4.1339Y-3.5945
X4.252Y-3.6969
X4.3061Y-3.8007
X4.3091Y-3.7598
X4.3445Y-3.6889
X4.372Y-3.7185
X4.6024Y-3.6083
X4.6535Y-3.6319
X4.6811Y-3.5197
X4.6949Y-4.0433
X4.7736Y-3.9882
X4.7756Y-3.876
X4.7776Y-3.7618
X4.7992Y-3.4941
X4.7992Y-3.6437
X4.9252Y-3.8543
X4.9291Y-3.7854
X5.0886Y-3.9843
X5.0886Y-4.1024
T2
X3.1004Y-3.6791
X3.1988Y-3.435
X3.2933Y-3.5748
X3.7106Y-3.9764
X3.8287Y-3.6102
X3.9114Y-4.3839
X4.2534Y-3.4488
X4.3189Y-4.1043
X4.4173Y-4.0945
X4.5453Y-4.0118
X4.6831Y-4.1634
X4.7854Y-4.0945
T3
X3.9459Y-3.8585
X3.9459Y-3.9085
X3.9705Y-3.4783
X3.9705Y-3.5283
X3.9705Y-3.5783
X3.9705Y-3.6283
X3.9705Y-3.6783
X3.9959Y-3.8585
X3.9959Y-3.9085
X4.0205Y-3.4783
X4.0205Y-3.5283
X4.0205Y-3.5783
X4.0205Y-3.6283
X4.0205Y-3.6783
X4.0459Y-3.8585
X4.0459Y-3.9085
T4
X3.0098Y-4.2937
X3.0098Y-4.3937
X5.0157Y-3.7219
X5.0157Y-3.8219
T0
M30
