G04 #@! TF.GenerationSoftware,KiCad,Pcbnew,6.0.2+dfsg-1*
G04 #@! TF.CreationDate,2022-08-30T21:57:41-05:00*
G04 #@! TF.ProjectId,BaseStationHAT,42617365-5374-4617-9469-6f6e4841542e,rev?*
G04 #@! TF.SameCoordinates,Original*
G04 #@! TF.FileFunction,Soldermask,Bot*
G04 #@! TF.FilePolarity,Negative*
%FSLAX46Y46*%
G04 Gerber Fmt 4.6, Leading zero omitted, Abs format (unit mm)*
G04 Created by KiCad (PCBNEW 6.0.2+dfsg-1) date 2022-08-30 21:57:41*
%MOMM*%
%LPD*%
G01*
G04 APERTURE LIST*
G04 Aperture macros list*
%AMRoundRect*
0 Rectangle with rounded corners*
0 $1 Rounding radius*
0 $2 $3 $4 $5 $6 $7 $8 $9 X,Y pos of 4 corners*
0 Add a 4 corners polygon primitive as box body*
4,1,4,$2,$3,$4,$5,$6,$7,$8,$9,$2,$3,0*
0 Add four circle primitives for the rounded corners*
1,1,$1+$1,$2,$3*
1,1,$1+$1,$4,$5*
1,1,$1+$1,$6,$7*
1,1,$1+$1,$8,$9*
0 Add four rect primitives between the rounded corners*
20,1,$1+$1,$2,$3,$4,$5,0*
20,1,$1+$1,$4,$5,$6,$7,0*
20,1,$1+$1,$6,$7,$8,$9,0*
20,1,$1+$1,$8,$9,$2,$3,0*%
G04 Aperture macros list end*
G04 #@! TA.AperFunction,Profile*
%ADD10C,0.100000*%
G04 #@! TD*
%ADD11C,3.000000*%
%ADD12R,1.600000X2.400000*%
%ADD13O,1.600000X2.400000*%
%ADD14R,1.700000X1.700000*%
%ADD15O,1.700000X1.700000*%
%ADD16R,4.060000X1.520000*%
%ADD17R,3.000000X3.000000*%
%ADD18R,3.500000X3.300000*%
%ADD19C,10.200000*%
%ADD20RoundRect,0.250000X-0.412500X-1.100000X0.412500X-1.100000X0.412500X1.100000X-0.412500X1.100000X0*%
%ADD21R,1.000000X1.500000*%
%ADD22R,2.200000X1.200000*%
%ADD23R,6.400000X5.800000*%
%ADD24RoundRect,0.150000X-0.825000X-0.150000X0.825000X-0.150000X0.825000X0.150000X-0.825000X0.150000X0*%
%ADD25RoundRect,0.237500X0.237500X-0.300000X0.237500X0.300000X-0.237500X0.300000X-0.237500X-0.300000X0*%
G04 APERTURE END LIST*
D10*
X143546356Y-113817611D02*
X143546356Y-63817611D01*
X78546356Y-63817611D02*
X78546356Y-113817611D01*
X140546356Y-116817611D02*
G75*
G03*
X143546356Y-113817611I-1J3000001D01*
G01*
X140546356Y-60817611D02*
X81546356Y-60817611D01*
X81546356Y-116817611D02*
X140546356Y-116817611D01*
X143546356Y-63817611D02*
G75*
G03*
X140546356Y-60817611I-3000001J-1D01*
G01*
X81546356Y-60817611D02*
G75*
G03*
X78546356Y-63817611I1J-3000001D01*
G01*
X78546356Y-113817611D02*
G75*
G03*
X81546356Y-116817611I3000001J1D01*
G01*
D11*
X82040000Y-64310000D03*
X140040000Y-64330000D03*
X82040000Y-113320000D03*
X140030000Y-113310000D03*
D12*
X129100000Y-99975000D03*
D13*
X126560000Y-99975000D03*
X124020000Y-99975000D03*
X121480000Y-99975000D03*
X118940000Y-99975000D03*
X116400000Y-99975000D03*
X113860000Y-99975000D03*
X111320000Y-99975000D03*
X108780000Y-99975000D03*
X108780000Y-107595000D03*
X111320000Y-107595000D03*
X113860000Y-107595000D03*
X116400000Y-107595000D03*
X118940000Y-107595000D03*
X121480000Y-107595000D03*
X124020000Y-107595000D03*
X126560000Y-107595000D03*
X129100000Y-107595000D03*
D14*
X131640000Y-114975000D03*
D15*
X129100000Y-114975000D03*
X126560000Y-114975000D03*
X124020000Y-114975000D03*
X121480000Y-114975000D03*
X118940000Y-114975000D03*
X116400000Y-114975000D03*
X113860000Y-114975000D03*
X111320000Y-114975000D03*
X108780000Y-114975000D03*
D16*
X80657500Y-105940000D03*
X80657500Y-100860000D03*
D17*
X97800000Y-112800000D03*
D11*
X92720000Y-112800000D03*
D14*
X137700000Y-93600000D03*
D15*
X140240000Y-93600000D03*
X137700000Y-96140000D03*
X140240000Y-96140000D03*
X137700000Y-98680000D03*
X140240000Y-98680000D03*
X137700000Y-101220000D03*
X140240000Y-101220000D03*
X137700000Y-103760000D03*
X140240000Y-103760000D03*
X137700000Y-106300000D03*
X140240000Y-106300000D03*
D14*
X126850000Y-84450000D03*
D15*
X129390000Y-84450000D03*
X131930000Y-84450000D03*
D16*
X80657500Y-75390000D03*
X80657500Y-70310000D03*
D14*
X86920000Y-65590000D03*
D15*
X86920000Y-63050000D03*
X89460000Y-65590000D03*
X89460000Y-63050000D03*
X92000000Y-65590000D03*
X92000000Y-63050000D03*
X94540000Y-65590000D03*
X94540000Y-63050000D03*
X97080000Y-65590000D03*
X97080000Y-63050000D03*
X99620000Y-65590000D03*
X99620000Y-63050000D03*
X102160000Y-65590000D03*
X102160000Y-63050000D03*
X104700000Y-65590000D03*
X104700000Y-63050000D03*
X107240000Y-65590000D03*
X107240000Y-63050000D03*
X109780000Y-65590000D03*
X109780000Y-63050000D03*
X112320000Y-65590000D03*
X112320000Y-63050000D03*
X114860000Y-65590000D03*
X114860000Y-63050000D03*
X117400000Y-65590000D03*
X117400000Y-63050000D03*
X119940000Y-65590000D03*
X119940000Y-63050000D03*
X122480000Y-65590000D03*
X122480000Y-63050000D03*
X125020000Y-65590000D03*
X125020000Y-63050000D03*
X127560000Y-65590000D03*
X127560000Y-63050000D03*
X130100000Y-65590000D03*
X130100000Y-63050000D03*
X132640000Y-65590000D03*
X132640000Y-63050000D03*
X135180000Y-65590000D03*
X135180000Y-63050000D03*
D18*
X107650000Y-77695000D03*
X123450000Y-77695000D03*
D19*
X115550000Y-77695000D03*
D20*
X96987500Y-91350000D03*
X100112500Y-91350000D03*
D21*
X96350000Y-77650000D03*
X95050000Y-77650000D03*
X93750000Y-77650000D03*
D22*
X103300000Y-94670000D03*
D23*
X97000000Y-96950000D03*
D22*
X103300000Y-99230000D03*
D24*
X126832500Y-95210000D03*
X126832500Y-93940000D03*
X126832500Y-92670000D03*
X126832500Y-91400000D03*
X126832500Y-90130000D03*
X126832500Y-88860000D03*
X126832500Y-87590000D03*
X131782500Y-87590000D03*
X131782500Y-88860000D03*
X131782500Y-90130000D03*
X131782500Y-91400000D03*
X131782500Y-92670000D03*
X131782500Y-93940000D03*
X131782500Y-95210000D03*
D25*
X106000000Y-97812500D03*
X106000000Y-96087500D03*
M02*
