M48
; DRILL file {KiCad 6.0.2+dfsg-1} date Tue 30 Aug 2022 09:57:39 PM CDT
; FORMAT={-:-/ absolute / inch / decimal}
; #@! TF.CreationDate,2022-08-30T21:57:39-05:00
; #@! TF.GenerationSoftware,Kicad,Pcbnew,6.0.2+dfsg-1
; #@! TF.FileFunction,Plated,1,2,PTH
FMAT,2
INCH
; #@! TA.AperFunction,Plated,PTH,ViaDrill
T1C0.0079
; #@! TA.AperFunction,Plated,PTH,ViaDrill
T2C0.0236
; #@! TA.AperFunction,Plated,PTH,ComponentDrill
T3C0.0315
; #@! TA.AperFunction,Plated,PTH,ComponentDrill
T4C0.0394
; #@! TA.AperFunction,Plated,PTH,ComponentDrill
T5C0.0598
%
G90
G05
T1
X3.1181Y-2.815
X3.1181Y-2.9213
X3.122Y-4.0197
X3.122Y-4.122
X3.1654Y-2.815
X3.1654Y-2.9213
X3.1732Y-4.0197
X3.1732Y-4.122
X3.2165Y-2.815
X3.2165Y-2.9213
X3.2205Y-4.0197
X3.2205Y-4.126
X3.2717Y-2.8189
X3.2717Y-2.9173
X3.2717Y-4.0236
X3.2717Y-4.1181
X3.311Y-4.0236
X3.311Y-4.1181
X3.3268Y-2.8189
X3.3268Y-2.9173
X3.3504Y-4.0236
X3.3504Y-4.1181
X3.3858Y-2.8189
X3.3976Y-4.1181
X3.4409Y-2.8189
X3.4488Y-4.1142
X3.4882Y-4.0472
X3.4882Y-4.0906
X3.5039Y-2.8346
X3.5039Y-2.8976
X4.0492Y-2.7146
X4.1299Y-3.065
X4.4587Y-2.7421
X4.5177Y-3.5157
X4.5571Y-3.5157
X4.5846Y-3.5728
X4.7185Y-3.4705
X4.7697Y-3.187
X4.8051Y-2.8839
X4.8091Y-3.0571
X4.8425Y-3.315
X4.877Y-2.7795
X4.8799Y-3.6043
X4.8799Y-3.6614
X4.8898Y-3.2953
X4.9272Y-3.2598
X5.063Y-2.8583
X5.063Y-2.9094
X5.0787Y-3.1004
X5.0787Y-3.1437
X5.0945Y-3.4843
X5.2283Y-2.8386
X5.2283Y-2.9291
X5.2376Y-3.664
X5.2563Y-3.6201
X5.2835Y-2.8386
X5.2835Y-2.9291
X5.3386Y-2.8386
X5.3386Y-2.9291
X5.3661Y-3.0787
X5.3661Y-3.122
X5.3661Y-3.1693
X5.3661Y-3.2165
X5.3661Y-3.2598
X5.3898Y-2.8386
X5.3898Y-2.9291
X5.4134Y-3.0787
X5.4134Y-3.2598
X5.4291Y-2.9291
X5.4449Y-2.8386
X5.4606Y-2.9291
X5.4646Y-3.0787
X5.4646Y-3.2598
X5.4843Y-2.9528
X5.5Y-2.8425
X5.5039Y-2.9843
X5.5039Y-3.0276
X5.5079Y-3.0748
X5.5079Y-3.2598
X5.5354Y-2.874
X5.5591Y-3.2598
X5.5669Y-2.9055
X5.6024Y-2.9409
X5.6024Y-2.9921
X5.6024Y-3.0433
X5.6063Y-3.2598
T2
X3.6614Y-3.1831
X3.6614Y-3.6378
X3.6909Y-2.9803
X4.1713Y-2.5335
X4.3071Y-3.7618
X4.3524Y-3.5925
X4.5118Y-2.7165
X4.5256Y-3.7087
X4.9134Y-3.748
X5.2097Y-3.7874
T3
X4.2827Y-3.936
X4.2827Y-4.236
X4.3827Y-3.936
X4.3827Y-4.236
X4.4827Y-3.936
X4.4827Y-4.236
X4.5827Y-3.936
X4.5827Y-4.236
X4.6827Y-3.936
X4.6827Y-4.236
X4.7827Y-3.936
X4.7827Y-4.236
X4.8827Y-3.936
X4.8827Y-4.236
X4.9827Y-3.936
X4.9827Y-4.236
X5.0827Y-3.936
X5.0827Y-4.236
T4
X3.422Y-2.4823
X3.422Y-2.5823
X3.522Y-2.4823
X3.522Y-2.5823
X3.622Y-2.4823
X3.622Y-2.5823
X3.722Y-2.4823
X3.722Y-2.5823
X3.822Y-2.4823
X3.822Y-2.5823
X3.922Y-2.4823
X3.922Y-2.5823
X4.022Y-2.4823
X4.022Y-2.5823
X4.122Y-2.4823
X4.122Y-2.5823
X4.222Y-2.4823
X4.222Y-2.5823
X4.2827Y-4.5266
X4.322Y-2.4823
X4.322Y-2.5823
X4.3827Y-4.5266
X4.422Y-2.4823
X4.422Y-2.5823
X4.4827Y-4.5266
X4.522Y-2.4823
X4.522Y-2.5823
X4.5827Y-4.5266
X4.622Y-2.4823
X4.622Y-2.5823
X4.6827Y-4.5266
X4.722Y-2.4823
X4.722Y-2.5823
X4.7827Y-4.5266
X4.822Y-2.4823
X4.822Y-2.5823
X4.8827Y-4.5266
X4.922Y-2.4823
X4.922Y-2.5823
X4.9827Y-4.5266
X4.9941Y-3.3248
X5.022Y-2.4823
X5.022Y-2.5823
X5.0827Y-4.5266
X5.0941Y-3.3248
X5.122Y-2.4823
X5.122Y-2.5823
X5.1827Y-4.5266
X5.1941Y-3.3248
X5.222Y-2.4823
X5.222Y-2.5823
X5.322Y-2.4823
X5.322Y-2.5823
X5.4213Y-3.685
X5.4213Y-3.785
X5.4213Y-3.885
X5.4213Y-3.985
X5.4213Y-4.085
X5.4213Y-4.185
X5.5213Y-3.685
X5.5213Y-3.785
X5.5213Y-3.885
X5.5213Y-3.985
X5.5213Y-4.085
X5.5213Y-4.185
T5
X3.6504Y-4.4409
X3.8504Y-4.4409
T0
M30
