G04 #@! TF.GenerationSoftware,KiCad,Pcbnew,6.0.2+dfsg-1*
G04 #@! TF.CreationDate,2022-08-30T21:57:41-05:00*
G04 #@! TF.ProjectId,BaseStationHAT,42617365-5374-4617-9469-6f6e4841542e,rev?*
G04 #@! TF.SameCoordinates,Original*
G04 #@! TF.FileFunction,Soldermask,Top*
G04 #@! TF.FilePolarity,Negative*
%FSLAX46Y46*%
G04 Gerber Fmt 4.6, Leading zero omitted, Abs format (unit mm)*
G04 Created by KiCad (PCBNEW 6.0.2+dfsg-1) date 2022-08-30 21:57:41*
%MOMM*%
%LPD*%
G01*
G04 APERTURE LIST*
G04 Aperture macros list*
%AMRoundRect*
0 Rectangle with rounded corners*
0 $1 Rounding radius*
0 $2 $3 $4 $5 $6 $7 $8 $9 X,Y pos of 4 corners*
0 Add a 4 corners polygon primitive as box body*
4,1,4,$2,$3,$4,$5,$6,$7,$8,$9,$2,$3,0*
0 Add four circle primitives for the rounded corners*
1,1,$1+$1,$2,$3*
1,1,$1+$1,$4,$5*
1,1,$1+$1,$6,$7*
1,1,$1+$1,$8,$9*
0 Add four rect primitives between the rounded corners*
20,1,$1+$1,$2,$3,$4,$5,0*
20,1,$1+$1,$4,$5,$6,$7,0*
20,1,$1+$1,$6,$7,$8,$9,0*
20,1,$1+$1,$8,$9,$2,$3,0*%
%AMOutline4P*
0 Free polygon, 4 corners , with rotation*
0 The origin of the aperture is its center*
0 number of corners: always 4*
0 $1 to $8 corner X, Y*
0 $9 Rotation angle, in degrees counterclockwise*
0 create outline with 4 corners*
4,1,4,$1,$2,$3,$4,$5,$6,$7,$8,$1,$2,$9*%
G04 Aperture macros list end*
G04 #@! TA.AperFunction,Profile*
%ADD10C,0.100000*%
G04 #@! TD*
%ADD11C,3.000000*%
%ADD12RoundRect,0.237500X0.250000X0.237500X-0.250000X0.237500X-0.250000X-0.237500X0.250000X-0.237500X0*%
%ADD13RoundRect,0.155000X-0.212500X-0.155000X0.212500X-0.155000X0.212500X0.155000X-0.212500X0.155000X0*%
%ADD14RoundRect,0.150000X0.150000X0.625000X-0.150000X0.625000X-0.150000X-0.625000X0.150000X-0.625000X0*%
%ADD15RoundRect,0.250000X0.350000X0.650000X-0.350000X0.650000X-0.350000X-0.650000X0.350000X-0.650000X0*%
%ADD16R,1.600000X2.400000*%
%ADD17O,1.600000X2.400000*%
%ADD18R,1.700000X1.700000*%
%ADD19O,1.700000X1.700000*%
%ADD20R,1.000000X1.500000*%
%ADD21R,4.060000X1.520000*%
%ADD22R,3.000000X3.000000*%
%ADD23R,2.000000X1.000000*%
%ADD24R,1.800000X0.600000*%
%ADD25Outline4P,-0.400000X-0.325000X0.400000X-0.325000X0.400000X0.325000X-0.400000X0.325000X90.000000*%
%ADD26Outline4P,-0.400000X-0.800000X0.400000X-0.800000X0.400000X0.800000X-0.400000X0.800000X90.000000*%
%ADD27R,2.500000X1.000000*%
%ADD28RoundRect,0.237500X-0.250000X-0.237500X0.250000X-0.237500X0.250000X0.237500X-0.250000X0.237500X0*%
G04 APERTURE END LIST*
D10*
X143546356Y-113817611D02*
X143546356Y-63817611D01*
X78546356Y-63817611D02*
X78546356Y-113817611D01*
X140546356Y-116817611D02*
G75*
G03*
X143546356Y-113817611I-1J3000001D01*
G01*
X140546356Y-60817611D02*
X81546356Y-60817611D01*
X81546356Y-116817611D02*
X140546356Y-116817611D01*
X143546356Y-63817611D02*
G75*
G03*
X140546356Y-60817611I-3000001J-1D01*
G01*
X81546356Y-60817611D02*
G75*
G03*
X78546356Y-63817611I1J-3000001D01*
G01*
X78546356Y-113817611D02*
G75*
G03*
X81546356Y-116817611I3000001J1D01*
G01*
D11*
X82040000Y-64310000D03*
X140040000Y-64330000D03*
X82040000Y-113320000D03*
X140030000Y-113310000D03*
D12*
X130212500Y-95200000D03*
X128387500Y-95200000D03*
D13*
X139733572Y-76351330D03*
X140868572Y-76351330D03*
D14*
X115750000Y-83675000D03*
X114750000Y-83675000D03*
X113750000Y-83675000D03*
X112750000Y-83675000D03*
D15*
X117050000Y-86200000D03*
X111450000Y-86200000D03*
D16*
X129100000Y-99975000D03*
D17*
X126560000Y-99975000D03*
X124020000Y-99975000D03*
X121480000Y-99975000D03*
X118940000Y-99975000D03*
X116400000Y-99975000D03*
X113860000Y-99975000D03*
X111320000Y-99975000D03*
X108780000Y-99975000D03*
X108780000Y-107595000D03*
X111320000Y-107595000D03*
X113860000Y-107595000D03*
X116400000Y-107595000D03*
X118940000Y-107595000D03*
X121480000Y-107595000D03*
X124020000Y-107595000D03*
X126560000Y-107595000D03*
X129100000Y-107595000D03*
D18*
X131640000Y-114975000D03*
D19*
X129100000Y-114975000D03*
X126560000Y-114975000D03*
X124020000Y-114975000D03*
X121480000Y-114975000D03*
X118940000Y-114975000D03*
X116400000Y-114975000D03*
X113860000Y-114975000D03*
X111320000Y-114975000D03*
X108780000Y-114975000D03*
D20*
X128100000Y-90150000D03*
X129400000Y-90150000D03*
X130700000Y-90150000D03*
D21*
X80657500Y-103400000D03*
X80657500Y-100860000D03*
X80657500Y-105940000D03*
D22*
X97800000Y-112800000D03*
D11*
X92720000Y-112800000D03*
D23*
X87000000Y-89400000D03*
X87000000Y-91400000D03*
X87000000Y-93400000D03*
X87000000Y-95400000D03*
X87000000Y-97400000D03*
X87000000Y-99400000D03*
X87000000Y-101400000D03*
X87000000Y-103400000D03*
X103000000Y-103400000D03*
X103000000Y-101400000D03*
X103000000Y-99400000D03*
X103000000Y-97400000D03*
X103000000Y-95400000D03*
X103000000Y-93400000D03*
X103000000Y-91400000D03*
X103000000Y-89400000D03*
D24*
X120750000Y-72150000D03*
X120750000Y-73250000D03*
X120750000Y-74350000D03*
X120750000Y-75450000D03*
X120750000Y-76550000D03*
X120750000Y-77650000D03*
X120750000Y-78750000D03*
X120750000Y-79850000D03*
X120750000Y-80950000D03*
X130450000Y-72150000D03*
X130450000Y-73250000D03*
X130450000Y-74350000D03*
X130450000Y-75450000D03*
X130450000Y-76550000D03*
X130450000Y-77650000D03*
X130450000Y-78750000D03*
X130450000Y-79850000D03*
X130450000Y-80950000D03*
D18*
X137700000Y-93600000D03*
D19*
X140240000Y-93600000D03*
X137700000Y-96140000D03*
X140240000Y-96140000D03*
X137700000Y-98680000D03*
X140240000Y-98680000D03*
X137700000Y-101220000D03*
X140240000Y-101220000D03*
X137700000Y-103760000D03*
X140240000Y-103760000D03*
X137700000Y-106300000D03*
X140240000Y-106300000D03*
D14*
X115750000Y-92125000D03*
X114750000Y-92125000D03*
X113750000Y-92125000D03*
X112750000Y-92125000D03*
D15*
X117050000Y-94650000D03*
X111450000Y-94650000D03*
D25*
X141250000Y-78900000D03*
X142250000Y-78900000D03*
D26*
X141750000Y-82100000D03*
D18*
X126850000Y-84450000D03*
D19*
X129390000Y-84450000D03*
X131930000Y-84450000D03*
D21*
X80657500Y-72850000D03*
X80657500Y-75390000D03*
X80657500Y-70310000D03*
D27*
X105450000Y-86850000D03*
X105450000Y-84850000D03*
X105450000Y-82850000D03*
X105450000Y-80850000D03*
X105450000Y-78850000D03*
X105450000Y-76850000D03*
X105450000Y-74850000D03*
X105450000Y-72850000D03*
X87250000Y-72850000D03*
X87250000Y-74850000D03*
X87250000Y-76850000D03*
X87250000Y-78850000D03*
X87250000Y-80850000D03*
X87250000Y-82850000D03*
X87250000Y-84850000D03*
X87250000Y-86850000D03*
D28*
X128387500Y-93000000D03*
X130212500Y-93000000D03*
D18*
X86920000Y-65590000D03*
D19*
X86920000Y-63050000D03*
X89460000Y-65590000D03*
X89460000Y-63050000D03*
X92000000Y-65590000D03*
X92000000Y-63050000D03*
X94540000Y-65590000D03*
X94540000Y-63050000D03*
X97080000Y-65590000D03*
X97080000Y-63050000D03*
X99620000Y-65590000D03*
X99620000Y-63050000D03*
X102160000Y-65590000D03*
X102160000Y-63050000D03*
X104700000Y-65590000D03*
X104700000Y-63050000D03*
X107240000Y-65590000D03*
X107240000Y-63050000D03*
X109780000Y-65590000D03*
X109780000Y-63050000D03*
X112320000Y-65590000D03*
X112320000Y-63050000D03*
X114860000Y-65590000D03*
X114860000Y-63050000D03*
X117400000Y-65590000D03*
X117400000Y-63050000D03*
X119940000Y-65590000D03*
X119940000Y-63050000D03*
X122480000Y-65590000D03*
X122480000Y-63050000D03*
X125020000Y-65590000D03*
X125020000Y-63050000D03*
X127560000Y-65590000D03*
X127560000Y-63050000D03*
X130100000Y-65590000D03*
X130100000Y-63050000D03*
X132640000Y-65590000D03*
X132640000Y-63050000D03*
X135180000Y-65590000D03*
X135180000Y-63050000D03*
M02*
