<?xml version="1.0" encoding="UTF-8" standalone="no"?>
<svg
   version="1.1"
   viewBox="0 0 256 256"
   width="256"
   height="256"
   id="svg11"
   sodipodi:docname="icon.svg"
   inkscape:version="1.3 (0e150ed6c4, 2023-07-21)"
   xmlns:inkscape="http://www.inkscape.org/namespaces/inkscape"
   xmlns:sodipodi="http://sodipodi.sourceforge.net/DTD/sodipodi-0.dtd"
   xmlns="http://www.w3.org/2000/svg"
   xmlns:svg="http://www.w3.org/2000/svg">
  <sodipodi:namedview
     id="namedview11"
     pagecolor="#ffffff"
     bordercolor="#666666"
     borderopacity="1.0"
     inkscape:showpageshadow="2"
     inkscape:pageopacity="0.0"
     inkscape:pagecheckerboard="0"
     inkscape:deskcolor="#d1d1d1"
     showgrid="false"
     inkscape:zoom="3.1845938"
     inkscape:cx="154.4938"
     inkscape:cy="131.72795"
     inkscape:window-width="1920"
     inkscape:window-height="1121"
     inkscape:window-x="-9"
     inkscape:window-y="-9"
     inkscape:window-maximized="1"
     inkscape:current-layer="g14" />
  <!-- svg-source:excalidraw -->
  <defs
     id="defs1">
    <style
       class="style-fonts"
       id="style1">&#10;      @font-face {&#10;        font-family: &quot;Virgil&quot;;&#10;        src: url(&quot;https://excalidraw.com/Virgil.woff2&quot;);&#10;      }&#10;      @font-face {&#10;        font-family: &quot;Cascadia&quot;;&#10;        src: url(&quot;https://excalidraw.com/Cascadia.woff2&quot;);&#10;      }&#10;    </style>
  </defs>
  <mask
     id="mask7" />
  <mask
     id="mask9" />
  <g
     id="g12"
     transform="matrix(1.3302557,0,0,1.3302557,25.202483,0.2525672)">
    <g
       id="g14"
       transform="matrix(0.86065591,0.28981306,-0.28981306,0.86065591,44.437196,-7.4686264)">
      <g
         id="g16"
         transform="translate(2.0084931,4.9635651)">
        <g
           id="g15"
           transform="rotate(-8.7603719,125.92162,88.397119)">
          <g
             transform="rotate(-10.886608,302.2176,-532.171)"
             stroke="none"
             id="g1">
            <path
               fill="#000000"
               d="m 2.61,-0.2 q 0,0 0.11,1.02 0.11,1.02 0.22,2.77 0.11,1.75 0.07,3.78 -0.04,2.03 -0.07,4.02 -0.02,1.99 -0.01,4.02 0.01,2.04 -0.05,3.56 -0.06,1.52 -0.07,2.8 -0.01,1.28 -0.19,3.14 -0.18,1.87 -0.23,3.32 -0.06,1.44 -0.15,3.23 -0.09,1.79 -0.16,3.18 -0.06,1.39 -0.06,2.47 0,1.08 -0.04,2.62 -0.04,1.55 0,3.93 0.03,2.37 0.17,4.34 0.13,1.98 0.23,3.96 0.1,1.99 0.34,3.21 0.24,1.21 0.38,2.82 0.14,1.62 0.2,2.85 0.05,1.22 0.25,2.64 0.2,1.42 1.21,0.95 1.01,-0.48 2.4,-0.5 1.39,-0.03 2.58,-0.05 1.2,-0.02 0.41,0.9 -0.79,0.93 -0.66,-0.83 0.13,-1.75 0.2,-3.08 0.08,-1.33 0.13,-2.61 0.05,-1.27 0.28,-3.47 0.24,-2.2 0.32,-3.92 0.09,-1.72 0.22,-3.71 0.13,-2 0.19,-3.39 0.06,-1.39 0.17,-2.84 0.11,-1.45 0.08,-2.95 -0.03,-1.5 0,-2.91 Q 11.12,33.66 11.06,32.2 11,30.74 10.87,29.01 10.74,27.29 10.57,25.44 10.39,23.59 10.28,21.84 10.17,20.1 10.1,18.31 10.02,16.52 9.99,15.05 9.95,13.59 9.93,12.27 9.9,10.96 9.88,9.83 9.85,8.69 9.83,7.59 9.81,6.48 9.9,5.39 9.99,4.3 10,2.74 q 0.01,-1.56 0.1,-2.11 0.09,-0.54 0.35,-1.02 0.26,-0.49 0.66,-0.87 0.4,-0.38 0.9,-0.61 0.51,-0.23 1.06,-0.29 0.55,-0.06 1.08,0.06 0.54,0.12 1.02,0.4 0.47,0.29 0.83,0.71 0.36,0.42 0.56,0.93 Q 16.77,0.45 16.8,1 16.83,1.55 16.68,2.08 16.53,2.61 16.22,3.07 15.91,3.53 15.47,3.86 15.03,4.2 14.5,4.37 13.98,4.55 13.43,4.55 12.88,4.55 12.35,4.37 11.83,4.2 11.39,3.86 10.95,3.53 10.64,3.07 10.33,2.61 10.18,2.08 10.03,1.55 10.06,0.99 q 0.03,-0.55 0.24,-1.05 0.2,-0.51 0.56,-0.93 0.36,-0.43 0.83,-0.71 0.48,-0.29 1.02,-0.4 0.54,-0.12 1.09,-0.06 0.54,0.06 1.05,0.29 0.5,0.23 0.9,0.61 0.4,0.38 0.66,0.87 0.26,0.48 0.35,1.03 0.09,0.54 0.09,0.54 0,0 -0.18,2.65 -0.17,2.65 -0.19,3.76 -0.02,1.1 -0.05,2.23 -0.02,1.14 -0.04,2.44 -0.03,1.3 -0.04,2.73 -0.02,1.42 0.02,2.99 0.03,1.56 0.13,2.65 0.09,1.08 0.14,2.75 0.04,1.66 0.22,3.48 0.18,1.81 0.13,2.88 -0.06,1.06 -0.14,2.22 -0.08,1.16 -0.31,2.92 -0.24,1.77 -0.41,3.37 -0.16,1.61 -0.28,3.01 -0.11,1.41 -0.21,2.66 -0.1,1.24 0.03,3.24 0.13,1.99 0.22,3.71 0.08,1.73 0.31,3.93 0.23,2.2 0.28,3.49 0.04,1.28 0.1,2.64 0.06,1.35 0.11,2.78 0.05,1.42 -0.18,2.81 -0.22,1.38 -1.39,2.71 -1.16,1.32 -2.87,1.55 Q 10.53,71.01 9.2,70.99 7.87,70.96 6.43,70.93 4.99,70.9 3.84,70.84 2.69,70.77 1.3,70.32 -0.08,69.87 -1.04,68.66 -2,67.46 -2.33,66 q -0.33,-1.46 -0.41,-2.67 -0.08,-1.21 -0.04,-2.36 0.03,-1.15 0.03,-2.37 0,-1.22 -0.16,-2.9 -0.16,-1.67 -0.16,-3.51 0.01,-1.84 -0.01,-4 -0.02,-2.17 -0.01,-3.5 0.01,-1.32 0.06,-2.39 0.04,-1.07 0.03,-2.67 -0.01,-1.61 0.06,-2.76 0.08,-1.15 0.18,-2.4 0.1,-1.25 0.04,-3.08 -0.06,-1.83 -0.05,-3.34 0.02,-1.5 -0.01,-3.25 -0.02,-1.75 -0.03,-3.03 -0.01,-1.28 -0.07,-2.81 -0.05,-1.53 -0.02,-3.59 0.03,-2.06 0.09,-4.2 0.07,-2.14 0.17,-3.94 0.09,-1.81 0.11,-3.4 0.02,-1.58 -0.03,-2.61 -0.05,-1.02 -0.04,-1.33 0.02,-0.32 0.11,-0.62 0.09,-0.3 0.25,-0.58 0.15,-0.27 0.37,-0.5 0.22,-0.22 0.49,-0.39 0.27,-0.17 0.57,-0.27 0.3,-0.1 0.62,-0.12 0.3,-0.02 0.61,0.03 0.31,0.05 0.6,0.17 0.29,0.13 0.55,0.32 0.25,0.19 0.45,0.44 0.2,0.24 0.33,0.53 0.14,0.28 0.2,0.59 0.06,0.31 0.06,0.31 z"
               id="path1" />
          </g>
          <g
             transform="rotate(-10.886608,284.68042,-533.40313)"
             stroke="none"
             id="g2">
            <path
               fill="#000000"
               d="m -2.45,-1.02 q 0,0 0.36,-0.96 0.37,-0.95 0.88,-2.01 0.51,-1.05 0.94,-2.45 0.41,-1.4 0.88,-2.53 0.46,-1.12 0.91,-2.5 0.45,-1.38 0.76,-2.61 0.31,-1.23 0.7,-2.41 0.38,-1.17 1.11,-2.59 0.72,-1.42 2.79,-1.44 2.07,-0.03 3.18,1.25 1.11,1.28 1.96,3.12 0.84,1.84 1.48,3.86 0.64,2.03 0.98,3.46 0.33,1.43 0.62,2.67 0.29,1.24 0.54,2.47 0.25,1.23 0.54,2.48 0.29,1.24 0.62,2.32 0.33,1.08 0.51,2.79 0.17,1.7 0.09,2.26 Q 17.32,6.72 17.06,7.23 16.8,7.73 16.4,8.13 16,8.53 15.49,8.78 14.98,9.02 14.41,9.09 13.85,9.17 13.3,9.06 12.74,8.94 12.25,8.66 11.76,8.38 11.38,7.95 11.01,7.53 10.79,7 10.57,6.48 10.53,5.92 10.49,5.35 10.63,4.8 10.77,4.25 11.08,3.78 11.39,3.3 11.83,2.95 12.28,2.6 12.81,2.41 q 0.54,-0.19 1.1,-0.2 0.57,-0.01 1.11,0.16 0.54,0.17 1,0.5 0.46,0.34 0.78,0.8 0.33,0.46 0.49,1.01 0.16,0.54 0.14,1.11 -0.02,0.56 -0.22,1.1 -0.2,0.53 -0.56,0.96 Q 16.29,8.29 15.81,8.59 15.33,8.9 14.78,9.03 14.23,9.16 13.67,9.11 13.1,9.06 12.58,8.83 12.06,8.6 11.64,8.22 11.23,7.84 10.95,7.34 10.68,6.84 10.57,6.29 q -0.1,-0.56 -0.1,-0.56 0,0 -0.08,-1.45 Q 10.3,2.84 9.84,1.3 9.37,-0.23 9.12,-1.74 8.87,-3.25 8.6,-4.5 8.34,-5.76 8.09,-6.97 7.85,-8.18 7.27,-9.86 q -0.58,-1.68 -1.19,-3.28 -0.61,-1.6 0.98,-1.71 1.59,-0.1 2.23,-1.19 0.64,-1.09 0.33,0.08 -0.3,1.17 -0.75,2.18 -0.45,1 -0.74,2.03 -0.29,1.03 -0.69,2.07 Q 7.05,-8.64 6.53,-7.64 6.02,-6.63 5.48,-5.41 4.95,-4.2 4.12,-2.52 3.29,-0.84 2.87,0.08 2.45,1.02 2.3,1.3 2.14,1.58 1.92,1.81 1.7,2.05 1.43,2.22 1.16,2.39 0.85,2.5 0.55,2.6 0.23,2.63 -0.08,2.66 -0.4,2.61 -0.72,2.56 -1.01,2.44 -1.31,2.31 -1.57,2.12 -1.83,1.93 -2.03,1.68 -2.24,1.44 -2.38,1.15 -2.52,0.86 -2.58,0.54 -2.65,0.23 -2.64,-0.08 q 0.01,-0.32 0.1,-0.63 z"
               id="path2" />
          </g>
          <g
             transform="rotate(-10.886608,305.91728,-523.81369)"
             stroke="none"
             id="g3">
            <path
               fill="#000000"
               d="m 0.43,-2.58 q 0,0 1.41,0.25 1.42,0.25 2.95,0.3 1.52,0.05 3.24,0.33 1.72,0.27 3.27,0.51 1.54,0.24 1.97,0.43 0.43,0.2 0.78,0.51 0.35,0.31 0.57,0.73 0.23,0.41 0.31,0.87 0.08,0.46 0.01,0.93 Q 14.87,2.74 14.66,3.16 14.45,3.58 14.11,3.91 13.77,4.24 13.35,4.44 12.92,4.64 12.46,4.7 11.99,4.76 11.53,4.66 11.07,4.57 10.66,4.33 10.26,4.1 9.95,3.74 9.64,3.39 9.46,2.95 9.28,2.52 9.25,2.05 9.21,1.58 9.33,1.13 9.45,0.67 9.71,0.28 9.97,-0.1 10.34,-0.39 10.71,-0.68 11.15,-0.84 11.6,-1 12.07,-1 q 0.47,-0.01 0.91,0.13 0.45,0.15 0.83,0.43 0.38,0.28 0.65,0.65 0.27,0.39 0.4,0.84 0.13,0.45 0.11,0.92 -0.02,0.47 -0.18,0.91 -0.17,0.44 -0.47,0.8 -0.3,0.36 -0.7,0.61 -0.4,0.25 -0.86,0.36 -0.45,0.1 -0.92,0.06 -0.47,-0.04 -0.47,-0.04 0,0 -1.54,-0.27 Q 8.29,4.13 7.16,3.81 6.03,3.5 4.22,3.26 2.41,3.03 0.99,2.8 -0.43,2.58 -0.73,2.49 -1.03,2.4 -1.31,2.24 -1.58,2.08 -1.81,1.86 -2.03,1.65 -2.2,1.38 -2.37,1.11 -2.47,0.81 q -0.1,-0.3 -0.12,-0.62 -0.02,-0.3 0.03,-0.61 0.05,-0.31 0.17,-0.61 0.13,-0.29 0.32,-0.54 0.19,-0.25 0.44,-0.45 0.24,-0.2 0.53,-0.33 0.28,-0.14 0.59,-0.2 0.31,-0.06 0.62,-0.05 0.32,0.02 0.32,0.02 z"
               id="path3" />
          </g>
          <g
             transform="rotate(-10.886608,514.64906,-542.25221)"
             stroke="none"
             id="g4">
            <path
               fill="#000000"
               d="m 2.13,1.6 q 0,0 -0.7,0.95 -0.69,0.96 -1.54,2.23 -0.85,1.27 -1.56,2.52 -0.71,1.25 -1.31,2.55 -0.6,1.3 -1.31,2.73 -0.7,1.42 -1.37,2.6 -0.68,1.17 -1.2,2.15 -0.52,0.97 -1.12,2.23 -0.6,1.27 -1.14,2.4 -0.53,1.12 -0.64,2.24 -0.11,1.12 -0.88,0.11 -0.77,-1.01 0.41,-0.79 1.18,0.23 2.23,0.36 1.06,0.14 2.21,0.29 1.14,0.14 2.32,0.13 1.18,-0.02 3.24,-0.02 2.05,0 2.63,0.1 0.59,0.09 1.12,0.37 0.52,0.28 0.93,0.71 0.41,0.44 0.66,0.98 0.25,0.54 0.31,1.13 0.07,0.59 -0.06,1.17 -0.13,0.58 -0.43,1.09 -0.31,0.51 -0.76,0.9 -0.46,0.38 -1.01,0.6 -0.55,0.22 -1.15,0.26 -0.59,0.03 -1.17,-0.13 -0.57,-0.16 -1.05,-0.5 -0.5,-0.33 -0.86,-0.8 -0.36,-0.48 -0.55,-1.04 -0.19,-0.57 -0.19,-1.16 0,-0.6 0.19,-1.16 0.2,-0.56 0.56,-1.04 0.36,-0.47 0.85,-0.81 0.48,-0.33 1.05,-0.49 0.58,-0.16 1.17,-0.13 0.6,0.04 1.15,0.26 0.55,0.22 1.01,0.6 0.45,0.39 0.76,0.9 0.3,0.51 0.43,1.09 0.13,0.58 0.06,1.17 -0.06,0.6 -0.31,1.14 -0.25,0.54 -0.66,0.97 -0.41,0.43 -0.93,0.71 -0.53,0.28 -1.12,0.37 -0.59,0.1 -0.59,0.1 0.01,0 -2.08,-0.01 -2.09,0 -3.33,-0.04 -1.24,-0.03 -2.84,-0.18 -1.59,-0.15 -2.78,-0.31 -1.18,-0.16 -2.65,-0.5 -1.46,-0.34 -2.98,-1.52 -1.52,-1.18 -1.8,-3.08 -0.27,-1.9 0.08,-3.1 0.34,-1.21 0.85,-2.27 0.5,-1.06 1.36,-2.78 0.86,-1.72 1.73,-3.24 0.88,-1.52 1.56,-2.58 0.69,-1.07 1.28,-2.07 0.6,-1.01 1.37,-2.5 0.78,-1.48 1.81,-3.09 1.04,-1.61 2.04,-2.86 1,-1.24 1.72,-2.17 0.72,-0.94 0.94,-1.17 0.22,-0.23 0.49,-0.41 0.28,-0.17 0.58,-0.27 0.31,-0.1 0.63,-0.13 0.31,-0.03 0.63,0.03 0.32,0.05 0.61,0.17 0.3,0.13 0.56,0.32 0.25,0.2 0.46,0.45 0.2,0.24 0.34,0.54 0.14,0.29 0.2,0.6 Q 2.66,-0.21 2.65,0.1 2.63,0.42 2.54,0.73 2.45,1.04 2.29,1.32 Z"
               id="path4" />
          </g>
          <g
             transform="rotate(-10.886608,505.80794,-619.79869)"
             stroke="none"
             id="g5">
            <path
               fill="#000000"
               d="m 2.55,-0.69 q 0,0 0.27,0.84 0.27,0.85 0.8,1.79 0.53,0.94 1.12,1.9 0.6,0.97 1.39,2.35 0.78,1.39 1.5,2.49 0.72,1.09 1.34,2.03 0.63,0.95 1.37,1.93 0.75,0.98 1.46,1.79 0.72,0.81 1.51,1.73 0.78,0.92 1.64,2.13 0.87,1.2 1.6,2.47 0.73,1.28 0.91,2.49 0.18,1.21 -0.76,3.19 -0.95,1.98 -2.47,2.97 -1.53,0.99 -2.78,1.51 -1.24,0.52 -2.78,0.78 -1.54,0.26 -2.97,0.44 -1.42,0.18 -4.34,0.23 -2.91,0.05 -3.49,-0.04 -0.59,-0.1 -1.11,-0.37 -0.52,-0.28 -0.92,-0.71 -0.41,-0.42 -0.65,-0.96 -0.25,-0.53 -0.32,-1.12 -0.06,-0.58 0.07,-1.16 0.12,-0.58 0.43,-1.08 0.3,-0.51 0.75,-0.89 0.45,-0.38 1,-0.6 0.54,-0.21 1.13,-0.25 0.59,-0.03 1.16,0.13 0.57,0.16 1.04,0.49 0.49,0.33 0.85,0.8 0.36,0.47 0.54,1.03 0.19,0.55 0.19,1.14 0,0.59 -0.19,1.15 -0.19,0.56 -0.54,1.03 -0.36,0.47 -0.85,0.8 -0.47,0.33 -1.04,0.49 -0.57,0.15 -1.16,0.12 -0.59,-0.03 -1.13,-0.25 -0.55,-0.22 -1,-0.6 -0.45,-0.38 -0.75,-0.89 -0.31,-0.5 -0.43,-1.08 -0.13,-0.57 -0.07,-1.16 0.07,-0.58 0.32,-1.12 0.24,-0.53 0.65,-0.96 0.4,-0.43 0.92,-0.7 0.53,-0.28 1.11,-0.37 0.58,-0.1 0.58,-0.1 0,0 2.62,-0.03 2.63,-0.03 3.8,-0.21 1.17,-0.17 2.83,-0.64 1.66,-0.46 2.68,-0.09 1.03,0.37 0.08,-0.51 Q 9.52,22.78 8.91,21.74 8.3,20.7 7.21,19.53 6.12,18.36 5.29,17.13 4.45,15.9 3.81,14.85 3.18,13.79 2.61,12.73 2.05,11.67 1.54,10.68 1.02,9.7 0.52,8.67 0.01,7.64 -0.54,6.4 -1.1,5.15 -1.62,3.8 -2.15,2.45 -2.35,1.57 -2.55,0.69 -2.6,0.38 -2.65,0.06 -2.62,-0.25 q 0.03,-0.32 0.14,-0.62 0.11,-0.3 0.28,-0.57 0.18,-0.27 0.41,-0.48 0.23,-0.22 0.51,-0.38 0.28,-0.15 0.59,-0.24 0.31,-0.08 0.63,-0.09 0.31,-0.01 0.62,0.06 0.31,0.07 0.6,0.21 0.29,0.15 0.53,0.35 0.25,0.21 0.44,0.47 0.18,0.25 0.3,0.55 0.12,0.3 0.12,0.3 z"
               id="path5" />
          </g>
        </g>
        <g
           id="g13"
           transform="translate(-14.399276,0.94421483)">
          <g
             stroke-linecap="round"
             id="g7">
            <g
               transform="rotate(160.38332,50.138025,78.722496)"
               id="g6">
              <path
                 d="m 0,0 c 1.86,0.85 7.41,2.79 11.16,5.1 3.74,2.31 7.86,5.74 11.31,8.77 3.46,3.03 6.91,6.08 9.41,9.4 2.5,3.32 3.88,6.32 5.58,10.52 1.7,4.2 3.77,10.26 4.62,14.67 0.85,4.41 0.64,7.86 0.48,11.79 -0.16,3.93 -0.53,7.92 -1.44,11.8 -0.9,3.88 -2.36,7.7 -3.98,11.47 -1.62,3.78 -3.72,8.11 -5.74,11.16 -2.02,3.06 -3.98,4.86 -6.37,7.17 -2.4,2.32 -5.16,4.84 -7.97,6.7 -2.82,1.86 -6.22,3.21 -8.93,4.46 -2.71,1.25 -6.11,2.53 -7.33,3.03 M 0,0 c 1.86,0.85 7.41,2.79 11.16,5.1 3.74,2.31 7.86,5.74 11.31,8.77 3.46,3.03 6.91,6.08 9.41,9.4 2.5,3.32 3.88,6.32 5.58,10.52 1.7,4.2 3.77,10.26 4.62,14.67 0.85,4.41 0.64,7.86 0.48,11.79 -0.16,3.93 -0.53,7.92 -1.44,11.8 -0.9,3.88 -2.36,7.7 -3.98,11.47 -1.62,3.78 -3.72,8.11 -5.74,11.16 -2.02,3.06 -3.98,4.86 -6.37,7.17 -2.4,2.32 -5.16,4.84 -7.97,6.7 -2.82,1.86 -6.22,3.21 -8.93,4.46 -2.71,1.25 -6.11,2.53 -7.33,3.03"
                 stroke="#1971c2"
                 stroke-width="4"
                 fill="none"
                 id="path6" />
            </g>
          </g>
          <g
             stroke-linecap="round"
             id="g9">
            <g
               transform="rotate(160.38332,41.619852,89.041355)"
               id="g8">
              <path
                 d="m 0,0 c 1.03,0.51 2.67,0.6 6.19,3.03 3.52,2.44 10.38,7.58 14.94,11.57 4.56,4 9.12,8.03 12.41,12.42 3.3,4.38 5.12,8.34 7.36,13.88 2.25,5.54 4.98,13.54 6.11,19.36 1.12,5.82 0.84,10.38 0.63,15.56 -0.21,5.19 -0.7,10.45 -1.9,15.57 -1.19,5.12 -3.12,10.17 -5.26,15.15 -2.14,4.98 -4.91,10.69 -7.57,14.73 -2.66,4.03 -5.26,6.41 -8.42,9.46 -3.15,3.05 -6.8,6.38 -10.51,8.84 -3.72,2.45 -8.99,4.58 -11.79,5.89 -2.79,1.31 -4.16,1.62 -5,1.94 M 0,0 c 1.03,0.51 2.67,0.6 6.19,3.03 3.52,2.44 10.38,7.58 14.94,11.57 4.56,4 9.12,8.03 12.41,12.42 3.3,4.38 5.12,8.34 7.36,13.88 2.25,5.54 4.98,13.54 6.11,19.36 1.12,5.82 0.84,10.38 0.63,15.56 -0.21,5.19 -0.7,10.45 -1.9,15.57 -1.19,5.12 -3.12,10.17 -5.26,15.15 -2.14,4.98 -4.91,10.69 -7.57,14.73 -2.66,4.03 -5.26,6.41 -8.42,9.46 -3.15,3.05 -6.8,6.38 -10.51,8.84 -3.72,2.45 -8.99,4.58 -11.79,5.89 -2.79,1.31 -4.16,1.62 -5,1.94"
                 stroke="#1971c2"
                 stroke-width="4"
                 fill="none"
                 id="path7" />
            </g>
          </g>
          <g
             stroke-linecap="round"
             id="g11">
            <g
               transform="rotate(160.38332,31.732338,98.546274)"
               id="g10">
              <path
                 d="M 0,0 C 0.08,-0.06 -2.74,-2.74 0.48,-0.37 3.69,2 13.56,9.18 19.3,14.21 c 5.74,5.04 11.49,10.12 15.64,15.65 4.16,5.52 6.45,10.51 9.28,17.49 2.83,6.99 6.28,17.06 7.69,24.4 1.42,7.33 1.06,13.08 0.8,19.62 -0.27,6.54 -0.89,13.16 -2.39,19.62 -1.5,6.45 -3.93,12.81 -6.63,19.08 -2.69,6.28 -6.18,13.48 -9.54,18.56 -3.36,5.09 -6.63,8.09 -10.61,11.93 -3.97,3.85 -8.57,8.05 -13.25,11.14 -4.69,3.09 -12.26,6.23 -14.85,7.42 -2.59,1.2 -0.56,-0.22 -0.67,-0.27 M 0,0 C 0.08,-0.06 -2.74,-2.74 0.48,-0.37 3.69,2 13.56,9.18 19.3,14.21 c 5.74,5.04 11.49,10.12 15.64,15.65 4.16,5.52 6.45,10.51 9.28,17.49 2.83,6.99 6.28,17.06 7.69,24.4 1.42,7.33 1.06,13.08 0.8,19.62 -0.27,6.54 -0.89,13.16 -2.39,19.62 -1.5,6.45 -3.93,12.81 -6.63,19.08 -2.69,6.28 -6.18,13.48 -9.54,18.56 -3.36,5.09 -6.63,8.09 -10.61,11.93 -3.97,3.85 -8.57,8.05 -13.25,11.14 -4.69,3.09 -12.26,6.23 -14.85,7.42 -2.59,1.2 -0.56,-0.22 -0.67,-0.27"
                 stroke="#1971c2"
                 stroke-width="4"
                 fill="none"
                 id="path9" />
            </g>
          </g>
        </g>
      </g>
    </g>
  </g>
  <mask
     id="mask11" />
</svg>
